<svg xmlns="http://www.w3.org/2000/svg" width="458" height="628" viewBox="0 0 458 628">
  <g id="Grupo_1102365" data-name="Grupo 1102365" transform="translate(3132 9130)">
    <g id="Grupo_1102272" data-name="Grupo 1102272" transform="translate(-596.984 -11.385)">
      <g id="Grupo_1101116" data-name="Grupo 1101116" transform="translate(-2192.885 -9047.615) rotate(90)">
        <path id="Sustracción_1" data-name="Sustracción 1" d="M226.461,93H0a115.476,115.476,0,0,1,226.461,0Z" transform="translate(0 226.461) rotate(-90)" fill="#2ed4bf"/>
        <ellipse id="Elipse_11507" data-name="Elipse 11507" cx="86.5" cy="87" rx="86.5" ry="87" transform="translate(30 198.357) rotate(-90)" fill="#f2f6ff"/>
      </g>
      <line id="Línea_878" data-name="Línea 878" x1="62" y1="60" transform="translate(-2216.615 -8996.115) rotate(90)" fill="none" stroke="#198b7d" stroke-linecap="round" stroke-width="2"/>
      <line id="Línea_879" data-name="Línea 879" x1="75" y1="31" transform="translate(-2266.615 -9037.115) rotate(90)" fill="none" stroke="#198b7d" stroke-linecap="round" stroke-width="2"/>
      <line id="Línea_882" data-name="Línea 882" x1="79" y2="15" transform="translate(-2312.615 -9041.115) rotate(90)" fill="none" stroke="#198b7d" stroke-linecap="round" stroke-width="2"/>
      <line id="Línea_880" data-name="Línea 880" x1="69" y2="62" transform="translate(-2327.615 -9003.115) rotate(90)" fill="none" stroke="#198b7d" stroke-linecap="round" stroke-width="2"/>
      <g id="Rectángulo_401590" data-name="Rectángulo 401590" transform="translate(-2383.115 -8967.922)" fill="#f2f6ff" stroke="#aec4fa" stroke-width="5">
        <rect width="154" height="60" stroke="none"/>
        <rect x="2.5" y="2.5" width="149" height="55" fill="none"/>
      </g>
      <text id="Persona" transform="translate(-2337.615 -8931.922)" fill="#12263f" font-size="16" font-family="Roboto-Bold, Roboto" font-weight="700"><tspan x="0" y="0">Persona</tspan></text>
      <g id="Rectángulo_401594" data-name="Rectángulo 401594" transform="translate(-2390.615 -8972.844)" fill="none" stroke="#a854f3" stroke-width="1" stroke-dasharray="2">
        <rect width="169" height="69.844" stroke="none"/>
        <rect x="0.5" y="0.5" width="168" height="68.844" fill="none"/>
      </g>
      <g id="Grupo_1101118" data-name="Grupo 1101118" transform="translate(5465.885 -9542.615) rotate(90)">
        <circle id="Elipse_11511" data-name="Elipse 11511" cx="10.5" cy="10.5" r="10.5" transform="translate(536 7672)" fill="#27b8a6"/>
        <circle id="Elipse_11515" data-name="Elipse 11515" cx="5.5" cy="5.5" r="5.5" transform="translate(541 7677)" fill="#2b7a70"/>
      </g>
      <g id="Grupo_1101119" data-name="Grupo 1101119" transform="translate(5415.885 -9583.615) rotate(90)">
        <circle id="Elipse_11511-2" data-name="Elipse 11511" cx="10.5" cy="10.5" r="10.5" transform="translate(536 7672)" fill="#27b8a6"/>
        <circle id="Elipse_11515-2" data-name="Elipse 11515" cx="5.5" cy="5.5" r="5.5" transform="translate(541 7677)" fill="#2b7a70"/>
      </g>
      <g id="Grupo_1101120" data-name="Grupo 1101120" transform="translate(5351.885 -9587.615) rotate(90)">
        <circle id="Elipse_11511-3" data-name="Elipse 11511" cx="10.5" cy="10.5" r="10.5" transform="translate(536 7672)" fill="#27b8a6"/>
        <circle id="Elipse_11515-3" data-name="Elipse 11515" cx="5.5" cy="5.5" r="5.5" transform="translate(541 7677)" fill="#2b7a70"/>
      </g>
      <g id="Grupo_1101121" data-name="Grupo 1101121" transform="translate(5292.885 -9549.615) rotate(90)">
        <circle id="Elipse_11511-4" data-name="Elipse 11511" cx="10.5" cy="10.5" r="10.5" transform="translate(536 7672)" fill="#27b8a6"/>
        <circle id="Elipse_11515-4" data-name="Elipse 11515" cx="5.5" cy="5.5" r="5.5" transform="translate(541 7677)" fill="#2b7a70"/>
      </g>
    </g>
    <rect id="Rectángulo_401596" data-name="Rectángulo 401596" width="126" height="45" rx="22.5" transform="translate(-3132 -9063)" fill="#f2e5fd"/>
    <rect id="Rectángulo_401597" data-name="Rectángulo 401597" width="126" height="45" rx="22.5" transform="translate(-3056 -9130)" fill="#f2e5fd"/>
    <rect id="Rectángulo_401601" data-name="Rectángulo 401601" width="126" height="45" rx="22.5" transform="translate(-2825 -8585)" fill="#f2e5fd"/>
    <rect id="Rectángulo_401598" data-name="Rectángulo 401598" width="126" height="45" rx="22.5" transform="translate(-2881 -9130)" fill="#f2e5fd"/>
    <rect id="Rectángulo_401602" data-name="Rectángulo 401602" width="126" height="45" rx="22.5" transform="translate(-2979 -8547)" fill="#f2e5fd"/>
    <rect id="Rectángulo_401599" data-name="Rectángulo 401599" width="126" height="45" rx="22.5" transform="translate(-2800 -9063)" fill="#f2e5fd"/>
    <rect id="Rectángulo_401603" data-name="Rectángulo 401603" width="126" height="45" rx="22.5" transform="translate(-3112 -8585)" fill="#f2e5fd"/>
    <text id="nombres" transform="translate(-3100 -9035)" fill="#12263f" font-size="16" font-family="Roboto-Bold, Roboto" font-weight="700"><tspan x="0" y="0">nombres</tspan></text>
    <text id="apellidos" transform="translate(-3024 -9102)" fill="#12263f" font-size="16" font-family="Roboto-Bold, Roboto" font-weight="700"><tspan x="0" y="0">apellidos</tspan></text>
    <text id="apellidos-2" data-name="apellidos" transform="translate(-2793 -8557)" fill="#12263f" font-size="16" font-family="Roboto-Bold, Roboto" font-weight="700"><tspan x="0" y="0">apellidos</tspan></text>
    <text id="edad" transform="translate(-2835 -9102)" fill="#12263f" font-size="16" font-family="Roboto-Bold, Roboto" font-weight="700"><tspan x="0" y="0">edad</tspan></text>
    <text id="edad-2" data-name="edad" transform="translate(-2933 -8519)" fill="#12263f" font-size="16" font-family="Roboto-Bold, Roboto" font-weight="700"><tspan x="0" y="0">edad</tspan></text>
    <text id="identificación" transform="translate(-2782 -9035)" fill="#12263f" font-size="16" font-family="Roboto-Bold, Roboto" font-weight="700"><tspan x="0" y="0">identificación</tspan></text>
    <text id="identificación-2" data-name="identificación" transform="translate(-3094 -8557)" fill="#12263f" font-size="16" font-family="Roboto-Bold, Roboto" font-weight="700"><tspan x="0" y="0">identificación</tspan></text>
    <g id="Grupo_1102273" data-name="Grupo 1102273" transform="translate(-1079.25 272.25)">
      <g id="Grupo_1101117" data-name="Grupo 1101117" transform="translate(-1944.727 -8861.75) rotate(-90)">
        <path id="Sustracción_1-2" data-name="Sustracción 1" d="M226.461,93H0a115.476,115.476,0,0,1,226.461,0Z" transform="translate(0 226.461) rotate(-90)" fill="#f3d457"/>
        <path id="Trazado_883910" data-name="Trazado 883910" d="M86.5,0C134.273,0,173,38.951,173,87s-38.727,87-86.5,87S0,135.049,0,87,38.727,0,86.5,0Z" transform="translate(30 198.357) rotate(-90)" fill="#f2f6ff"/>
      </g>
      <line id="Línea_875" data-name="Línea 875" y1="55" x2="63.5" transform="translate(-1745.75 -8969.75) rotate(90)" fill="none" stroke="#d1b132" stroke-linecap="round" stroke-width="2"/>
      <line id="Línea_876" data-name="Línea 876" x2="73.5" transform="translate(-1830.75 -8940.75) rotate(90)" fill="none" stroke="#d1b132" stroke-linecap="round" stroke-width="2"/>
      <line id="Línea_877" data-name="Línea 877" x2="67.5" y2="54" transform="translate(-1860.75 -8969.75) rotate(90)" fill="none" stroke="#d1b132" stroke-linecap="round" stroke-width="2"/>
      <g id="Rectángulo_401592" data-name="Rectángulo 401592" transform="translate(-1906.25 -8997)" fill="#f2f6ff" stroke="#aec4fa" stroke-width="5">
        <rect width="154" height="60" stroke="none"/>
        <rect x="2.5" y="2.5" width="149" height="55" fill="none"/>
      </g>
      <text id="Cuenta" transform="translate(-1856.25 -8961)" fill="#12263f" font-size="16" font-family="Roboto-Bold, Roboto" font-weight="700"><tspan x="0" y="0">Cuenta</tspan></text>
      <g id="Rectángulo_401595" data-name="Rectángulo 401595" transform="translate(-1914.75 -9001.922)" fill="none" stroke="#a854f3" stroke-width="1" stroke-dasharray="2">
        <rect width="169" height="69.844" stroke="none"/>
        <rect x="0.5" y="0.5" width="168" height="68.844" fill="none"/>
      </g>
      <g id="Grupo_1101122" data-name="Grupo 1101122" transform="translate(5936.75 -9452.75) rotate(90)">
        <circle id="Elipse_11511-5" data-name="Elipse 11511" cx="10.5" cy="10.5" r="10.5" transform="translate(536 7672)" fill="#d1b132"/>
        <circle id="Elipse_11515-5" data-name="Elipse 11515" cx="5.5" cy="5.5" r="5.5" transform="translate(541 7677)" fill="#95802c"/>
      </g>
      <g id="Grupo_1101125" data-name="Grupo 1101125" transform="translate(5850.75 -9413.75) rotate(90)">
        <circle id="Elipse_11511-6" data-name="Elipse 11511" cx="10.5" cy="10.5" r="10.5" transform="translate(536 7672)" fill="#d1b132"/>
        <circle id="Elipse_11515-6" data-name="Elipse 11515" cx="5.5" cy="5.5" r="5.5" transform="translate(541 7677)" fill="#95802c"/>
      </g>
      <g id="Grupo_1101126" data-name="Grupo 1101126" transform="translate(5767.75 -9448.75) rotate(90)">
        <circle id="Elipse_11511-7" data-name="Elipse 11511" cx="10.5" cy="10.5" r="10.5" transform="translate(536 7672)" fill="#d1b132"/>
        <circle id="Elipse_11515-7" data-name="Elipse 11515" cx="5.5" cy="5.5" r="5.5" transform="translate(541 7677)" fill="#95802c"/>
      </g>
      <line id="Línea_895" data-name="Línea 895" y2="47" transform="translate(-1957.75 -8903.75)" fill="none" stroke="#a854f3" stroke-width="1" stroke-dasharray="2"/>
      <line id="Línea_1091" data-name="Línea 1091" y2="47" transform="translate(-1695.765 -8903.75)" fill="none" stroke="#a854f3" stroke-width="1" stroke-dasharray="2"/>
      <line id="Línea_893" data-name="Línea 893" x2="48" transform="translate(-1832.75 -8867.25) rotate(90)" fill="none" stroke="#a854f3" stroke-width="1" stroke-dasharray="2"/>
      <line id="Línea_894" data-name="Línea 894" y2="43" transform="translate(-1914.75 -8903.75) rotate(90)" fill="none" stroke="#a854f3" stroke-width="1" stroke-dasharray="2"/>
      <line id="Línea_1092" data-name="Línea 1092" y2="43" transform="translate(-1697.765 -8903.75) rotate(90)" fill="none" stroke="#a854f3" stroke-width="1" stroke-dasharray="2"/>
    </g>
    <g id="Rectángulo_401593" data-name="Rectángulo 401593" transform="translate(-2985.899 -8823.568) rotate(-45)" fill="none" stroke="#a854f3" stroke-width="1" stroke-dasharray="2">
      <rect width="113.748" height="113.748" stroke="none"/>
      <rect x="0.5" y="0.5" width="112.748" height="112.748" fill="none"/>
    </g>
    <line id="Línea_881" data-name="Línea 881" y1="201.034" transform="translate(-2905.467 -8922.534)" fill="none" stroke="#aec4fa" stroke-linecap="round" stroke-width="5"/>
    <g id="Rectángulo_401591" data-name="Rectángulo 401591" transform="translate(-2975.221 -8823.568) rotate(-45)" fill="#f2f6ff" stroke="#aec4fa" stroke-width="5">
      <rect width="98.647" height="98.647" stroke="none"/>
      <rect x="2.5" y="2.5" width="93.647" height="93.647" fill="none"/>
    </g>
    <text id="Titular" transform="translate(-2928.889 -8818.068)" fill="#12263f" font-size="16" font-family="Roboto-Bold, Roboto" font-weight="700"><tspan x="0" y="0">Titular</tspan></text>
  </g>
</svg>
