<svg xmlns="http://www.w3.org/2000/svg" width="1030" height="440" viewBox="0 0 1030 440">
  <g id="Grupo_1102365" data-name="Grupo 1102365" transform="translate(-285 -14562)">
    <g id="Grupo_1101163" data-name="Grupo 1101163" transform="translate(0 1362)">
      <g id="Rectángulo_401593" data-name="Rectángulo 401593" transform="translate(727.135 13424.5) rotate(-45)" fill="none" stroke="#a854f3" stroke-width="1" stroke-dasharray="2">
        <rect width="113.748" height="113.748" stroke="none"/>
        <rect x="0.5" y="0.5" width="112.748" height="112.748" fill="none"/>
      </g>
      <line id="Línea_881" data-name="Línea 881" x2="248.475" transform="translate(679.025 13425.5)" fill="none" stroke="#aec4fa" stroke-linecap="round" stroke-width="5"/>
      <g id="Rectángulo_401591" data-name="Rectángulo 401591" transform="translate(737.809 13424.5) rotate(-45)" fill="#f2f6ff" stroke="#aec4fa" stroke-width="5">
        <rect width="98.647" height="98.647" stroke="none"/>
        <rect x="2.5" y="2.5" width="93.647" height="93.647" fill="none"/>
      </g>
      <text id="Titular" transform="translate(784.127 13430)" fill="#12263f" font-size="16" font-family="Roboto-Bold, Roboto" font-weight="700"><tspan x="0" y="0">Titular</tspan></text>
      <g id="Grupo_1101116" data-name="Grupo 1101116" transform="translate(469.206 13312.77)">
        <path id="Sustracción_1" data-name="Sustracción 1" d="M226.461,93H0a115.476,115.476,0,0,1,226.461,0Z" transform="translate(0 226.461) rotate(-90)" fill="#2ed4bf"/>
        <ellipse id="Elipse_11507" data-name="Elipse 11507" cx="86.5" cy="87" rx="86.5" ry="87" transform="translate(30 198.357) rotate(-90)" fill="#f2f6ff"/>
      </g>
      <line id="Línea_879" data-name="Línea 879" x1="63" y1="33" transform="translate(474.53 13384.5)" fill="none" stroke="#198b7d" stroke-linecap="round" stroke-width="2"/>
      <line id="Línea_882" data-name="Línea 882" x1="71" y2="10" transform="translate(466.23 13433.5)" fill="none" stroke="#198b7d" stroke-linecap="round" stroke-width="2"/>
      <line id="Línea_880" data-name="Línea 880" y2="89" transform="translate(563.061 13447.5)" fill="none" stroke="#198b7d" stroke-linecap="round" stroke-width="2"/>
      <rect id="Rectángulo_401596" data-name="Rectángulo 401596" width="126" height="45" rx="22.5" transform="translate(509 13209)" fill="#f2e5fd"/>
      <rect id="Rectángulo_401607" data-name="Rectángulo 401607" width="126" height="45" rx="22.5" transform="translate(672 13255)" fill="#f2e5fd"/>
      <rect id="Rectángulo_401612" data-name="Rectángulo 401612" width="126" height="45" rx="22.5" transform="translate(844 13200)" fill="#f2e5fd"/>
      <rect id="Rectángulo_401613" data-name="Rectángulo 401613" width="126" height="45" rx="22.5" transform="translate(1003 13200)" fill="#f2e5fd"/>
      <rect id="Rectángulo_401614" data-name="Rectángulo 401614" width="126" height="45" rx="22.5" transform="translate(1151 13263)" fill="#f2e5fd"/>
      <rect id="Rectángulo_401615" data-name="Rectángulo 401615" width="126" height="45" rx="22.5" transform="translate(1186 13333)" fill="#f2e5fd"/>
      <rect id="Rectángulo_401616" data-name="Rectángulo 401616" width="126" height="45" rx="22.5" transform="translate(1189 13439)" fill="#f2e5fd"/>
      <rect id="Rectángulo_401617" data-name="Rectángulo 401617" width="126" height="45" rx="22.5" transform="translate(1154 13533)" fill="#f2e5fd"/>
      <rect id="Rectángulo_401618" data-name="Rectángulo 401618" width="145" height="45" rx="22.5" transform="translate(970 13595)" fill="#f2e5fd"/>
      <rect id="Rectángulo_401606" data-name="Rectángulo 401606" width="126" height="45" rx="22.5" transform="translate(509 13595)" fill="#f2e5fd"/>
      <rect id="Rectángulo_401597" data-name="Rectángulo 401597" width="126" height="45" rx="22.5" transform="translate(320 13260)" fill="#f2e5fd"/>
      <rect id="Rectángulo_401598" data-name="Rectángulo 401598" width="126" height="45" rx="22.5" transform="translate(285 13332)" fill="#f2e5fd"/>
      <rect id="Rectángulo_401599" data-name="Rectángulo 401599" width="126" height="45" rx="22.5" transform="translate(285 13439)" fill="#f2e5fd"/>
      <rect id="Rectángulo_401605" data-name="Rectángulo 401605" width="126" height="45" rx="22.5" transform="translate(320 13533)" fill="#f2e5fd"/>
      <text id="nombres" transform="translate(541 13237)" fill="#12263f" font-size="16" font-family="Roboto-Bold, Roboto" font-weight="700"><tspan x="0" y="0">nombres</tspan></text>
      <text id="id_personas" transform="translate(692 13283)" fill="#12263f" font-size="16" font-family="Roboto-Bold, Roboto" font-weight="700"><tspan x="0" y="0">id_personas</tspan></text>
      <text id="id_personas-2" data-name="id_personas" transform="translate(864 13228)" fill="#12263f" font-size="16" font-family="Roboto-Bold, Roboto" font-weight="700"><tspan x="0" y="0">id_personas</tspan></text>
      <text id="tipo" transform="translate(1051 13228)" fill="#12263f" font-size="16" font-family="Roboto-Bold, Roboto" font-weight="700"><tspan x="0" y="0">tipo</tspan></text>
      <text id="título" transform="translate(1199 13291)" fill="#12263f" font-size="16" font-family="Roboto-Bold, Roboto" font-weight="700"><tspan x="0" y="0">título</tspan></text>
      <text id="educación" transform="translate(1214 13361)" fill="#12263f" font-size="16" font-family="Roboto-Bold, Roboto" font-weight="700"><tspan x="0" y="0">educación</tspan></text>
      <text id="editorial" transform="translate(1225 13467)" fill="#12263f" font-size="16" font-family="Roboto-Bold, Roboto" font-weight="700"><tspan x="0" y="0">editorial</tspan></text>
      <text id="ISBN" transform="translate(1199 13561)" fill="#12263f" font-size="16" font-family="Roboto-Bold, Roboto" font-weight="700"><tspan x="0" y="0">ISBN</tspan></text>
      <text id="fecha_publicación" transform="translate(978 13623)" fill="#12263f" font-size="16" font-family="Roboto-Bold, Roboto" font-weight="700"><tspan x="0" y="0">fecha_publicación</tspan></text>
      <text id="identificación" transform="translate(527 13623)" fill="#12263f" font-size="16" font-family="Roboto-Bold, Roboto" font-weight="700"><tspan x="0" y="0">identificación</tspan></text>
      <text id="apellidos" transform="translate(352 13288)" fill="#12263f" font-size="16" font-family="Roboto-Bold, Roboto" font-weight="700"><tspan x="0" y="0">apellidos</tspan></text>
      <text id="correo" transform="translate(325 13360)" fill="#12263f" font-size="16" font-family="Roboto-Bold, Roboto" font-weight="700"><tspan x="0" y="0">correo</tspan></text>
      <text id="edad" transform="translate(331 13467)" fill="#12263f" font-size="16" font-family="Roboto-Bold, Roboto" font-weight="700"><tspan x="0" y="0">edad</tspan></text>
      <text id="país" transform="translate(369 13561)" fill="#12263f" font-size="16" font-family="Roboto-Bold, Roboto" font-weight="700"><tspan x="0" y="0">país</tspan></text>
      <line id="Línea_899" data-name="Línea 899" x1="29" y1="65" transform="translate(517.08 13331.5)" fill="none" stroke="#198b7d" stroke-linecap="round" stroke-width="2"/>
      <line id="Línea_900" data-name="Línea 900" x1="47" y2="55" transform="translate(498.483 13447.5)" fill="none" stroke="#198b7d" stroke-linecap="round" stroke-width="2"/>
      <line id="Línea_901" data-name="Línea 901" y1="61" transform="translate(562.72 13254.5)" fill="none" stroke="#a854f3" stroke-width="1" stroke-dasharray="2"/>
      <line id="Línea_910" data-name="Línea 910" y1="61" transform="translate(562.72 13534)" fill="none" stroke="#a854f3" stroke-width="1" stroke-dasharray="2"/>
      <line id="Línea_902" data-name="Línea 902" x2="18" transform="translate(451.632 13285.5)" fill="none" stroke="#a854f3" stroke-width="1" stroke-dasharray="2"/>
      <line id="Línea_913" data-name="Línea 913" x2="18" transform="translate(649 13275)" fill="none" stroke="#a854f3" stroke-width="1" stroke-dasharray="2"/>
      <line id="Línea_908" data-name="Línea 908" x2="18" transform="translate(449.569 13555.5)" fill="none" stroke="#a854f3" stroke-width="1" stroke-dasharray="2"/>
      <line id="Línea_904" data-name="Línea 904" x2="18" transform="translate(415 13355)" fill="none" stroke="#a854f3" stroke-width="1" stroke-dasharray="2"/>
      <line id="Línea_907" data-name="Línea 907" x2="18" transform="translate(415 13461)" fill="none" stroke="#a854f3" stroke-width="1" stroke-dasharray="2"/>
      <line id="Línea_903" data-name="Línea 903" x2="41" y2="46" transform="translate(474.13 13285.5)" fill="none" stroke="#a854f3" stroke-width="1" stroke-dasharray="2"/>
      <line id="Línea_914" data-name="Línea 914" x1="35" y2="43" transform="translate(613.033 13275.5)" fill="none" stroke="#a854f3" stroke-width="1" stroke-dasharray="2"/>
      <line id="Línea_909" data-name="Línea 909" y1="53" x2="22" transform="translate(471.708 13502.5)" fill="none" stroke="#a854f3" stroke-width="1" stroke-dasharray="2"/>
      <line id="Línea_905" data-name="Línea 905" x2="36" y2="30" transform="translate(434 13355)" fill="none" stroke="#a854f3" stroke-width="1" stroke-dasharray="2"/>
      <line id="Línea_906" data-name="Línea 906" y1="17" x2="28" transform="translate(434 13444)" fill="none" stroke="#a854f3" stroke-width="1" stroke-dasharray="2"/>
      <g id="Grupo_1101119" data-name="Grupo 1101119" transform="translate(506.165 13321)">
        <circle id="Elipse_11511" data-name="Elipse 11511" cx="10.5" cy="10.5" r="10.5" transform="translate(-0.165)" fill="#27b8a6"/>
        <circle id="Elipse_11515" data-name="Elipse 11515" cx="5.5" cy="5.5" r="5.5" transform="translate(4.835 5)" fill="#2b7a70"/>
      </g>
      <g id="Grupo_1101120" data-name="Grupo 1101120" transform="translate(459 13374)">
        <circle id="Elipse_11511-2" data-name="Elipse 11511" cx="10.5" cy="10.5" r="10.5" fill="#27b8a6"/>
        <circle id="Elipse_11515-2" data-name="Elipse 11515" cx="5.5" cy="5.5" r="5.5" transform="translate(5 5)" fill="#2b7a70"/>
      </g>
      <g id="Grupo_1101137" data-name="Grupo 1101137" transform="translate(451 13433)">
        <circle id="Elipse_11511-3" data-name="Elipse 11511" cx="10.5" cy="10.5" r="10.5" fill="#27b8a6"/>
        <circle id="Elipse_11515-3" data-name="Elipse 11515" cx="5.5" cy="5.5" r="5.5" transform="translate(5 5)" fill="#2b7a70"/>
      </g>
      <g id="Grupo_1101121" data-name="Grupo 1101121" transform="translate(483.742 13492)">
        <circle id="Elipse_11511-4" data-name="Elipse 11511" cx="10.5" cy="10.5" r="10.5" transform="translate(0.258)" fill="#27b8a6"/>
        <circle id="Elipse_11515-4" data-name="Elipse 11515" cx="5.5" cy="5.5" r="5.5" transform="translate(5.258 5)" fill="#2b7a70"/>
      </g>
      <g id="Grupo_1101136" data-name="Grupo 1101136" transform="translate(552.028 13529)">
        <circle id="Elipse_11511-5" data-name="Elipse 11511" cx="10.5" cy="10.5" r="10.5" transform="translate(-0.028)" fill="#27b8a6"/>
        <circle id="Elipse_11515-5" data-name="Elipse 11515" cx="5.5" cy="5.5" r="5.5" transform="translate(4.972 5)" fill="#2b7a70"/>
      </g>
      <path id="Trazado_877406" data-name="Trazado 877406" d="M-7826.1-1306c18.6-6,38.611,0,38.611,0l11.486-25s-20.194-8.5-50.1-3S-7844.694-1300-7826.1-1306Z" transform="translate(8389.917 14648)" fill="#2ed4bf"/>
      <g id="Grupo_1101118" data-name="Grupo 1101118" transform="translate(552.028 13305)">
        <circle id="Elipse_11511-6" data-name="Elipse 11511" cx="10.5" cy="10.5" r="10.5" transform="translate(-0.028)" fill="#27b8a6"/>
        <circle id="Elipse_11515-6" data-name="Elipse 11515" cx="5.5" cy="5.5" r="5.5" transform="translate(4.972 5)" fill="#2b7a70"/>
      </g>
      <line id="Línea_878" data-name="Línea 878" y1="71" transform="translate(563.143 13325.5)" fill="none" stroke="#198b7d" stroke-linecap="round" stroke-width="2"/>
      <line id="Línea_912" data-name="Línea 912" y1="80" x2="31" transform="translate(580.282 13321.5)" fill="none" stroke="#198b7d" stroke-linecap="round" stroke-width="2"/>
      <g id="Grupo_1101141" data-name="Grupo 1101141" transform="translate(601.969 13311)">
        <circle id="Elipse_11511-7" data-name="Elipse 11511" cx="10.5" cy="10.5" r="10.5" transform="translate(0.031)" fill="#27b8a6"/>
        <circle id="Elipse_11515-7" data-name="Elipse 11515" cx="5.5" cy="5.5" r="5.5" transform="translate(5.031 5)" fill="#2b7a70"/>
      </g>
      <g id="Grupo_1101157" data-name="Grupo 1101157" transform="translate(929.833 13312.771)">
        <path id="Sustracción_1-2" data-name="Sustracción 1" d="M113.23,93a114.686,114.686,0,0,1-39.8-7.072,114.949,114.949,0,0,1-33.81-19.536A116.111,116.111,0,0,1,14.307,36.91,115.33,115.33,0,0,1,0,0H226.459a115.328,115.328,0,0,1-14.307,36.91A116.112,116.112,0,0,1,186.84,66.392a114.95,114.95,0,0,1-33.81,19.536A114.684,114.684,0,0,1,113.23,93Z" transform="translate(111.001 226.459) rotate(-90)" fill="#f3d457"/>
        <ellipse id="Elipse_11507-2" data-name="Elipse 11507" cx="86.5" cy="87" rx="86.5" ry="87" transform="translate(0 198.357) rotate(-90)" fill="#f2f6ff"/>
      </g>
      <line id="Línea_930" data-name="Línea 930" y1="33" x2="63" transform="translate(1065.499 13384.5)" fill="none" stroke="#d1b132" stroke-linecap="round" stroke-width="2"/>
      <line id="Línea_929" data-name="Línea 929" x2="71" y2="10" transform="translate(1065.798 13433.5)" fill="none" stroke="#d1b132" stroke-linecap="round" stroke-width="2"/>
      <line id="Línea_936" data-name="Línea 936" y2="89" transform="translate(1039.964 13447.5)" fill="none" stroke="#d1b132" stroke-linecap="round" stroke-width="2"/>
      <line id="Línea_934" data-name="Línea 934" y1="65" x2="29" transform="translate(1056.946 13331.5)" fill="none" stroke="#d1b132" stroke-linecap="round" stroke-width="2"/>
      <line id="Línea_933" data-name="Línea 933" x2="47" y2="55" transform="translate(1057.544 13447.5)" fill="none" stroke="#d1b132" stroke-linecap="round" stroke-width="2"/>
      <line id="Línea_937" data-name="Línea 937" y1="70" transform="translate(1040.305 13245.5)" fill="none" stroke="#a854f3" stroke-width="1" stroke-dasharray="2"/>
      <line id="Línea_938" data-name="Línea 938" y1="61" transform="translate(1040.305 13534)" fill="none" stroke="#a854f3" stroke-width="1" stroke-dasharray="2"/>
      <line id="Línea_927" data-name="Línea 927" x1="18" transform="translate(1133.336 13285.5)" fill="none" stroke="#a854f3" stroke-width="1" stroke-dasharray="2"/>
      <line id="Línea_942" data-name="Línea 942" x1="18" transform="translate(970.059 13222.5)" fill="none" stroke="#a854f3" stroke-width="1" stroke-dasharray="2"/>
      <line id="Línea_928" data-name="Línea 928" x1="18" transform="translate(1135.4 13555.5)" fill="none" stroke="#a854f3" stroke-width="1" stroke-dasharray="2"/>
      <line id="Línea_923" data-name="Línea 923" x1="18" transform="translate(1169.969 13355)" fill="none" stroke="#a854f3" stroke-width="1" stroke-dasharray="2"/>
      <line id="Línea_924" data-name="Línea 924" x1="18" transform="translate(1169.969 13461)" fill="none" stroke="#a854f3" stroke-width="1" stroke-dasharray="2"/>
      <line id="Línea_931" data-name="Línea 931" x1="41" y2="46" transform="translate(1087.897 13285.5)" fill="none" stroke="#a854f3" stroke-width="1" stroke-dasharray="2"/>
      <line id="Línea_941" data-name="Línea 941" x2="1.7" y2="96" transform="translate(988.499 13222.5)" fill="none" stroke="#a854f3" stroke-width="1" stroke-dasharray="2"/>
      <line id="Línea_932" data-name="Línea 932" x1="22" y1="53" transform="translate(1109.317 13502.5)" fill="none" stroke="#a854f3" stroke-width="1" stroke-dasharray="2"/>
      <line id="Línea_925" data-name="Línea 925" x1="36" y2="30" transform="translate(1132.969 13355)" fill="none" stroke="#a854f3" stroke-width="1" stroke-dasharray="2"/>
      <line id="Línea_926" data-name="Línea 926" x1="28" y1="17" transform="translate(1140.969 13444)" fill="none" stroke="#a854f3" stroke-width="1" stroke-dasharray="2"/>
      <g id="Grupo_1101159" data-name="Grupo 1101159" transform="translate(1075.861 13321)">
        <circle id="Elipse_11511-8" data-name="Elipse 11511" cx="10.5" cy="10.5" r="10.5" fill="#d1b132"/>
        <circle id="Elipse_11515-8" data-name="Elipse 11515" cx="5.5" cy="5.5" r="5.5" transform="translate(5 5)" fill="#95802c"/>
      </g>
      <g id="Grupo_1101156" data-name="Grupo 1101156" transform="translate(1122.969 13374)">
        <path id="Trazado_877408" data-name="Trazado 877408" d="M10.5,0A10.5,10.5,0,1,1,0,10.5,10.5,10.5,0,0,1,10.5,0Z" fill="#d1b132"/>
        <circle id="Elipse_11515-9" data-name="Elipse 11515" cx="5.5" cy="5.5" r="5.5" transform="translate(5 5)" fill="#95802c"/>
      </g>
      <g id="Grupo_1101155" data-name="Grupo 1101155" transform="translate(1130.969 13433)">
        <circle id="Elipse_11511-9" data-name="Elipse 11511" cx="10.5" cy="10.5" r="10.5" fill="#d1b132"/>
        <circle id="Elipse_11515-10" data-name="Elipse 11515" cx="5.5" cy="5.5" r="5.5" transform="translate(5 5)" fill="#95802c"/>
      </g>
      <g id="Grupo_1101158" data-name="Grupo 1101158" transform="translate(1098.283 13492)">
        <circle id="Elipse_11511-10" data-name="Elipse 11511" cx="10.5" cy="10.5" r="10.5" fill="#d1b132"/>
        <circle id="Elipse_11515-11" data-name="Elipse 11515" cx="5.5" cy="5.5" r="5.5" transform="translate(5 5)" fill="#95802c"/>
      </g>
      <g id="Grupo_1101160" data-name="Grupo 1101160" transform="translate(1029.998 13529)">
        <circle id="Elipse_11511-11" data-name="Elipse 11511" cx="10.5" cy="10.5" r="10.5" fill="#d1b132"/>
        <circle id="Elipse_11515-12" data-name="Elipse 11515" cx="5.5" cy="5.5" r="5.5" transform="translate(5 5)" fill="#95802c"/>
      </g>
      <path id="Trazado_877407" data-name="Trazado 877407" d="M-7794.428-1306c-18.6-6-38.611,0-38.611,0l-11.486-25s20.194-8.5,50.1-3S-7775.831-1300-7794.428-1306Z" transform="translate(8833.637 14648)" fill="#f3d457"/>
      <g id="Grupo_1101161" data-name="Grupo 1101161" transform="translate(1029.998 13305)">
        <circle id="Elipse_11511-12" data-name="Elipse 11511" cx="10.5" cy="10.5" r="10.5" fill="#d1b132"/>
        <circle id="Elipse_11515-13" data-name="Elipse 11515" cx="5.5" cy="5.5" r="5.5" transform="translate(5 5)" fill="#95802c"/>
      </g>
      <line id="Línea_939" data-name="Línea 939" y1="71" transform="translate(1039.882 13325.5)" fill="none" stroke="#d1b132" stroke-linecap="round" stroke-width="2"/>
      <line id="Línea_940" data-name="Línea 940" x1="31" y1="80" transform="translate(991.744 13321.5)" fill="none" stroke="#d1b132" stroke-linecap="round" stroke-width="2"/>
      <g id="Grupo_1101162" data-name="Grupo 1101162" transform="translate(980.057 13311)">
        <circle id="Elipse_11511-13" data-name="Elipse 11511" cx="10.5" cy="10.5" r="10.5" fill="#d1b132"/>
        <circle id="Elipse_11515-14" data-name="Elipse 11515" cx="5.5" cy="5.5" r="5.5" transform="translate(5 5)" fill="#95802c"/>
      </g>
      <g id="Rectángulo_401590" data-name="Rectángulo 401590" transform="translate(539.671 13396)" fill="#f2f6ff" stroke="#aec4fa" stroke-width="5">
        <rect width="154" height="60" stroke="none"/>
        <rect x="2.5" y="2.5" width="149" height="55" fill="none"/>
      </g>
      <text id="Persona" transform="translate(577.443 13432)" fill="#12263f" font-size="16" font-family="Roboto-Bold, Roboto" font-weight="700"><tspan x="0" y="0">Persona</tspan></text>
      <g id="Rectángulo_401594" data-name="Rectángulo 401594" transform="translate(532.25 13391.078)" fill="none" stroke="#a854f3" stroke-width="1" stroke-dasharray="2">
        <rect width="169" height="69.844" stroke="none"/>
        <rect x="0.5" y="0.5" width="168" height="68.844" fill="none"/>
      </g>
      <text id="N" transform="translate(906 13419)" fill="#12263f" font-size="16" font-family="Roboto-Bold, Roboto" font-weight="700"><tspan x="-11.297" y="0">N</tspan></text>
      <text id="N-2" data-name="N" transform="translate(722 13419)" fill="#12263f" font-size="16" font-family="Roboto-Bold, Roboto" font-weight="700"><tspan x="-11.297" y="0">N</tspan></text>
      <line id="Línea_915" data-name="Línea 915" x2="97" transform="translate(527.437 13628.5)" fill="none" stroke="#a854f3" stroke-width="1"/>
      <g id="Rectángulo_401592" data-name="Rectángulo 401592" transform="translate(927.434 13394)" fill="#f2f6ff" stroke="#aec4fa" stroke-width="5">
        <rect width="154" height="60" stroke="none"/>
        <rect x="2.5" y="2.5" width="149" height="55" fill="none"/>
      </g>
      <text id="Cuenta" transform="translate(982.866 13430)" fill="#12263f" font-size="16" font-family="Roboto-Bold, Roboto" font-weight="700"><tspan x="0" y="0">Cuenta</tspan></text>
      <g id="Rectángulo_401595" data-name="Rectángulo 401595" transform="translate(918.99 13389.078)" fill="none" stroke="#a854f3" stroke-width="1" stroke-dasharray="2">
        <rect width="169" height="69.844" stroke="none"/>
        <rect x="0.5" y="0.5" width="168" height="68.844" fill="none"/>
      </g>
    </g>
  </g>
</svg>
