<svg xmlns="http://www.w3.org/2000/svg" width="451" height="685.006" viewBox="0 0 451 685.006">
  <g id="Grupo_1102366" data-name="Grupo 1102366" transform="translate(3139.5 -2911)">
    <g id="Grupo_1102300" data-name="Grupo 1102300" transform="translate(0 -67)">
      <rect id="Rectángulo_401612" data-name="Rectángulo 401612" width="126" height="45" rx="22.5" transform="translate(-2814.5 3332.098)" fill="#f2e5fd"/>
      <rect id="Rectángulo_401613" data-name="Rectángulo 401613" width="65.25" height="45" rx="22.5" transform="translate(-2763.5 3424.056)" fill="#f2e5fd"/>
      <rect id="Rectángulo_401614" data-name="Rectángulo 401614" width="126" height="45" rx="22.5" transform="translate(-2815 3559.342)" fill="#f2e5fd"/>
      <rect id="Rectángulo_401615" data-name="Rectángulo 401615" width="102" height="45" rx="22.5" transform="translate(-2888.75 3618.006)" fill="#f2e5fd"/>
      <rect id="Rectángulo_401616" data-name="Rectángulo 401616" width="79.376" height="45" rx="22.5" transform="translate(-2983.688 3593.588)" fill="#f2e5fd"/>
      <rect id="Rectángulo_401617" data-name="Rectángulo 401617" width="126" height="45" rx="22.5" transform="translate(-3101.5 3555.596)" fill="#f2e5fd"/>
      <text id="id_personas" transform="translate(-2794.5 3360.098)" fill="#12263f" font-size="16" font-family="Roboto-Bold, Roboto" font-weight="700"><tspan x="0" y="0">id_personas</tspan></text>
      <text id="tipo" transform="translate(-2745.255 3452.056)" fill="#12263f" font-size="16" font-family="Roboto-Bold, Roboto" font-weight="700"><tspan x="0" y="0">tipo</tspan></text>
      <text id="título" transform="translate(-2767 3587.342)" fill="#12263f" font-size="16" font-family="Roboto-Bold, Roboto" font-weight="700"><tspan x="0" y="0">título</tspan></text>
      <text id="educación" transform="translate(-2873.673 3646.006)" fill="#12263f" font-size="16" font-family="Roboto-Bold, Roboto" font-weight="700"><tspan x="0" y="0">educación</tspan></text>
      <text id="editorial" transform="translate(-2972.74 3621.588)" fill="#12263f" font-size="16" font-family="Roboto-Bold, Roboto" font-weight="700"><tspan x="0" y="0">editorial</tspan></text>
      <text id="ISBN" transform="translate(-3056.5 3588.78)" fill="#12263f" font-size="16" font-family="Roboto-Bold, Roboto" font-weight="700"><tspan x="0" y="0">ISBN</tspan></text>
      <g id="Grupo_1101157" data-name="Grupo 1101157" transform="translate(-2795.771 3336.872) rotate(90)">
        <path id="Sustracción_1" data-name="Sustracción 1" d="M113.23,93a114.686,114.686,0,0,1-39.8-7.072,114.949,114.949,0,0,1-33.81-19.536A116.111,116.111,0,0,1,14.307,36.91,115.33,115.33,0,0,1,0,0H226.459a115.328,115.328,0,0,1-14.307,36.91A116.112,116.112,0,0,1,186.84,66.392a114.95,114.95,0,0,1-33.81,19.536A114.684,114.684,0,0,1,113.23,93Z" transform="translate(111.001 226.459) rotate(-90)" fill="#f3d457"/>
        <ellipse id="Elipse_11507" data-name="Elipse 11507" cx="86.5" cy="87" rx="86.5" ry="87" transform="translate(0 198.357) rotate(-90)" fill="#f2f6ff"/>
      </g>
      <line id="Línea_930" data-name="Línea 930" y1="33" x2="63" transform="translate(-2867.5 3472.538) rotate(90)" fill="none" stroke="#d1b132" stroke-linecap="round" stroke-width="2"/>
      <line id="Línea_929" data-name="Línea 929" x2="71" y2="10" transform="translate(-2916.5 3472.837) rotate(90)" fill="none" stroke="#d1b132" stroke-linecap="round" stroke-width="2"/>
      <line id="Línea_936" data-name="Línea 936" y2="89" transform="translate(-2930.5 3447.003) rotate(90)" fill="none" stroke="#d1b132" stroke-linecap="round" stroke-width="2"/>
      <line id="Línea_934" data-name="Línea 934" y1="65" x2="29" transform="translate(-2814.5 3463.985) rotate(90)" fill="none" stroke="#d1b132" stroke-linecap="round" stroke-width="2"/>
      <line id="Línea_933" data-name="Línea 933" x2="47" y2="55" transform="translate(-2930.5 3464.583) rotate(90)" fill="none" stroke="#d1b132" stroke-linecap="round" stroke-width="2"/>
      <line id="Línea_937" data-name="Línea 937" x2="35" transform="translate(-2798.5 3447.344)" fill="none" stroke="#a854f3" stroke-width="1" stroke-dasharray="2"/>
      <line id="Línea_938" data-name="Línea 938" y2="42.844" transform="translate(-3022.5 3404.5)" fill="none" stroke="#a854f3" stroke-width="1" stroke-dasharray="2"/>
      <line id="Línea_927" data-name="Línea 927" x1="18" transform="translate(-2768.5 3540.375) rotate(90)" fill="none" stroke="#a854f3" stroke-width="1" stroke-dasharray="2"/>
      <line id="Línea_942" data-name="Línea 942" x1="18" transform="translate(-2705.5 3377.098) rotate(90)" fill="none" stroke="#a854f3" stroke-width="1" stroke-dasharray="2"/>
      <line id="Línea_928" data-name="Línea 928" x1="18" transform="translate(-3038.5 3539.008) rotate(90)" fill="none" stroke="#a854f3" stroke-width="1" stroke-dasharray="2"/>
      <line id="Línea_923" data-name="Línea 923" x1="18" transform="translate(-2838 3577.008) rotate(90)" fill="none" stroke="#a854f3" stroke-width="1" stroke-dasharray="2"/>
      <line id="Línea_924" data-name="Línea 924" x1="18" transform="translate(-2944 3577.008) rotate(90)" fill="none" stroke="#a854f3" stroke-width="1" stroke-dasharray="2"/>
      <line id="Línea_931" data-name="Línea 931" x1="41" y2="46" transform="translate(-2768.5 3494.936) rotate(90)" fill="none" stroke="#a854f3" stroke-width="1" stroke-dasharray="2"/>
      <line id="Línea_941" data-name="Línea 941" x2="1.7" y2="96" transform="translate(-2705.5 3395.538) rotate(90)" fill="none" stroke="#a854f3" stroke-width="1" stroke-dasharray="2"/>
      <line id="Línea_932" data-name="Línea 932" x1="22" y1="53" transform="translate(-2985.5 3516.356) rotate(90)" fill="none" stroke="#a854f3" stroke-width="1" stroke-dasharray="2"/>
      <line id="Línea_925" data-name="Línea 925" x1="36" y2="30" transform="translate(-2838 3540.008) rotate(90)" fill="none" stroke="#a854f3" stroke-width="1" stroke-dasharray="2"/>
      <line id="Línea_926" data-name="Línea 926" x1="28" y1="17" transform="translate(-2927 3548.008) rotate(90)" fill="none" stroke="#a854f3" stroke-width="1" stroke-dasharray="2"/>
      <g id="Grupo_1101159" data-name="Grupo 1101159" transform="translate(-2804 3482.9) rotate(90)">
        <circle id="Elipse_11511" data-name="Elipse 11511" cx="10.5" cy="10.5" r="10.5" fill="#d1b132"/>
        <circle id="Elipse_11515" data-name="Elipse 11515" cx="5.5" cy="5.5" r="5.5" transform="translate(5 5)" fill="#95802c"/>
      </g>
      <g id="Grupo_1101156" data-name="Grupo 1101156" transform="translate(-2857 3530.008) rotate(90)">
        <path id="Trazado_877408" data-name="Trazado 877408" d="M10.5,0A10.5,10.5,0,1,1,0,10.5,10.5,10.5,0,0,1,10.5,0Z" fill="#d1b132"/>
        <circle id="Elipse_11515-2" data-name="Elipse 11515" cx="5.5" cy="5.5" r="5.5" transform="translate(5 5)" fill="#95802c"/>
      </g>
      <g id="Grupo_1101155" data-name="Grupo 1101155" transform="translate(-2916 3538.008) rotate(90)">
        <circle id="Elipse_11511-2" data-name="Elipse 11511" cx="10.5" cy="10.5" r="10.5" fill="#d1b132"/>
        <circle id="Elipse_11515-3" data-name="Elipse 11515" cx="5.5" cy="5.5" r="5.5" transform="translate(5 5)" fill="#95802c"/>
      </g>
      <g id="Grupo_1101158" data-name="Grupo 1101158" transform="translate(-2975 3505.322) rotate(90)">
        <circle id="Elipse_11511-3" data-name="Elipse 11511" cx="10.5" cy="10.5" r="10.5" fill="#d1b132"/>
        <circle id="Elipse_11515-4" data-name="Elipse 11515" cx="5.5" cy="5.5" r="5.5" transform="translate(5 5)" fill="#95802c"/>
      </g>
      <g id="Grupo_1101160" data-name="Grupo 1101160" transform="translate(-3012 3437.037) rotate(90)">
        <circle id="Elipse_11511-4" data-name="Elipse 11511" cx="10.5" cy="10.5" r="10.5" fill="#d1b132"/>
        <circle id="Elipse_11515-5" data-name="Elipse 11515" cx="5.5" cy="5.5" r="5.5" transform="translate(5 5)" fill="#95802c"/>
      </g>
      <path id="Trazado_877407" data-name="Trazado 877407" d="M-7794.428-1306c-18.6-6-38.611,0-38.611,0l-11.486-25s20.194-8.5,50.1-3S-7775.831-1300-7794.428-1306Z" transform="translate(-4131 11240.676) rotate(90)" fill="#f3d457"/>
      <g id="Grupo_1101161" data-name="Grupo 1101161" transform="translate(-2788 3437.037) rotate(90)">
        <circle id="Elipse_11511-5" data-name="Elipse 11511" cx="10.5" cy="10.5" r="10.5" fill="#d1b132"/>
        <circle id="Elipse_11515-6" data-name="Elipse 11515" cx="5.5" cy="5.5" r="5.5" transform="translate(5 5)" fill="#95802c"/>
      </g>
      <line id="Línea_939" data-name="Línea 939" y1="71" transform="translate(-2808.5 3446.921) rotate(90)" fill="none" stroke="#d1b132" stroke-linecap="round" stroke-width="2"/>
      <line id="Línea_940" data-name="Línea 940" x1="31" y1="80" transform="translate(-2804.5 3398.783) rotate(90)" fill="none" stroke="#d1b132" stroke-linecap="round" stroke-width="2"/>
      <g id="Grupo_1101162" data-name="Grupo 1101162" transform="translate(-2794 3387.096) rotate(90)">
        <circle id="Elipse_11511-6" data-name="Elipse 11511" cx="10.5" cy="10.5" r="10.5" fill="#d1b132"/>
        <circle id="Elipse_11515-7" data-name="Elipse 11515" cx="5.5" cy="5.5" r="5.5" transform="translate(5 5)" fill="#95802c"/>
      </g>
      <g id="Grupo_1101116" data-name="Grupo 1101116" transform="translate(-2789.77 3078.206) rotate(90)">
        <path id="Sustracción_1-2" data-name="Sustracción 1" d="M226.461,93H0a115.476,115.476,0,0,1,226.461,0Z" transform="translate(0 226.461) rotate(-90)" fill="#2ed4bf"/>
        <ellipse id="Elipse_11507-2" data-name="Elipse 11507" cx="86.5" cy="87" rx="86.5" ry="87" transform="translate(30 198.357) rotate(-90)" fill="#f2f6ff"/>
      </g>
      <line id="Línea_879" data-name="Línea 879" x1="63" y1="33" transform="translate(-2861.5 3083.53) rotate(90)" fill="none" stroke="#198b7d" stroke-linecap="round" stroke-width="2"/>
      <line id="Línea_882" data-name="Línea 882" x1="71" y2="10" transform="translate(-2910.5 3075.23) rotate(90)" fill="none" stroke="#198b7d" stroke-linecap="round" stroke-width="2"/>
      <line id="Línea_880" data-name="Línea 880" y2="89" transform="translate(-2924.5 3172.061) rotate(90)" fill="none" stroke="#198b7d" stroke-linecap="round" stroke-width="2"/>
      <rect id="Rectángulo_401596" data-name="Rectángulo 401596" width="83.5" height="45" rx="22.5" transform="translate(-2786.75 3115.033)" fill="#f2e5fd"/>
      <rect id="Rectángulo_401607" data-name="Rectángulo 401607" width="126" height="45" rx="22.5" transform="translate(-2817.5 3249.736)" fill="#f2e5fd"/>
      <rect id="Rectángulo_401606" data-name="Rectángulo 401606" width="126" height="45" rx="22.5" transform="translate(-3139.5 3111.905)" fill="#f2e5fd"/>
      <rect id="Rectángulo_401597" data-name="Rectángulo 401597" width="83.5" height="45" rx="22.5" transform="translate(-2786.75 3033.13)" fill="#f2e5fd"/>
      <rect id="Rectángulo_401598" data-name="Rectángulo 401598" width="86" height="45" rx="22.5" transform="translate(-2875.77 2978)" fill="#f2e5fd"/>
      <rect id="Rectángulo_401599" data-name="Rectángulo 401599" width="83.167" height="45" rx="22.5" transform="translate(-2977.167 2978)" fill="#f2e5fd"/>
      <rect id="Rectángulo_401605" data-name="Rectángulo 401605" width="92" height="45" rx="22.5" transform="translate(-3078.5 3011.932)" fill="#f2e5fd"/>
      <text id="nombres" transform="translate(-2776.337 3143.033)" fill="#12263f" font-size="16" font-family="Roboto-Bold, Roboto" font-weight="700"><tspan x="0" y="0">nombres</tspan></text>
      <text id="id_personas-2" data-name="id_personas" transform="translate(-2797.5 3277.736)" fill="#12263f" font-size="16" font-family="Roboto-Bold, Roboto" font-weight="700"><tspan x="0" y="0">id_personas</tspan></text>
      <text id="identificación" transform="translate(-3121.5 3139.905)" fill="#12263f" font-size="16" font-family="Roboto-Bold, Roboto" font-weight="700"><tspan x="0" y="0">identificación</tspan></text>
      <text id="apellidos" transform="translate(-2777.045 3061.13)" fill="#12263f" font-size="16" font-family="Roboto-Bold, Roboto" font-weight="700"><tspan x="0" y="0">apellidos</tspan></text>
      <text id="correo" transform="translate(-2855.77 3006)" fill="#12263f" font-size="16" font-family="Roboto-Bold, Roboto" font-weight="700"><tspan x="0" y="0">correo</tspan></text>
      <text id="edad" transform="translate(-2952.819 3006)" fill="#12263f" font-size="16" font-family="Roboto-Bold, Roboto" font-weight="700"><tspan x="0" y="0">edad</tspan></text>
      <text id="país" transform="translate(-3047.5 3039.932)" fill="#12263f" font-size="16" font-family="Roboto-Bold, Roboto" font-weight="700"><tspan x="0" y="0">país</tspan></text>
      <line id="Línea_899" data-name="Línea 899" x1="29" y1="65" transform="translate(-2808.5 3126.08) rotate(90)" fill="none" stroke="#198b7d" stroke-linecap="round" stroke-width="2"/>
      <line id="Línea_900" data-name="Línea 900" x1="47" y2="55" transform="translate(-2924.5 3107.483) rotate(90)" fill="none" stroke="#198b7d" stroke-linecap="round" stroke-width="2"/>
      <line id="Línea_901" data-name="Línea 901" x2="48" transform="translate(-2792.5 3171.72)" fill="none" stroke="#a854f3" stroke-width="1" stroke-dasharray="2"/>
      <line id="Línea_910" data-name="Línea 910" y1="61" transform="translate(-3011 3171.72) rotate(90)" fill="none" stroke="#a854f3" stroke-width="1" stroke-dasharray="2"/>
      <line id="Línea_902" data-name="Línea 902" y2="16.73" transform="translate(-2749.5 3076.5)" fill="none" stroke="#a854f3" stroke-width="1" stroke-dasharray="2"/>
      <line id="Línea_1111" data-name="Línea 1111" y2="11.467" transform="translate(-2746.5 3160.033)" fill="none" stroke="#a854f3" stroke-width="1" stroke-dasharray="2"/>
      <line id="Línea_913" data-name="Línea 913" x2="18" transform="translate(-2752 3230.77) rotate(90)" fill="none" stroke="#a854f3" stroke-width="1" stroke-dasharray="2"/>
      <line id="Línea_908" data-name="Línea 908" x2="18" transform="translate(-3032.5 3058.569) rotate(90)" fill="none" stroke="#a854f3" stroke-width="1" stroke-dasharray="2"/>
      <line id="Línea_1110" data-name="Línea 1110" y2="13.595" transform="translate(-3072.563 3157.905)" fill="none" stroke="#a854f3" stroke-width="1" stroke-dasharray="2"/>
      <line id="Línea_904" data-name="Línea 904" x2="18" transform="translate(-2832 3024) rotate(90)" fill="none" stroke="#a854f3" stroke-width="1" stroke-dasharray="2"/>
      <line id="Línea_907" data-name="Línea 907" x2="18" transform="translate(-2938 3024) rotate(90)" fill="none" stroke="#a854f3" stroke-width="1" stroke-dasharray="2"/>
      <line id="Línea_903" data-name="Línea 903" x1="59" y2="28.63" transform="translate(-2808.5 3095.5)" fill="none" stroke="#a854f3" stroke-width="1" stroke-dasharray="2"/>
      <line id="Línea_914" data-name="Línea 914" x1="44" y1="6.467" transform="translate(-2795.5 3222.033)" fill="none" stroke="#a854f3" stroke-width="1" stroke-dasharray="2"/>
      <line id="Línea_909" data-name="Línea 909" y1="53" x2="22" transform="translate(-2979.5 3080.708) rotate(90)" fill="none" stroke="#a854f3" stroke-width="1" stroke-dasharray="2"/>
      <line id="Línea_905" data-name="Línea 905" x2="36" y2="30" transform="translate(-2832 3043) rotate(90)" fill="none" stroke="#a854f3" stroke-width="1" stroke-dasharray="2"/>
      <line id="Línea_906" data-name="Línea 906" y1="17" x2="28" transform="translate(-2921 3043) rotate(90)" fill="none" stroke="#a854f3" stroke-width="1" stroke-dasharray="2"/>
      <g id="Grupo_1101119" data-name="Grupo 1101119" transform="translate(-2798 3115.165) rotate(90)">
        <circle id="Elipse_11511-7" data-name="Elipse 11511" cx="10.5" cy="10.5" r="10.5" transform="translate(-0.165)" fill="#27b8a6"/>
        <circle id="Elipse_11515-8" data-name="Elipse 11515" cx="5.5" cy="5.5" r="5.5" transform="translate(4.835 5)" fill="#2b7a70"/>
      </g>
      <g id="Grupo_1101120" data-name="Grupo 1101120" transform="translate(-2851 3068) rotate(90)">
        <circle id="Elipse_11511-8" data-name="Elipse 11511" cx="10.5" cy="10.5" r="10.5" fill="#27b8a6"/>
        <circle id="Elipse_11515-9" data-name="Elipse 11515" cx="5.5" cy="5.5" r="5.5" transform="translate(5 5)" fill="#2b7a70"/>
      </g>
      <g id="Grupo_1101137" data-name="Grupo 1101137" transform="translate(-2910 3060) rotate(90)">
        <circle id="Elipse_11511-9" data-name="Elipse 11511" cx="10.5" cy="10.5" r="10.5" fill="#27b8a6"/>
        <circle id="Elipse_11515-10" data-name="Elipse 11515" cx="5.5" cy="5.5" r="5.5" transform="translate(5 5)" fill="#2b7a70"/>
      </g>
      <g id="Grupo_1101121" data-name="Grupo 1101121" transform="translate(-2969 3092.742) rotate(90)">
        <circle id="Elipse_11511-10" data-name="Elipse 11511" cx="10.5" cy="10.5" r="10.5" transform="translate(0.258)" fill="#27b8a6"/>
        <circle id="Elipse_11515-11" data-name="Elipse 11515" cx="5.5" cy="5.5" r="5.5" transform="translate(5.258 5)" fill="#2b7a70"/>
      </g>
      <g id="Grupo_1101136" data-name="Grupo 1101136" transform="translate(-3006 3161.028) rotate(90)">
        <circle id="Elipse_11511-11" data-name="Elipse 11511" cx="10.5" cy="10.5" r="10.5" transform="translate(-0.028)" fill="#27b8a6"/>
        <circle id="Elipse_11515-12" data-name="Elipse 11515" cx="5.5" cy="5.5" r="5.5" transform="translate(4.972 5)" fill="#2b7a70"/>
      </g>
      <path id="Trazado_877406" data-name="Trazado 877406" d="M-7826.1-1306c18.6-6,38.611,0,38.611,0l11.486-25s-20.194-8.5-50.1-3S-7844.694-1300-7826.1-1306Z" transform="translate(-4125 10998.917) rotate(90)" fill="#2ed4bf"/>
      <g id="Grupo_1101118" data-name="Grupo 1101118" transform="translate(-2782 3161.028) rotate(90)">
        <circle id="Elipse_11511-12" data-name="Elipse 11511" cx="10.5" cy="10.5" r="10.5" transform="translate(-0.028)" fill="#27b8a6"/>
        <circle id="Elipse_11515-13" data-name="Elipse 11515" cx="5.5" cy="5.5" r="5.5" transform="translate(4.972 5)" fill="#2b7a70"/>
      </g>
      <line id="Línea_878" data-name="Línea 878" y1="71" transform="translate(-2802.5 3172.143) rotate(90)" fill="none" stroke="#198b7d" stroke-linecap="round" stroke-width="2"/>
      <line id="Línea_912" data-name="Línea 912" y1="80" x2="31" transform="translate(-2798.5 3189.282) rotate(90)" fill="none" stroke="#198b7d" stroke-linecap="round" stroke-width="2"/>
      <g id="Grupo_1101141" data-name="Grupo 1101141" transform="translate(-2788 3210.969) rotate(90)">
        <circle id="Elipse_11511-13" data-name="Elipse 11511" cx="10.5" cy="10.5" r="10.5" transform="translate(0.031)" fill="#27b8a6"/>
        <circle id="Elipse_11515-14" data-name="Elipse 11515" cx="5.5" cy="5.5" r="5.5" transform="translate(5.031 5)" fill="#2b7a70"/>
      </g>
      <g id="Rectángulo_401590" data-name="Rectángulo 401590" transform="translate(-2980 3135.905)" fill="#f2f6ff" stroke="#aec4fa" stroke-width="5">
        <rect width="154" height="60" stroke="none"/>
        <rect x="2.5" y="2.5" width="149" height="55" fill="none"/>
      </g>
      <text id="Persona" transform="translate(-2933 3171.905)" fill="#12263f" font-size="16" font-family="Roboto-Bold, Roboto" font-weight="700"><tspan x="0" y="0">Persona</tspan></text>
      <g id="Rectángulo_401594" data-name="Rectángulo 401594" transform="translate(-2988 3130.983)" fill="none" stroke="#a854f3" stroke-width="1" stroke-dasharray="2">
        <rect width="169" height="69.844" stroke="none"/>
        <rect x="0.5" y="0.5" width="168" height="68.844" fill="none"/>
      </g>
      <line id="Línea_915" data-name="Línea 915" x2="97" transform="translate(-3121.063 3145.405)" fill="none" stroke="#a854f3" stroke-width="1"/>
      <g id="Rectángulo_401592" data-name="Rectángulo 401592" transform="translate(-2983.056 3416.556)" fill="#f2f6ff" stroke="#aec4fa" stroke-width="5">
        <rect width="154" height="60" stroke="none"/>
        <rect x="2.5" y="2.5" width="149" height="55" fill="none"/>
      </g>
      <text id="Cuenta" transform="translate(-2927.624 3452.556)" fill="#12263f" font-size="16" font-family="Roboto-Bold, Roboto" font-weight="700"><tspan x="0" y="0">Cuenta</tspan></text>
      <g id="Rectángulo_401595" data-name="Rectángulo 401595" transform="translate(-2988 3411.634)" fill="none" stroke="#a854f3" stroke-width="1" stroke-dasharray="2">
        <rect width="165.5" height="69.844" stroke="none"/>
        <rect x="0.5" y="0.5" width="164.5" height="68.844" fill="none"/>
      </g>
      <line id="Línea_881" data-name="Línea 881" y2="224" transform="translate(-2906 3192.5)" fill="none" stroke="#aec4fa" stroke-linecap="round" stroke-width="5"/>
      <g id="Grupo_1102299" data-name="Grupo 1102299" transform="translate(-825.635 -160.786)">
        <g id="Rectángulo_401593" data-name="Rectángulo 401593" transform="translate(-2160.865 3475.5) rotate(-45)" fill="none" stroke="#a854f3" stroke-width="1" stroke-dasharray="2">
          <rect width="113.748" height="113.748" stroke="none"/>
          <rect x="0.5" y="0.5" width="112.748" height="112.748" fill="none"/>
        </g>
        <g id="Trazado_883914" data-name="Trazado 883914" transform="translate(-2150.191 3475.5) rotate(-45)" fill="#f2f6ff">
          <path d="M 96.14707183837891 96.14707183837891 L 2.49999737739563 96.14707183837891 L 2.49999737739563 2.49999737739563 L 96.14707183837891 2.49999737739563 L 96.14707183837891 96.14707183837891 Z" stroke="none"/>
          <path d="M 4.999992370605469 4.999992370605469 L 4.999992370605469 93.64706420898438 L 93.64706420898438 93.64706420898438 L 93.64706420898438 4.999992370605469 L 4.999992370605469 4.999992370605469 M -7.62939453125e-06 -7.62939453125e-06 L 98.64706420898438 -7.62939453125e-06 L 98.64706420898438 98.64706420898438 L -7.62939453125e-06 98.64706420898438 L -7.62939453125e-06 -7.62939453125e-06 Z" stroke="none" fill="#aec4fa"/>
        </g>
        <text id="Titular" transform="translate(-2103.873 3481)" fill="#12263f" font-size="16" font-family="Roboto-Bold, Roboto" font-weight="700"><tspan x="0" y="0">Titular</tspan></text>
      </g>
      <rect id="Rectángulo_401618" data-name="Rectángulo 401618" width="145" height="45" rx="22.5" transform="translate(-3105.5 3359.039)" fill="#f2e5fd"/>
      <text id="fecha_publicación" transform="translate(-3097.5 3387.039)" fill="#12263f" font-size="16" font-family="Roboto-Bold, Roboto" font-weight="700"><tspan x="0" y="0">fecha_publicación</tspan></text>
      <text id="N" transform="translate(-2884 3225)" fill="#12263f" font-size="16" font-family="Roboto-Bold, Roboto" font-weight="700"><tspan x="-11.297" y="0">N</tspan></text>
      <text id="N-2" data-name="N" transform="translate(-2884 3404)" fill="#12263f" font-size="16" font-family="Roboto-Bold, Roboto" font-weight="700"><tspan x="-11.297" y="0">N</tspan></text>
    </g>
  </g>
</svg>
