<svg xmlns="http://www.w3.org/2000/svg" width="607.097" height="607" viewBox="0 0 607.097 607">
  <g id="Grupo_1102366" data-name="Grupo 1102366" transform="translate(-497.903 -9390)">
    <path id="Trazado_883917" data-name="Trazado 883917" d="M0,0H124.5" transform="translate(895.903 9788.568)" fill="none" stroke="#aec4fa" stroke-linecap="round" stroke-width="5"/>
    <path id="Trazado_883918" data-name="Trazado 883918" d="M0,152V0" transform="translate(871.903 9620)" fill="none" stroke="#aec4fa" stroke-linecap="round" stroke-width="5"/>
    <path id="Trazado_883919" data-name="Trazado 883919" d="M6.258,0H4V-8.715l-2.7.832V-9.7l4.711-1.687h.242Z" transform="translate(886.903 9670)" fill="#12263f"/>
    <path id="Trazado_883920" data-name="Trazado 883920" d="M6.258,0H4V-8.715l-2.7.832V-9.7l4.711-1.687h.242Z" transform="translate(943.903 9758)" fill="#12263f"/>
    <path id="Trazado_883921" data-name="Trazado 883921" d="M6.258,0H4V-8.715l-2.7.832V-9.7l4.711-1.687h.242Z" transform="translate(1039.903 9684)" fill="#12263f"/>
    <path id="Trazado_883922" data-name="Trazado 883922" d="M22.5,0h81a22.5,22.5,0,0,1,0,45h-81a22.5,22.5,0,0,1,0-45Z" transform="translate(765.903 9390)" fill="#f2e5fd"/>
    <path id="Trazado_883923" data-name="Trazado 883923" d="M22.5,0h81a22.5,22.5,0,0,1,0,45h-81a22.5,22.5,0,0,1,0-45Z" transform="translate(596.903 9413)" fill="#f2e5fd"/>
    <path id="Trazado_883924" data-name="Trazado 883924" d="M22.5,0h81a22.5,22.5,0,0,1,0,45h-81a22.5,22.5,0,0,1,0-45Z" transform="translate(530.903 9489)" fill="#f2e5fd"/>
    <path id="Trazado_883925" data-name="Trazado 883925" d="M22.5,0h81a22.5,22.5,0,0,1,0,45h-81a22.5,22.5,0,0,1,0-45Z" transform="translate(506.903 9575)" fill="#f2e5fd"/>
    <path id="Trazado_883926" data-name="Trazado 883926" d="M22.5,0h81a22.5,22.5,0,0,1,0,45h-81a22.5,22.5,0,0,1,0-45Z" transform="translate(508.903 9721)" fill="#f2e5fd"/>
    <path id="Trazado_883927" data-name="Trazado 883927" d="M22.5,0h81a22.5,22.5,0,0,1,0,45h-81a22.5,22.5,0,0,1,0-45Z" transform="translate(497.903 9818)" fill="#f2e5fd"/>
    <path id="Trazado_883928" data-name="Trazado 883928" d="M22.5,0h81a22.5,22.5,0,0,1,0,45h-81a22.5,22.5,0,0,1,0-45Z" transform="translate(592.903 9916)" fill="#f2e5fd"/>
    <path id="Trazado_883929" data-name="Trazado 883929" d="M22.5,0h81a22.5,22.5,0,0,1,0,45h-81a22.5,22.5,0,0,1,0-45Z" transform="translate(718.903 9952)" fill="#f2e5fd"/>
    <path id="Trazado_883930" data-name="Trazado 883930" d="M22.5,0h99a22.5,22.5,0,0,1,0,45h-99a22.5,22.5,0,0,1,0-45Z" transform="translate(952.903 9618)" fill="#f2e5fd"/>
    <path id="Trazado_883931" data-name="Trazado 883931" d="M.539-4.289a4.954,4.954,0,0,1,.926-3.133,3,3,0,0,1,2.5-1.187,2.631,2.631,0,0,1,2.164.953l.094-.8H8.266V-.281a3.613,3.613,0,0,1-.5,1.93A3.236,3.236,0,0,1,6.344,2.9a4.985,4.985,0,0,1-2.141.43,4.635,4.635,0,0,1-1.812-.371A3.217,3.217,0,0,1,1.055,2l1-1.375A2.645,2.645,0,0,0,4.1,1.57a1.936,1.936,0,0,0,1.4-.48A1.8,1.8,0,0,0,6-.273V-.727A2.612,2.612,0,0,1,3.945.156,2.992,2.992,0,0,1,1.48-1.035,4.953,4.953,0,0,1,.539-4.2ZM2.8-4.128a3.1,3.1,0,0,0,.461,1.809,1.465,1.465,0,0,0,1.266.655A1.567,1.567,0,0,0,6-2.441V-6.012a1.563,1.563,0,0,0-1.461-.777,1.474,1.474,0,0,0-1.277.667A3.5,3.5,0,0,0,2.8-4.128ZM14.75-6.336a6.134,6.134,0,0,0-.812-.062,1.654,1.654,0,0,0-1.68.867V0H10V-8.453h2.133L12.2-7.445a2.092,2.092,0,0,1,1.883-1.164,2.366,2.366,0,0,1,.7.1ZM20.5,0a2.507,2.507,0,0,1-.227-.758,2.732,2.732,0,0,1-2.133.914,3,3,0,0,1-2.059-.719,2.312,2.312,0,0,1-.816-1.812,2.389,2.389,0,0,1,1-2.062,4.915,4.915,0,0,1,2.879-.727H20.18v-.484a1.393,1.393,0,0,0-.3-.937,1.183,1.183,0,0,0-.949-.352,1.345,1.345,0,0,0-.895.273.929.929,0,0,0-.324.75H15.453a2.268,2.268,0,0,1,.453-1.359,3,3,0,0,1,1.281-.98,4.669,4.669,0,0,1,1.859-.355,3.689,3.689,0,0,1,2.48.785,2.747,2.747,0,0,1,.918,2.207v3.664a4.041,4.041,0,0,0,.336,1.82V0ZM18.633-1.57a1.945,1.945,0,0,0,.922-.223,1.462,1.462,0,0,0,.625-.6V-3.844h-.844q-1.7,0-1.8,1.172l-.008.133a.9.9,0,0,0,.3.7A1.153,1.153,0,0,0,18.633-1.57Zm5.2-2.719a5.094,5.094,0,0,1,.887-3.148,2.877,2.877,0,0,1,2.426-1.172,2.589,2.589,0,0,1,2.039.922V-12h2.266V0H29.406L29.3-.9A2.657,2.657,0,0,1,27.125.156,2.869,2.869,0,0,1,24.73-1.02,5.258,5.258,0,0,1,23.828-4.289Zm2.258.161A3.355,3.355,0,0,0,26.5-2.3a1.348,1.348,0,0,0,1.2.636,1.51,1.51,0,0,0,1.477-.887V-5.9a1.489,1.489,0,0,0-1.461-.887Q26.086-6.789,26.086-4.128ZM32.844-4.3a5.013,5.013,0,0,1,.484-2.242A3.546,3.546,0,0,1,34.723-8.07a4.069,4.069,0,0,1,2.113-.539,3.849,3.849,0,0,1,2.793,1.047,4.2,4.2,0,0,1,1.207,2.844l.016.578A4.418,4.418,0,0,1,39.766-1.02,3.775,3.775,0,0,1,36.852.156a3.793,3.793,0,0,1-2.918-1.172A4.5,4.5,0,0,1,32.844-4.2Zm2.258.16A3.16,3.16,0,0,0,35.555-2.3a1.5,1.5,0,0,0,1.3.638,1.5,1.5,0,0,0,1.281-.63,3.457,3.457,0,0,0,.461-2.015,3.128,3.128,0,0,0-.461-1.831,1.5,1.5,0,0,0-1.3-.649,1.474,1.474,0,0,0-1.281.646A3.516,3.516,0,0,0,35.1-4.144Zm13.4,5.91H41.383V0H48.5ZM53.273.156A4.15,4.15,0,0,1,50.246-.984a4.054,4.054,0,0,1-1.168-3.039v-.219A5.106,5.106,0,0,1,49.57-6.52a3.612,3.612,0,0,1,1.395-1.547,3.914,3.914,0,0,1,2.059-.543,3.508,3.508,0,0,1,2.73,1.094,4.444,4.444,0,0,1,1,3.1v.922H51.367a2.1,2.1,0,0,0,.66,1.328,2,2,0,0,0,1.395.5,2.437,2.437,0,0,0,2.039-.945L56.57-1.367A3.389,3.389,0,0,1,55.2-.246,4.511,4.511,0,0,1,53.273.156Zm-.258-6.945a1.411,1.411,0,0,0-1.09.455,2.357,2.357,0,0,0-.535,1.3h3.141v-.181a1.681,1.681,0,0,0-.406-1.165A1.456,1.456,0,0,0,53.016-6.789Zm9.594,4.453a.727.727,0,0,0-.41-.652,4.659,4.659,0,0,0-1.316-.426q-3.016-.633-3.016-2.562A2.323,2.323,0,0,1,58.8-7.855a3.766,3.766,0,0,1,2.441-.754,4.053,4.053,0,0,1,2.574.758,2.388,2.388,0,0,1,.965,1.969H62.523a1.092,1.092,0,0,0-.312-.8A1.322,1.322,0,0,0,61.234-7a1.351,1.351,0,0,0-.883.258.814.814,0,0,0-.312.656.7.7,0,0,0,.355.605,3.657,3.657,0,0,0,1.2.4,9.8,9.8,0,0,1,1.422.379A2.336,2.336,0,0,1,64.8-2.43a2.2,2.2,0,0,1-.992,1.871A4.28,4.28,0,0,1,61.25.156a4.47,4.47,0,0,1-1.887-.379A3.166,3.166,0,0,1,58.07-1.262,2.414,2.414,0,0,1,57.6-2.687h2.141a1.179,1.179,0,0,0,.445.922,1.766,1.766,0,0,0,1.109.32,1.635,1.635,0,0,0,.98-.246A.766.766,0,0,0,62.609-2.336Zm7.164.672a1.481,1.481,0,0,0,1.016-.344,1.2,1.2,0,0,0,.406-.914h2.117a2.9,2.9,0,0,1-.469,1.574A3.093,3.093,0,0,1,71.582-.238a3.949,3.949,0,0,1-1.77.395A3.67,3.67,0,0,1,66.953-1,4.56,4.56,0,0,1,65.906-4.18v-.148a4.508,4.508,0,0,1,1.039-3.117A3.627,3.627,0,0,1,69.8-8.609a3.555,3.555,0,0,1,2.543.9,3.2,3.2,0,0,1,.973,2.4H71.2a1.551,1.551,0,0,0-.406-1.072,1.354,1.354,0,0,0-1.031-.412,1.36,1.36,0,0,0-1.191.575,3.333,3.333,0,0,0-.4,1.866v.235a3.375,3.375,0,0,0,.4,1.878A1.377,1.377,0,0,0,69.773-1.664ZM74.25-4.3a5.013,5.013,0,0,1,.484-2.242A3.546,3.546,0,0,1,76.129-8.07a4.069,4.069,0,0,1,2.113-.539,3.849,3.849,0,0,1,2.793,1.047,4.2,4.2,0,0,1,1.207,2.844l.016.578A4.418,4.418,0,0,1,81.172-1.02,3.775,3.775,0,0,1,78.258.156,3.793,3.793,0,0,1,75.34-1.016,4.5,4.5,0,0,1,74.25-4.2Zm2.258.16A3.16,3.16,0,0,0,76.961-2.3a1.5,1.5,0,0,0,1.3.638,1.5,1.5,0,0,0,1.281-.63A3.457,3.457,0,0,0,80-4.309a3.128,3.128,0,0,0-.461-1.831,1.5,1.5,0,0,0-1.3-.649,1.474,1.474,0,0,0-1.281.646A3.516,3.516,0,0,0,76.508-4.144ZM86.031,0H83.766V-12h2.266Zm6.758,0a2.507,2.507,0,0,1-.227-.758A2.732,2.732,0,0,1,90.43.156a3,3,0,0,1-2.059-.719,2.312,2.312,0,0,1-.816-1.812,2.389,2.389,0,0,1,1-2.062,4.915,4.915,0,0,1,2.879-.727h1.039v-.484a1.393,1.393,0,0,0-.3-.937,1.183,1.183,0,0,0-.949-.352,1.345,1.345,0,0,0-.895.273.929.929,0,0,0-.324.75H87.742A2.268,2.268,0,0,1,88.2-7.273a3,3,0,0,1,1.281-.98,4.669,4.669,0,0,1,1.859-.355,3.689,3.689,0,0,1,2.48.785,2.747,2.747,0,0,1,.918,2.207v3.664a4.041,4.041,0,0,0,.336,1.82V0ZM90.922-1.57a1.945,1.945,0,0,0,.922-.223,1.462,1.462,0,0,0,.625-.6V-3.844h-.844q-1.7,0-1.8,1.172l-.008.133a.9.9,0,0,0,.3.7A1.153,1.153,0,0,0,90.922-1.57Zm10.3-4.766a6.134,6.134,0,0,0-.812-.062,1.654,1.654,0,0,0-1.68.867V0H96.469V-8.453H98.6l.063,1.008a2.092,2.092,0,0,1,1.883-1.164,2.366,2.366,0,0,1,.7.1Z" transform="translate(779.903 9418)" fill="#12263f"/>
    <path id="Trazado_883932" data-name="Trazado 883932" d="M.516-4.289A5.094,5.094,0,0,1,1.4-7.437,2.877,2.877,0,0,1,3.828-8.609a2.589,2.589,0,0,1,2.039.922V-12H8.133V0H6.094L5.984-.9A2.657,2.657,0,0,1,3.813.156,2.869,2.869,0,0,1,1.418-1.02,5.258,5.258,0,0,1,.516-4.289Zm2.258.161A3.355,3.355,0,0,0,3.188-2.3a1.348,1.348,0,0,0,1.2.636,1.51,1.51,0,0,0,1.477-.887V-5.9a1.489,1.489,0,0,0-1.461-.887Q2.773-6.789,2.773-4.128ZM12.266,0H10V-8.453h2.266Zm-2.4-10.641a1.112,1.112,0,0,1,.34-.836,1.277,1.277,0,0,1,.926-.328,1.28,1.28,0,0,1,.922.328,1.105,1.105,0,0,1,.344.836,1.108,1.108,0,0,1-.348.844,1.283,1.283,0,0,1-.918.328,1.283,1.283,0,0,1-.918-.328A1.108,1.108,0,0,1,9.867-10.641Zm9.008,4.3a6.134,6.134,0,0,0-.812-.062,1.654,1.654,0,0,0-1.68.867V0H14.125V-8.453h2.133l.063,1.008A2.092,2.092,0,0,1,18.2-8.609a2.366,2.366,0,0,1,.7.1ZM23.7.156A4.15,4.15,0,0,1,20.676-.984a4.054,4.054,0,0,1-1.168-3.039v-.219A5.106,5.106,0,0,1,20-6.52a3.612,3.612,0,0,1,1.395-1.547,3.914,3.914,0,0,1,2.059-.543,3.508,3.508,0,0,1,2.73,1.094,4.444,4.444,0,0,1,1,3.1v.922H21.8a2.1,2.1,0,0,0,.66,1.328,2,2,0,0,0,1.395.5,2.437,2.437,0,0,0,2.039-.945L27-1.367A3.389,3.389,0,0,1,25.625-.246,4.511,4.511,0,0,1,23.7.156Zm-.258-6.945a1.411,1.411,0,0,0-1.09.455,2.357,2.357,0,0,0-.535,1.3h3.141v-.181a1.681,1.681,0,0,0-.406-1.165A1.456,1.456,0,0,0,23.445-6.789Zm8.531,5.125a1.481,1.481,0,0,0,1.016-.344,1.2,1.2,0,0,0,.406-.914h2.117a2.9,2.9,0,0,1-.469,1.574A3.093,3.093,0,0,1,33.785-.238a3.949,3.949,0,0,1-1.77.395A3.67,3.67,0,0,1,29.156-1,4.56,4.56,0,0,1,28.109-4.18v-.148a4.508,4.508,0,0,1,1.039-3.117A3.627,3.627,0,0,1,32-8.609a3.555,3.555,0,0,1,2.543.9,3.2,3.2,0,0,1,.973,2.4H33.4a1.551,1.551,0,0,0-.406-1.072,1.354,1.354,0,0,0-1.031-.412,1.36,1.36,0,0,0-1.191.575,3.333,3.333,0,0,0-.4,1.866v.235a3.375,3.375,0,0,0,.4,1.878A1.377,1.377,0,0,0,31.977-1.664Zm8.344,0a1.481,1.481,0,0,0,1.016-.344,1.2,1.2,0,0,0,.406-.914h2.117a2.9,2.9,0,0,1-.469,1.574A3.093,3.093,0,0,1,42.129-.238a3.949,3.949,0,0,1-1.77.395A3.67,3.67,0,0,1,37.5-1,4.56,4.56,0,0,1,36.453-4.18v-.148a4.508,4.508,0,0,1,1.039-3.117,3.627,3.627,0,0,1,2.852-1.164,3.555,3.555,0,0,1,2.543.9,3.2,3.2,0,0,1,.973,2.4H41.742a1.551,1.551,0,0,0-.406-1.072A1.354,1.354,0,0,0,40.3-6.789a1.36,1.36,0,0,0-1.191.575,3.333,3.333,0,0,0-.4,1.866v.235a3.375,3.375,0,0,0,.4,1.878A1.377,1.377,0,0,0,40.32-1.664ZM47.531,0H45.266V-8.453h2.266Zm-2.4-10.641a1.112,1.112,0,0,1,.34-.836A1.277,1.277,0,0,1,46.4-11.8a1.28,1.28,0,0,1,.922.328,1.105,1.105,0,0,1,.344.836,1.108,1.108,0,0,1-.348.844,1.283,1.283,0,0,1-.918.328A1.283,1.283,0,0,1,45.48-9.8,1.108,1.108,0,0,1,45.133-10.641ZM49.039-4.3a5.013,5.013,0,0,1,.484-2.242A3.546,3.546,0,0,1,50.918-8.07a4.069,4.069,0,0,1,2.113-.539,3.849,3.849,0,0,1,2.793,1.047,4.2,4.2,0,0,1,1.207,2.844l.016.578A4.418,4.418,0,0,1,55.961-1.02,3.775,3.775,0,0,1,53.047.156a3.793,3.793,0,0,1-2.918-1.172A4.5,4.5,0,0,1,49.039-4.2Zm2.258.16A3.16,3.16,0,0,0,51.75-2.3a1.5,1.5,0,0,0,1.3.638,1.5,1.5,0,0,0,1.281-.63,3.457,3.457,0,0,0,.461-2.015,3.128,3.128,0,0,0-.461-1.831,1.5,1.5,0,0,0-1.3-.649,1.474,1.474,0,0,0-1.281.646A3.516,3.516,0,0,0,51.3-4.144ZM53.477-12h2.461L53.773-9.578H51.938Zm7.039,3.547.07.977a2.951,2.951,0,0,1,2.43-1.133,2.453,2.453,0,0,1,2,.789,3.682,3.682,0,0,1,.672,2.359V0H63.43V-5.419a1.47,1.47,0,0,0-.312-1.045,1.4,1.4,0,0,0-1.039-.325,1.553,1.553,0,0,0-1.43.814V0H58.391V-8.453Z" transform="translate(624.903 9441)" fill="#12263f"/>
    <path id="Trazado_883933" data-name="Trazado 883933" d="M3.57-10.531v2.078H5.016V-6.8H3.57v4.219a1.007,1.007,0,0,0,.18.672.9.9,0,0,0,.688.2A3.6,3.6,0,0,0,5.1-1.758V-.047a4.648,4.648,0,0,1-1.367.2,2.156,2.156,0,0,1-2.422-2.4V-6.8H.078V-8.453H1.313v-2.078ZM10.164.156A4.15,4.15,0,0,1,7.137-.984,4.054,4.054,0,0,1,5.969-4.023v-.219A5.106,5.106,0,0,1,6.461-6.52,3.612,3.612,0,0,1,7.855-8.066a3.914,3.914,0,0,1,2.059-.543,3.508,3.508,0,0,1,2.73,1.094,4.444,4.444,0,0,1,1,3.1v.922H8.258a2.1,2.1,0,0,0,.66,1.328,2,2,0,0,0,1.395.5,2.437,2.437,0,0,0,2.039-.945l1.109,1.242A3.389,3.389,0,0,1,12.086-.246,4.511,4.511,0,0,1,10.164.156ZM9.906-6.789a1.411,1.411,0,0,0-1.09.455,2.357,2.357,0,0,0-.535,1.3h3.141v-.181a1.681,1.681,0,0,0-.406-1.165A1.456,1.456,0,0,0,9.906-6.789ZM17.3,0H15.039V-12H17.3Zm5.75.156A4.15,4.15,0,0,1,20.027-.984a4.054,4.054,0,0,1-1.168-3.039v-.219a5.106,5.106,0,0,1,.492-2.277,3.612,3.612,0,0,1,1.395-1.547A3.914,3.914,0,0,1,22.8-8.609a3.508,3.508,0,0,1,2.73,1.094,4.444,4.444,0,0,1,1,3.1v.922H21.148a2.1,2.1,0,0,0,.66,1.328,2,2,0,0,0,1.395.5,2.437,2.437,0,0,0,2.039-.945l1.109,1.242A3.389,3.389,0,0,1,24.977-.246,4.511,4.511,0,0,1,23.055.156ZM22.8-6.789a1.411,1.411,0,0,0-1.09.455,2.357,2.357,0,0,0-.535,1.3h3.141v-.181a1.681,1.681,0,0,0-.406-1.165A1.456,1.456,0,0,0,22.8-6.789ZM23-12h2.461L23.3-9.578H21.461ZM28.43,0V-6.8H27.172V-8.453H28.43v-.719a2.918,2.918,0,0,1,.816-2.207,3.162,3.162,0,0,1,2.285-.785,5.321,5.321,0,0,1,1.148.155l-.023,1.736a2.878,2.878,0,0,0-.687-.07q-1.273,0-1.273,1.205v.685h1.68V-6.8H30.7V0ZM33.2-4.3a5.013,5.013,0,0,1,.484-2.242A3.546,3.546,0,0,1,35.074-8.07a4.069,4.069,0,0,1,2.113-.539A3.849,3.849,0,0,1,39.98-7.562a4.2,4.2,0,0,1,1.207,2.844l.016.578A4.418,4.418,0,0,1,40.117-1.02,3.775,3.775,0,0,1,37.2.156a3.793,3.793,0,0,1-2.918-1.172A4.5,4.5,0,0,1,33.2-4.2Zm2.258.16A3.16,3.16,0,0,0,35.906-2.3a1.5,1.5,0,0,0,1.3.638,1.5,1.5,0,0,0,1.281-.63,3.457,3.457,0,0,0,.461-2.015,3.128,3.128,0,0,0-.461-1.831,1.5,1.5,0,0,0-1.3-.649,1.474,1.474,0,0,0-1.281.646A3.516,3.516,0,0,0,35.453-4.144Zm9.219-4.309.07.977a2.951,2.951,0,0,1,2.43-1.133,2.453,2.453,0,0,1,2,.789,3.682,3.682,0,0,1,.672,2.359V0H47.586V-5.419a1.47,1.47,0,0,0-.312-1.045,1.4,1.4,0,0,0-1.039-.325,1.553,1.553,0,0,0-1.43.814V0H42.547V-8.453ZM51.2-4.3a5.013,5.013,0,0,1,.484-2.242A3.546,3.546,0,0,1,53.082-8.07,4.069,4.069,0,0,1,55.2-8.609a3.849,3.849,0,0,1,2.793,1.047A4.2,4.2,0,0,1,59.2-4.719l.016.578A4.418,4.418,0,0,1,58.125-1.02,3.775,3.775,0,0,1,55.211.156a3.793,3.793,0,0,1-2.918-1.172A4.5,4.5,0,0,1,51.2-4.2Zm2.258.16A3.16,3.16,0,0,0,53.914-2.3a1.5,1.5,0,0,0,1.3.638,1.5,1.5,0,0,0,1.281-.63,3.457,3.457,0,0,0,.461-2.015,3.128,3.128,0,0,0-.461-1.831,1.5,1.5,0,0,0-1.3-.649,1.474,1.474,0,0,0-1.281.646A3.516,3.516,0,0,0,53.461-4.144Z" transform="translate(564.903 9517)" fill="#12263f"/>
    <path id="Trazado_883934" data-name="Trazado 883934" d="M3.25,0H.984V-8.453H3.25ZM.852-10.641a1.112,1.112,0,0,1,.34-.836,1.277,1.277,0,0,1,.926-.328,1.28,1.28,0,0,1,.922.328,1.105,1.105,0,0,1,.344.836,1.108,1.108,0,0,1-.348.844,1.283,1.283,0,0,1-.918.328A1.283,1.283,0,0,1,1.2-9.8,1.108,1.108,0,0,1,.852-10.641ZM4.758-4.289a5.094,5.094,0,0,1,.887-3.148A2.877,2.877,0,0,1,8.07-8.609a2.589,2.589,0,0,1,2.039.922V-12h2.266V0H10.336l-.109-.9A2.657,2.657,0,0,1,8.055.156,2.869,2.869,0,0,1,5.66-1.02,5.258,5.258,0,0,1,4.758-4.289Zm2.258.161A3.355,3.355,0,0,0,7.43-2.3a1.348,1.348,0,0,0,1.2.636,1.51,1.51,0,0,0,1.477-.887V-5.9a1.489,1.489,0,0,0-1.461-.887Q7.016-6.789,7.016-4.128Zm11,4.285A4.15,4.15,0,0,1,14.988-.984,4.054,4.054,0,0,1,13.82-4.023v-.219a5.106,5.106,0,0,1,.492-2.277,3.612,3.612,0,0,1,1.395-1.547,3.914,3.914,0,0,1,2.059-.543A3.508,3.508,0,0,1,20.5-7.516a4.444,4.444,0,0,1,1,3.1v.922H16.109a2.1,2.1,0,0,0,.66,1.328,2,2,0,0,0,1.395.5A2.437,2.437,0,0,0,20.2-2.609l1.109,1.242A3.389,3.389,0,0,1,19.938-.246,4.511,4.511,0,0,1,18.016.156Zm-.258-6.945a1.411,1.411,0,0,0-1.09.455,2.357,2.357,0,0,0-.535,1.3h3.141v-.181a1.681,1.681,0,0,0-.406-1.165A1.456,1.456,0,0,0,17.758-6.789Zm7.094-1.664.07.977a2.951,2.951,0,0,1,2.43-1.133,2.453,2.453,0,0,1,2,.789,3.682,3.682,0,0,1,.672,2.359V0H27.766V-5.419a1.47,1.47,0,0,0-.312-1.045,1.4,1.4,0,0,0-1.039-.325,1.553,1.553,0,0,0-1.43.814V0H22.727V-8.453Zm9.586-2.078v2.078h1.445V-6.8H34.438v4.219a1.007,1.007,0,0,0,.18.672.9.9,0,0,0,.688.2,3.6,3.6,0,0,0,.664-.055V-.047a4.648,4.648,0,0,1-1.367.2,2.156,2.156,0,0,1-2.422-2.4V-6.8H30.945V-8.453H32.18v-2.078ZM39.523,0H37.258V-8.453h2.266Zm-2.4-10.641a1.112,1.112,0,0,1,.34-.836,1.277,1.277,0,0,1,.926-.328,1.28,1.28,0,0,1,.922.328,1.105,1.105,0,0,1,.344.836,1.108,1.108,0,0,1-.348.844,1.283,1.283,0,0,1-.918.328,1.283,1.283,0,0,1-.918-.328A1.108,1.108,0,0,1,37.125-10.641ZM41.93,0V-6.8H40.672V-8.453H41.93v-.391a3.17,3.17,0,0,1,.98-2.457,3.945,3.945,0,0,1,2.723-.863A9.031,9.031,0,0,1,48.2-11.7l-.328,1.867a10,10,0,0,0-1.187-.293,5.835,5.835,0,0,0-.906-.066Q44.2-10.2,44.2-8.8v.344h1.664V-6.8H44.2V0Zm7.32,0H46.984V-8.453H49.25Zm5.383-1.664a1.481,1.481,0,0,0,1.016-.344,1.2,1.2,0,0,0,.406-.914h2.117A2.9,2.9,0,0,1,57.7-1.348,3.093,3.093,0,0,1,56.441-.238a3.949,3.949,0,0,1-1.77.395A3.67,3.67,0,0,1,51.813-1,4.56,4.56,0,0,1,50.766-4.18v-.148A4.508,4.508,0,0,1,51.8-7.445a3.627,3.627,0,0,1,2.852-1.164,3.555,3.555,0,0,1,2.543.9,3.2,3.2,0,0,1,.973,2.4H56.055a1.551,1.551,0,0,0-.406-1.072,1.354,1.354,0,0,0-1.031-.412,1.36,1.36,0,0,0-1.191.575,3.333,3.333,0,0,0-.4,1.866v.235a3.375,3.375,0,0,0,.4,1.878A1.377,1.377,0,0,0,54.633-1.664ZM64.359,0a2.507,2.507,0,0,1-.227-.758A2.732,2.732,0,0,1,62,.156a3,3,0,0,1-2.059-.719,2.312,2.312,0,0,1-.816-1.812,2.389,2.389,0,0,1,1-2.062A4.915,4.915,0,0,1,63-5.164h1.039v-.484a1.393,1.393,0,0,0-.3-.937,1.183,1.183,0,0,0-.949-.352,1.345,1.345,0,0,0-.895.273.929.929,0,0,0-.324.75H59.313a2.268,2.268,0,0,1,.453-1.359,3,3,0,0,1,1.281-.98,4.669,4.669,0,0,1,1.859-.355,3.689,3.689,0,0,1,2.48.785A2.747,2.747,0,0,1,66.3-5.617v3.664a4.041,4.041,0,0,0,.336,1.82V0ZM62.492-1.57a1.945,1.945,0,0,0,.922-.223,1.462,1.462,0,0,0,.625-.6V-3.844H63.2q-1.7,0-1.8,1.172l-.008.133a.9.9,0,0,0,.3.7A1.153,1.153,0,0,0,62.492-1.57Zm9.063-.094a1.481,1.481,0,0,0,1.016-.344,1.2,1.2,0,0,0,.406-.914h2.117a2.9,2.9,0,0,1-.469,1.574A3.093,3.093,0,0,1,73.363-.238a3.949,3.949,0,0,1-1.77.395A3.67,3.67,0,0,1,68.734-1,4.56,4.56,0,0,1,67.688-4.18v-.148a4.508,4.508,0,0,1,1.039-3.117,3.627,3.627,0,0,1,2.852-1.164,3.555,3.555,0,0,1,2.543.9,3.2,3.2,0,0,1,.973,2.4H72.977a1.551,1.551,0,0,0-.406-1.072,1.354,1.354,0,0,0-1.031-.412,1.36,1.36,0,0,0-1.191.575,3.333,3.333,0,0,0-.4,1.866v.235a3.375,3.375,0,0,0,.4,1.878A1.377,1.377,0,0,0,71.555-1.664ZM78.766,0H76.5V-8.453h2.266Zm-2.4-10.641a1.112,1.112,0,0,1,.34-.836,1.277,1.277,0,0,1,.926-.328,1.28,1.28,0,0,1,.922.328,1.105,1.105,0,0,1,.344.836,1.108,1.108,0,0,1-.348.844,1.283,1.283,0,0,1-.918.328,1.283,1.283,0,0,1-.918-.328A1.108,1.108,0,0,1,76.367-10.641ZM80.273-4.3a5.013,5.013,0,0,1,.484-2.242A3.546,3.546,0,0,1,82.152-8.07a4.069,4.069,0,0,1,2.113-.539,3.849,3.849,0,0,1,2.793,1.047,4.2,4.2,0,0,1,1.207,2.844l.016.578A4.418,4.418,0,0,1,87.2-1.02,3.775,3.775,0,0,1,84.281.156a3.793,3.793,0,0,1-2.918-1.172A4.5,4.5,0,0,1,80.273-4.2Zm2.258.16A3.16,3.16,0,0,0,82.984-2.3a1.5,1.5,0,0,0,1.3.638,1.5,1.5,0,0,0,1.281-.63,3.457,3.457,0,0,0,.461-2.015,3.128,3.128,0,0,0-.461-1.831,1.5,1.5,0,0,0-1.3-.649,1.474,1.474,0,0,0-1.281.646A3.516,3.516,0,0,0,82.531-4.144ZM84.711-12h2.461L85.008-9.578H83.172ZM91.75-8.453l.07.977a2.951,2.951,0,0,1,2.43-1.133,2.453,2.453,0,0,1,2,.789,3.682,3.682,0,0,1,.672,2.359V0H94.664V-5.419a1.47,1.47,0,0,0-.312-1.045,1.4,1.4,0,0,0-1.039-.325,1.553,1.553,0,0,0-1.43.814V0H89.625V-8.453Z" transform="translate(522.903 9603)" fill="#12263f"/>
    <path id="Trazado_883935" data-name="Trazado 883935" d="M5.766,0a2.507,2.507,0,0,1-.227-.758A2.732,2.732,0,0,1,3.406.156,3,3,0,0,1,1.348-.562,2.312,2.312,0,0,1,.531-2.375a2.389,2.389,0,0,1,1-2.062,4.915,4.915,0,0,1,2.879-.727H5.445v-.484a1.393,1.393,0,0,0-.3-.937A1.183,1.183,0,0,0,4.2-6.937a1.345,1.345,0,0,0-.895.273.929.929,0,0,0-.324.75H.719a2.268,2.268,0,0,1,.453-1.359,3,3,0,0,1,1.281-.98,4.669,4.669,0,0,1,1.859-.355,3.689,3.689,0,0,1,2.48.785,2.747,2.747,0,0,1,.918,2.207v3.664a4.041,4.041,0,0,0,.336,1.82V0ZM3.9-1.57a1.945,1.945,0,0,0,.922-.223,1.462,1.462,0,0,0,.625-.6V-3.844H4.6q-1.7,0-1.8,1.172l-.008.133a.9.9,0,0,0,.3.7A1.153,1.153,0,0,0,3.9-1.57ZM17.055-4.148a5.07,5.07,0,0,1-.887,3.129A2.843,2.843,0,0,1,13.773.156,2.633,2.633,0,0,1,11.7-.734V3.25H9.445v-11.7h2.094l.078.828a2.654,2.654,0,0,1,2.141-.984,2.862,2.862,0,0,1,2.43,1.156,5.207,5.207,0,0,1,.867,3.188ZM14.8-4.321a3.345,3.345,0,0,0-.418-1.826,1.36,1.36,0,0,0-1.215-.643,1.478,1.478,0,0,0-1.461.815V-2.5a1.5,1.5,0,0,0,1.477.839Q14.8-1.664,14.8-4.321ZM22.344.156A4.15,4.15,0,0,1,19.316-.984a4.054,4.054,0,0,1-1.168-3.039v-.219a5.106,5.106,0,0,1,.492-2.277,3.612,3.612,0,0,1,1.395-1.547,3.914,3.914,0,0,1,2.059-.543,3.508,3.508,0,0,1,2.73,1.094,4.444,4.444,0,0,1,1,3.1v.922H20.438a2.1,2.1,0,0,0,.66,1.328,2,2,0,0,0,1.395.5,2.437,2.437,0,0,0,2.039-.945l1.109,1.242A3.389,3.389,0,0,1,24.266-.246,4.511,4.511,0,0,1,22.344.156Zm-.258-6.945A1.411,1.411,0,0,0,21-6.334a2.357,2.357,0,0,0-.535,1.3H23.6v-.181A1.681,1.681,0,0,0,23.2-6.377,1.456,1.456,0,0,0,22.086-6.789ZM29.484,0H27.219V-12h2.266Zm4.242,0H31.461V-12h2.266Zm4.242,0H35.7V-8.453h2.266Zm-2.4-10.641a1.112,1.112,0,0,1,.34-.836,1.277,1.277,0,0,1,.926-.328,1.28,1.28,0,0,1,.922.328,1.105,1.105,0,0,1,.344.836,1.108,1.108,0,0,1-.348.844,1.283,1.283,0,0,1-.918.328,1.283,1.283,0,0,1-.918-.328A1.108,1.108,0,0,1,35.57-10.641Zm3.906,6.352a5.094,5.094,0,0,1,.887-3.148,2.877,2.877,0,0,1,2.426-1.172,2.589,2.589,0,0,1,2.039.922V-12h2.266V0H45.055l-.109-.9A2.657,2.657,0,0,1,42.773.156,2.869,2.869,0,0,1,40.379-1.02,5.258,5.258,0,0,1,39.477-4.289Zm2.258.161A3.355,3.355,0,0,0,42.148-2.3a1.348,1.348,0,0,0,1.2.636,1.51,1.51,0,0,0,1.477-.887V-5.9a1.489,1.489,0,0,0-1.461-.887Q41.734-6.789,41.734-4.128ZM48.492-4.3a5.013,5.013,0,0,1,.484-2.242A3.546,3.546,0,0,1,50.371-8.07a4.069,4.069,0,0,1,2.113-.539,3.849,3.849,0,0,1,2.793,1.047,4.2,4.2,0,0,1,1.207,2.844l.016.578A4.418,4.418,0,0,1,55.414-1.02,3.775,3.775,0,0,1,52.5.156a3.793,3.793,0,0,1-2.918-1.172A4.5,4.5,0,0,1,48.492-4.2Zm2.258.16A3.16,3.16,0,0,0,51.2-2.3a1.5,1.5,0,0,0,1.3.638,1.5,1.5,0,0,0,1.281-.63,3.457,3.457,0,0,0,.461-2.015,3.128,3.128,0,0,0-.461-1.831,1.5,1.5,0,0,0-1.3-.649,1.474,1.474,0,0,0-1.281.646A3.516,3.516,0,0,0,50.75-4.144ZM62.469-2.336a.727.727,0,0,0-.41-.652,4.659,4.659,0,0,0-1.316-.426q-3.016-.633-3.016-2.562a2.323,2.323,0,0,1,.934-1.879A3.766,3.766,0,0,1,61.1-8.609a4.053,4.053,0,0,1,2.574.758,2.388,2.388,0,0,1,.965,1.969H62.383a1.092,1.092,0,0,0-.312-.8A1.322,1.322,0,0,0,61.094-7a1.351,1.351,0,0,0-.883.258.814.814,0,0,0-.312.656.7.7,0,0,0,.355.605,3.657,3.657,0,0,0,1.2.4,9.8,9.8,0,0,1,1.422.379A2.336,2.336,0,0,1,64.664-2.43a2.2,2.2,0,0,1-.992,1.871,4.28,4.28,0,0,1-2.562.715,4.47,4.47,0,0,1-1.887-.379A3.166,3.166,0,0,1,57.93-1.262a2.414,2.414,0,0,1-.469-1.426H59.6a1.179,1.179,0,0,0,.445.922,1.766,1.766,0,0,0,1.109.32,1.635,1.635,0,0,0,.98-.246A.766.766,0,0,0,62.469-2.336Z" transform="translate(539.903 9749)" fill="#12263f"/>
    <path id="Trazado_883936" data-name="Trazado 883936" d="M4.383-1.664A1.481,1.481,0,0,0,5.4-2.008,1.2,1.2,0,0,0,5.8-2.922H7.922a2.9,2.9,0,0,1-.469,1.574A3.093,3.093,0,0,1,6.191-.238a3.949,3.949,0,0,1-1.77.395A3.67,3.67,0,0,1,1.563-1,4.56,4.56,0,0,1,.516-4.18v-.148A4.508,4.508,0,0,1,1.555-7.445,3.627,3.627,0,0,1,4.406-8.609a3.555,3.555,0,0,1,2.543.9,3.2,3.2,0,0,1,.973,2.4H5.8A1.551,1.551,0,0,0,5.4-6.377a1.354,1.354,0,0,0-1.031-.412,1.36,1.36,0,0,0-1.191.575,3.333,3.333,0,0,0-.4,1.866v.235a3.375,3.375,0,0,0,.4,1.878A1.377,1.377,0,0,0,4.383-1.664ZM8.859-4.3a5.013,5.013,0,0,1,.484-2.242A3.546,3.546,0,0,1,10.738-8.07a4.069,4.069,0,0,1,2.113-.539,3.849,3.849,0,0,1,2.793,1.047,4.2,4.2,0,0,1,1.207,2.844l.016.578A4.418,4.418,0,0,1,15.781-1.02,3.775,3.775,0,0,1,12.867.156,3.793,3.793,0,0,1,9.949-1.016,4.5,4.5,0,0,1,8.859-4.2Zm2.258.16A3.16,3.16,0,0,0,11.57-2.3a1.5,1.5,0,0,0,1.3.638,1.5,1.5,0,0,0,1.281-.63,3.457,3.457,0,0,0,.461-2.015,3.128,3.128,0,0,0-.461-1.831,1.5,1.5,0,0,0-1.3-.649,1.474,1.474,0,0,0-1.281.646A3.516,3.516,0,0,0,11.117-4.144ZM23.008-6.336A6.134,6.134,0,0,0,22.2-6.4a1.654,1.654,0,0,0-1.68.867V0H18.258V-8.453h2.133l.063,1.008a2.092,2.092,0,0,1,1.883-1.164,2.366,2.366,0,0,1,.7.1Zm5.836,0a6.134,6.134,0,0,0-.812-.062,1.654,1.654,0,0,0-1.68.867V0H24.094V-8.453h2.133l.063,1.008a2.092,2.092,0,0,1,1.883-1.164,2.366,2.366,0,0,1,.7.1ZM33.672.156A4.15,4.15,0,0,1,30.645-.984a4.054,4.054,0,0,1-1.168-3.039v-.219a5.106,5.106,0,0,1,.492-2.277,3.612,3.612,0,0,1,1.395-1.547,3.914,3.914,0,0,1,2.059-.543,3.508,3.508,0,0,1,2.73,1.094,4.444,4.444,0,0,1,1,3.1v.922H31.766a2.1,2.1,0,0,0,.66,1.328,2,2,0,0,0,1.395.5,2.437,2.437,0,0,0,2.039-.945l1.109,1.242A3.389,3.389,0,0,1,35.594-.246,4.511,4.511,0,0,1,33.672.156Zm-.258-6.945a1.411,1.411,0,0,0-1.09.455,2.357,2.357,0,0,0-.535,1.3H34.93v-.181a1.681,1.681,0,0,0-.406-1.165A1.456,1.456,0,0,0,33.414-6.789ZM38.078-4.3a5.013,5.013,0,0,1,.484-2.242A3.546,3.546,0,0,1,39.957-8.07a4.069,4.069,0,0,1,2.113-.539,3.849,3.849,0,0,1,2.793,1.047A4.2,4.2,0,0,1,46.07-4.719l.016.578A4.418,4.418,0,0,1,45-1.02,3.775,3.775,0,0,1,42.086.156a3.793,3.793,0,0,1-2.918-1.172A4.5,4.5,0,0,1,38.078-4.2Zm2.258.16A3.16,3.16,0,0,0,40.789-2.3a1.5,1.5,0,0,0,1.3.638,1.5,1.5,0,0,0,1.281-.63,3.457,3.457,0,0,0,.461-2.015,3.128,3.128,0,0,0-.461-1.831,1.5,1.5,0,0,0-1.3-.649,1.474,1.474,0,0,0-1.281.646A3.516,3.516,0,0,0,40.336-4.144Z" transform="translate(544.903 9846)" fill="#12263f"/>
    <path id="Trazado_883937" data-name="Trazado 883937" d="M4.758.156A4.15,4.15,0,0,1,1.73-.984,4.054,4.054,0,0,1,.563-4.023v-.219A5.106,5.106,0,0,1,1.055-6.52,3.612,3.612,0,0,1,2.449-8.066a3.914,3.914,0,0,1,2.059-.543,3.508,3.508,0,0,1,2.73,1.094,4.444,4.444,0,0,1,1,3.1v.922H2.852a2.1,2.1,0,0,0,.66,1.328,2,2,0,0,0,1.395.5,2.437,2.437,0,0,0,2.039-.945L8.055-1.367A3.389,3.389,0,0,1,6.68-.246,4.511,4.511,0,0,1,4.758.156ZM4.5-6.789a1.411,1.411,0,0,0-1.09.455,2.357,2.357,0,0,0-.535,1.3H6.016v-.181a1.681,1.681,0,0,0-.406-1.165A1.456,1.456,0,0,0,4.5-6.789Zm4.664,2.5a5.094,5.094,0,0,1,.887-3.148,2.877,2.877,0,0,1,2.426-1.172,2.589,2.589,0,0,1,2.039.922V-12h2.266V0H14.742l-.109-.9A2.657,2.657,0,0,1,12.461.156,2.869,2.869,0,0,1,10.066-1.02,5.258,5.258,0,0,1,9.164-4.289Zm2.258.161A3.355,3.355,0,0,0,11.836-2.3a1.348,1.348,0,0,0,1.2.636,1.51,1.51,0,0,0,1.477-.887V-5.9a1.489,1.489,0,0,0-1.461-.887Q11.422-6.789,11.422-4.128ZM23.43,0A2.507,2.507,0,0,1,23.2-.758,2.732,2.732,0,0,1,21.07.156a3,3,0,0,1-2.059-.719A2.312,2.312,0,0,1,18.2-2.375a2.389,2.389,0,0,1,1-2.062,4.915,4.915,0,0,1,2.879-.727h1.039v-.484a1.393,1.393,0,0,0-.3-.937,1.183,1.183,0,0,0-.949-.352,1.345,1.345,0,0,0-.895.273.929.929,0,0,0-.324.75H18.383a2.268,2.268,0,0,1,.453-1.359,3,3,0,0,1,1.281-.98,4.669,4.669,0,0,1,1.859-.355,3.689,3.689,0,0,1,2.48.785,2.747,2.747,0,0,1,.918,2.207v3.664a4.041,4.041,0,0,0,.336,1.82V0ZM21.563-1.57a1.945,1.945,0,0,0,.922-.223,1.462,1.462,0,0,0,.625-.6V-3.844h-.844q-1.7,0-1.8,1.172l-.008.133a.9.9,0,0,0,.3.7A1.153,1.153,0,0,0,21.563-1.57Zm5.2-2.719a5.094,5.094,0,0,1,.887-3.148A2.877,2.877,0,0,1,30.07-8.609a2.589,2.589,0,0,1,2.039.922V-12h2.266V0H32.336l-.109-.9A2.657,2.657,0,0,1,30.055.156,2.869,2.869,0,0,1,27.66-1.02,5.258,5.258,0,0,1,26.758-4.289Zm2.258.161A3.355,3.355,0,0,0,29.43-2.3a1.348,1.348,0,0,0,1.2.636,1.51,1.51,0,0,0,1.477-.887V-5.9a1.489,1.489,0,0,0-1.461-.887Q29.016-6.789,29.016-4.128Z" transform="translate(639.903 9944)" fill="#12263f"/>
    <path id="Trazado_883938" data-name="Trazado 883938" d="M8.477-4.148A5.07,5.07,0,0,1,7.59-1.02,2.843,2.843,0,0,1,5.2.156a2.633,2.633,0,0,1-2.07-.891V3.25H.867v-11.7H2.961l.078.828A2.654,2.654,0,0,1,5.18-8.609a2.862,2.862,0,0,1,2.43,1.156,5.207,5.207,0,0,1,.867,3.188ZM6.219-4.321A3.345,3.345,0,0,0,5.8-6.146a1.36,1.36,0,0,0-1.215-.643,1.478,1.478,0,0,0-1.461.815V-2.5A1.5,1.5,0,0,0,4.6-1.664Q6.219-1.664,6.219-4.321ZM14.773,0a2.507,2.507,0,0,1-.227-.758,2.732,2.732,0,0,1-2.133.914,3,3,0,0,1-2.059-.719,2.312,2.312,0,0,1-.816-1.812,2.389,2.389,0,0,1,1-2.062,4.915,4.915,0,0,1,2.879-.727h1.039v-.484a1.393,1.393,0,0,0-.3-.937,1.183,1.183,0,0,0-.949-.352,1.345,1.345,0,0,0-.895.273.929.929,0,0,0-.324.75H9.727a2.268,2.268,0,0,1,.453-1.359,3,3,0,0,1,1.281-.98,4.669,4.669,0,0,1,1.859-.355,3.689,3.689,0,0,1,2.48.785,2.747,2.747,0,0,1,.918,2.207v3.664a4.041,4.041,0,0,0,.336,1.82V0ZM12.906-1.57a1.945,1.945,0,0,0,.922-.223,1.462,1.462,0,0,0,.625-.6V-3.844h-.844q-1.7,0-1.8,1.172l-.008.133a.9.9,0,0,0,.3.7A1.153,1.153,0,0,0,12.906-1.57ZM20.891,0H18.633V-8.453h2.258Zm-.664-11.883h2.461L20.523-9.461H18.688Zm7.188,9.547A.727.727,0,0,0,27-2.988a4.659,4.659,0,0,0-1.316-.426q-3.016-.633-3.016-2.562a2.323,2.323,0,0,1,.934-1.879,3.766,3.766,0,0,1,2.441-.754,4.053,4.053,0,0,1,2.574.758,2.388,2.388,0,0,1,.965,1.969H27.328a1.092,1.092,0,0,0-.312-.8A1.322,1.322,0,0,0,26.039-7a1.351,1.351,0,0,0-.883.258.814.814,0,0,0-.312.656.7.7,0,0,0,.355.605,3.657,3.657,0,0,0,1.2.4A9.8,9.8,0,0,1,27.82-4.7,2.336,2.336,0,0,1,29.609-2.43a2.2,2.2,0,0,1-.992,1.871,4.28,4.28,0,0,1-2.562.715,4.47,4.47,0,0,1-1.887-.379,3.166,3.166,0,0,1-1.293-1.039,2.414,2.414,0,0,1-.469-1.426h2.141a1.179,1.179,0,0,0,.445.922,1.766,1.766,0,0,0,1.109.32,1.635,1.635,0,0,0,.98-.246A.766.766,0,0,0,27.414-2.336Z" transform="translate(765.903 9980)" fill="#12263f"/>
    <path id="Trazado_883939" data-name="Trazado 883939" d="M5.766,0a2.507,2.507,0,0,1-.227-.758A2.732,2.732,0,0,1,3.406.156,3,3,0,0,1,1.348-.562,2.312,2.312,0,0,1,.531-2.375a2.389,2.389,0,0,1,1-2.062,4.915,4.915,0,0,1,2.879-.727H5.445v-.484a1.393,1.393,0,0,0-.3-.937A1.183,1.183,0,0,0,4.2-6.937a1.345,1.345,0,0,0-.895.273.929.929,0,0,0-.324.75H.719a2.268,2.268,0,0,1,.453-1.359,3,3,0,0,1,1.281-.98,4.669,4.669,0,0,1,1.859-.355,3.689,3.689,0,0,1,2.48.785,2.747,2.747,0,0,1,.918,2.207v3.664a4.041,4.041,0,0,0,.336,1.82V0ZM3.9-1.57a1.945,1.945,0,0,0,.922-.223,1.462,1.462,0,0,0,.625-.6V-3.844H4.6q-1.7,0-1.8,1.172l-.008.133a.9.9,0,0,0,.3.7A1.153,1.153,0,0,0,3.9-1.57Zm10.609.711A2.831,2.831,0,0,1,12.2.156a2.67,2.67,0,0,1-2.074-.781,3.335,3.335,0,0,1-.73-2.289V-8.453h2.258v5.467q0,1.322,1.2,1.322a1.63,1.63,0,0,0,1.578-.8V-8.453H16.7V0H14.57ZM21.1-10.531v2.078h1.445V-6.8H21.1v4.219a1.007,1.007,0,0,0,.18.672.9.9,0,0,0,.688.2,3.6,3.6,0,0,0,.664-.055V-.047a4.648,4.648,0,0,1-1.367.2,2.156,2.156,0,0,1-2.422-2.4V-6.8H17.609V-8.453h1.234v-2.078ZM23.219-4.3A5.013,5.013,0,0,1,23.7-6.547,3.546,3.546,0,0,1,25.1-8.07a4.069,4.069,0,0,1,2.113-.539A3.849,3.849,0,0,1,30-7.562a4.2,4.2,0,0,1,1.207,2.844l.016.578A4.418,4.418,0,0,1,30.141-1.02,3.775,3.775,0,0,1,27.227.156a3.793,3.793,0,0,1-2.918-1.172A4.5,4.5,0,0,1,23.219-4.2Zm2.258.16A3.16,3.16,0,0,0,25.93-2.3a1.5,1.5,0,0,0,1.3.638,1.5,1.5,0,0,0,1.281-.63,3.457,3.457,0,0,0,.461-2.015,3.128,3.128,0,0,0-.461-1.831,1.5,1.5,0,0,0-1.3-.649,1.474,1.474,0,0,0-1.281.646A3.516,3.516,0,0,0,25.477-4.144ZM37.367-6.336a6.134,6.134,0,0,0-.812-.062,1.654,1.654,0,0,0-1.68.867V0H32.617V-8.453H34.75l.063,1.008A2.092,2.092,0,0,1,36.7-8.609a2.366,2.366,0,0,1,.7.1Z" transform="translate(1005.903 9646)" fill="#12263f"/>
    <path id="Trazado_883940" data-name="Trazado 883940" d="M0,0,24,43" transform="translate(723.403 9439.5)" fill="none" stroke="#a854f3" stroke-width="1" stroke-dasharray="2"/>
    <path id="Trazado_883941" data-name="Trazado 883941" d="M0,0V60" transform="translate(819.692 9435)" fill="none" stroke="#a854f3" stroke-width="1" stroke-dasharray="2"/>
    <path id="Trazado_883942" data-name="Trazado 883942" d="M0,0,40,10" transform="translate(657.403 9511.5)" fill="none" stroke="#a854f3" stroke-width="1" stroke-dasharray="2"/>
    <path id="Trazado_883943" data-name="Trazado 883943" d="M0,0H53" transform="translate(633.403 9597.5)" fill="none" stroke="#a854f3" stroke-width="1" stroke-dasharray="2"/>
    <g id="Grupo_1101663" data-name="Grupo 1101663" transform="translate(795.874 9425.041) rotate(48)">
      <path id="Sustracción_1" data-name="Sustracción 1" d="M226.461,93H0a115.476,115.476,0,0,1,226.461,0Z" transform="translate(0 226.461) rotate(-90)" fill="#2ed4bf"/>
      <ellipse id="Elipse_11507" data-name="Elipse 11507" cx="86.5" cy="87" rx="86.5" ry="87" transform="translate(30 198.357) rotate(-90)" fill="#fff"/>
    </g>
    <path id="Trazado_883944" data-name="Trazado 883944" d="M62,60,0,0" transform="translate(819.174 9486.383) rotate(48)" fill="none" stroke="#198b7d" stroke-linecap="round" stroke-width="2"/>
    <path id="Trazado_883945" data-name="Trazado 883945" d="M0,92.668V0" transform="translate(1025.092 9678.832)" fill="none" stroke="#198b7d" stroke-linecap="round" stroke-width="2"/>
    <path id="Trazado_883946" data-name="Trazado 883946" d="M75,31,0,0" transform="translate(753.318 9487.967) rotate(48)" fill="none" stroke="#198b7d" stroke-linecap="round" stroke-width="2"/>
    <path id="Trazado_883947" data-name="Trazado 883947" d="M79,0,0,15" transform="translate(716.347 9515.652) rotate(48)" fill="none" stroke="#198b7d" stroke-linecap="round" stroke-width="2"/>
    <path id="Trazado_883948" data-name="Trazado 883948" d="M69,0,0,62" transform="translate(731.821 9555.254) rotate(48)" fill="none" stroke="#198b7d" stroke-linecap="round" stroke-width="2"/>
    <g id="Grupo_1101664" data-name="Grupo 1101664" transform="translate(819.348 9470.885) rotate(48)">
      <circle id="Elipse_11511" data-name="Elipse 11511" cx="10.5" cy="10.5" r="10.5" transform="translate(0.224)" fill="#27b8a6"/>
      <circle id="Elipse_11515" data-name="Elipse 11515" cx="5.5" cy="5.5" r="5.5" transform="translate(5.224 5)" fill="#2b7a70"/>
    </g>
    <g id="Grupo_1101675" data-name="Grupo 1101675" transform="translate(1025.266 9663.334) rotate(48)">
      <circle id="Elipse_11511-2" data-name="Elipse 11511" cx="10.5" cy="10.5" r="10.5" transform="translate(0.224)" fill="#27b8a6"/>
      <circle id="Elipse_11515-2" data-name="Elipse 11515" cx="5.5" cy="5.5" r="5.5" transform="translate(5.224 5)" fill="#2b7a70"/>
    </g>
    <g id="Grupo_1101665" data-name="Grupo 1101665" transform="translate(748.884 9467.35) rotate(48)">
      <circle id="Elipse_11511-3" data-name="Elipse 11511" cx="10.5" cy="10.5" r="10.5" fill="#27b8a6"/>
      <circle id="Elipse_11515-3" data-name="Elipse 11515" cx="5.5" cy="5.5" r="5.5" transform="translate(5 5)" fill="#2b7a70"/>
    </g>
    <g id="Grupo_1101667" data-name="Grupo 1101667" transform="translate(698.646 9507.202) rotate(48)">
      <circle id="Elipse_11511-4" data-name="Elipse 11511" cx="10.5" cy="10.5" r="10.5" fill="#27b8a6"/>
      <circle id="Elipse_11515-4" data-name="Elipse 11515" cx="5.5" cy="5.5" r="5.5" transform="translate(5 5)" fill="#2b7a70"/>
    </g>
    <g id="Grupo_1101668" data-name="Grupo 1101668" transform="translate(685.881 9581.199) rotate(48)">
      <circle id="Elipse_11511-5" data-name="Elipse 11511" cx="10.5" cy="10.5" r="10.5" transform="translate(-0.449)" fill="#27b8a6"/>
      <circle id="Elipse_11515-5" data-name="Elipse 11515" cx="5.5" cy="5.5" r="5.5" transform="translate(4.551 5)" fill="#2b7a70"/>
    </g>
    <g id="Grupo_1101682" data-name="Grupo 1101682" transform="translate(-9753.628 8673.338) rotate(-81)">
      <line id="Línea_1018" data-name="Línea 1018" x2="24" y2="43" transform="translate(471.325 10431.5)" fill="none" stroke="#a854f3" stroke-width="1" stroke-dasharray="2"/>
      <line id="Línea_1017" data-name="Línea 1017" y2="60" transform="translate(567.613 10427)" fill="none" stroke="#a854f3" stroke-width="1" stroke-dasharray="2"/>
      <line id="Línea_1021" data-name="Línea 1021" x2="40" y2="10" transform="translate(405.325 10503.5)" fill="none" stroke="#a854f3" stroke-width="1" stroke-dasharray="2"/>
      <line id="Línea_1024" data-name="Línea 1024" x2="53" transform="translate(381.325 10589.5)" fill="none" stroke="#a854f3" stroke-width="1" stroke-dasharray="2"/>
      <g id="Grupo_1101676" data-name="Grupo 1101676" transform="translate(543.795 10417.041) rotate(48)">
        <path id="Sustracción_1-2" data-name="Sustracción 1" d="M226.461,93H0a115.476,115.476,0,0,1,226.461,0Z" transform="translate(0 226.461) rotate(-90)" fill="#2ed4bf"/>
        <ellipse id="Elipse_11507-2" data-name="Elipse 11507" cx="86.5" cy="87" rx="86.5" ry="87" transform="translate(30 198.357) rotate(-90)" fill="#fff"/>
      </g>
      <line id="Línea_1019" data-name="Línea 1019" x1="62" y1="60" transform="translate(567.095 10478.383) rotate(48)" fill="none" stroke="#198b7d" stroke-linecap="round" stroke-width="2"/>
      <line id="Línea_1020" data-name="Línea 1020" x1="75" y1="31" transform="translate(501.24 10479.967) rotate(48)" fill="none" stroke="#198b7d" stroke-linecap="round" stroke-width="2"/>
      <line id="Línea_1022" data-name="Línea 1022" x1="79" y2="15" transform="translate(464.269 10507.652) rotate(48)" fill="none" stroke="#198b7d" stroke-linecap="round" stroke-width="2"/>
      <line id="Línea_1023" data-name="Línea 1023" x1="69" y2="62" transform="translate(479.742 10547.254) rotate(48)" fill="none" stroke="#198b7d" stroke-linecap="round" stroke-width="2"/>
      <g id="Grupo_1101677" data-name="Grupo 1101677" transform="translate(567.269 10462.885) rotate(48)">
        <circle id="Elipse_11511-6" data-name="Elipse 11511" cx="10.5" cy="10.5" r="10.5" transform="translate(0.224)" fill="#27b8a6"/>
        <circle id="Elipse_11515-6" data-name="Elipse 11515" cx="5.5" cy="5.5" r="5.5" transform="translate(5.224 5)" fill="#2b7a70"/>
      </g>
      <g id="Grupo_1101678" data-name="Grupo 1101678" transform="translate(496.806 10459.35) rotate(48)">
        <circle id="Elipse_11511-7" data-name="Elipse 11511" cx="10.5" cy="10.5" r="10.5" fill="#27b8a6"/>
        <circle id="Elipse_11515-7" data-name="Elipse 11515" cx="5.5" cy="5.5" r="5.5" transform="translate(5 5)" fill="#2b7a70"/>
      </g>
      <g id="Grupo_1101679" data-name="Grupo 1101679" transform="translate(446.568 10499.202) rotate(48)">
        <circle id="Elipse_11511-8" data-name="Elipse 11511" cx="10.5" cy="10.5" r="10.5" fill="#27b8a6"/>
        <circle id="Elipse_11515-8" data-name="Elipse 11515" cx="5.5" cy="5.5" r="5.5" transform="translate(5 5)" fill="#2b7a70"/>
      </g>
      <g id="Grupo_1101680" data-name="Grupo 1101680" transform="translate(433.803 10573.199) rotate(48)">
        <circle id="Elipse_11511-9" data-name="Elipse 11511" cx="10.5" cy="10.5" r="10.5" transform="translate(-0.449)" fill="#27b8a6"/>
        <circle id="Elipse_11515-9" data-name="Elipse 11515" cx="5.5" cy="5.5" r="5.5" transform="translate(4.551 5)" fill="#2b7a70"/>
      </g>
    </g>
    <g id="Grupo_1101672" data-name="Grupo 1101672" transform="translate(243.903 -395)">
      <g id="Rectángulo_401763" data-name="Rectángulo 401763" transform="translate(518.982 9956.568)" fill="#fff" stroke="#aec4fa" stroke-width="5">
        <rect width="154" height="60" stroke="none"/>
        <rect x="2.5" y="2.5" width="149" height="55" fill="none"/>
      </g>
      <text id="Estudiante" transform="translate(560.125 9992.568)" fill="#12263f" font-size="16" font-family="Roboto-Bold, Roboto" font-weight="700"><tspan x="0" y="0">Estudiante</tspan></text>
      <g id="Rectángulo_401761" data-name="Rectángulo 401761" transform="translate(511.298 9951.646)" fill="none" stroke="#a854f3" stroke-width="1" stroke-dasharray="2">
        <rect width="169" height="69.844" stroke="none"/>
        <rect x="0.5" y="0.5" width="168" height="68.844" fill="none"/>
      </g>
    </g>
    <g id="Grupo_1101674" data-name="Grupo 1101674" transform="translate(243.903 -199)">
      <g id="Rectángulo_401763-2" data-name="Rectángulo 401763" transform="translate(518.982 9956.568)" fill="#fff" stroke="#aec4fa" stroke-width="5">
        <rect width="154" height="60" stroke="none"/>
        <rect x="2.5" y="2.5" width="149" height="55" fill="none"/>
      </g>
      <text id="Persona" transform="translate(566.482 9992.568)" fill="#12263f" font-size="16" font-family="Roboto-Bold, Roboto" font-weight="700"><tspan x="0" y="0">Persona</tspan></text>
      <g id="Rectángulo_401761-2" data-name="Rectángulo 401761" transform="translate(511.298 9951.646)" fill="none" stroke="#a854f3" stroke-width="1" stroke-dasharray="2">
        <rect width="169" height="69.844" stroke="none"/>
        <rect x="0.5" y="0.5" width="168" height="68.844" fill="none"/>
      </g>
    </g>
    <g id="Trazado_883949" data-name="Trazado 883949" transform="translate(944.136 9787.568) rotate(-45)" fill="none" stroke-dasharray="2">
      <path d="M0,0H113.748V113.748H0Z" stroke="none"/>
      <path d="M 0 0 L 2 0 L 2 1 L 1 1 L 1 2.99224853515625 L 0 2.99224853515625 L 0 0 Z M 4 0 L 6 0 L 6 1 L 4 1 L 4 0 Z M 8 0 L 10 0 L 10 1 L 8 1 L 8 0 Z M 12 0 L 14 0 L 14 1 L 12 1 L 12 0 Z M 16 0 L 18 0 L 18 1 L 16 1 L 16 0 Z M 20 0 L 22 0 L 22 1 L 20 1 L 20 0 Z M 24 0 L 26 0 L 26 1 L 24 1 L 24 0 Z M 28 0 L 30 0 L 30 1 L 28 1 L 28 0 Z M 32 0 L 34 0 L 34 1 L 32 1 L 32 0 Z M 36 0 L 38 0 L 38 1 L 36 1 L 36 0 Z M 40 0 L 42 0 L 42 1 L 40 1 L 40 0 Z M 44 0 L 46 0 L 46 1 L 44 1 L 44 0 Z M 48 0 L 50 0 L 50 1 L 48 1 L 48 0 Z M 52 0 L 54 0 L 54 1 L 52 1 L 52 0 Z M 56 0 L 58 0 L 58 1 L 56 1 L 56 0 Z M 60 0 L 62 0 L 62 1 L 60 1 L 60 0 Z M 64 0 L 66 0 L 66 1 L 64 1 L 64 0 Z M 68 0 L 70 0 L 70 1 L 68 1 L 68 0 Z M 72 0 L 74 0 L 74 1 L 72 1 L 72 0 Z M 76 0 L 78 0 L 78 1 L 76 1 L 76 0 Z M 80 0 L 82 0 L 82 1 L 80 1 L 80 0 Z M 84 0 L 86 0 L 86 1 L 84 1 L 84 0 Z M 88 0 L 90 0 L 90 1 L 88 1 L 88 0 Z M 92 0 L 94 0 L 94 1 L 92 1 L 92 0 Z M 96 0 L 98 0 L 98 1 L 96 1 L 96 0 Z M 100 0 L 102 0 L 102 1 L 100 1 L 100 0 Z M 104 0 L 106 0 L 106 1 L 104 1 L 104 0 Z M 108 0 L 110 0 L 110 1 L 108 1 L 108 0 Z M 112 0 L 113.7480621337891 0 L 113.7480621337891 1 L 112 1 L 112 0 Z M 112.7480621337891 2.251937866210938 L 113.7480621337891 2.251937866210938 C 113.7480621337891 2.251937866210938 113.7480621337891 4.251937866210938 113.7480621337891 4.251937866210938 L 112.7480621337891 4.251937866210938 L 112.7480621337891 2.251937866210938 Z M 112.7480621337891 6.251937866210938 L 113.7480621337891 6.251937866210938 C 113.7480621337891 6.251937866210938 113.7480621337891 8.251937866210938 113.7480621337891 8.251937866210938 L 112.7480621337891 8.251937866210938 L 112.7480621337891 6.251937866210938 Z M 112.7480621337891 10.25193786621094 L 113.7480621337891 10.25193786621094 C 113.7480621337891 10.25193786621094 113.7480621337891 12.25193786621094 113.7480621337891 12.25193786621094 L 112.7480621337891 12.25193786621094 L 112.7480621337891 10.25193786621094 Z M 112.7480621337891 14.25193786621094 L 113.7480621337891 14.25193786621094 C 113.7480621337891 14.25193786621094 113.7480621337891 16.25193786621094 113.7480621337891 16.25193786621094 L 112.7480621337891 16.25193786621094 L 112.7480621337891 14.25193786621094 Z M 112.7480621337891 18.25193786621094 L 113.7480621337891 18.25193786621094 C 113.7480621337891 18.25193786621094 113.7480621337891 20.25193786621094 113.7480621337891 20.25193786621094 L 112.7480621337891 20.25193786621094 L 112.7480621337891 18.25193786621094 Z M 112.7480621337891 22.25193786621094 L 113.7480621337891 22.25193786621094 C 113.7480621337891 22.25193786621094 113.7480621337891 24.25193786621094 113.7480621337891 24.25193786621094 L 112.7480621337891 24.25193786621094 L 112.7480621337891 22.25193786621094 Z M 112.7480621337891 26.25193786621094 L 113.7480621337891 26.25193786621094 C 113.7480621337891 26.25193786621094 113.7480621337891 28.25193786621094 113.7480621337891 28.25193786621094 L 112.7480621337891 28.25193786621094 L 112.7480621337891 26.25193786621094 Z M 112.7480621337891 30.25193786621094 L 113.7480621337891 30.25193786621094 C 113.7480621337891 30.25193786621094 113.7480621337891 32.25193786621094 113.7480621337891 32.25193786621094 L 112.7480621337891 32.25193786621094 L 112.7480621337891 30.25193786621094 Z M 112.7480621337891 34.25193786621094 L 113.7480621337891 34.25193786621094 C 113.7480621337891 34.25193786621094 113.7480621337891 36.25193786621094 113.7480621337891 36.25193786621094 L 112.7480621337891 36.25193786621094 L 112.7480621337891 34.25193786621094 Z M 112.7480621337891 38.25193786621094 L 113.7480621337891 38.25193786621094 C 113.7480621337891 38.25193786621094 113.7480621337891 40.25193786621094 113.7480621337891 40.25193786621094 L 112.7480621337891 40.25193786621094 L 112.7480621337891 38.25193786621094 Z M 112.7480621337891 42.25193786621094 L 113.7480621337891 42.25193786621094 C 113.7480621337891 42.25193786621094 113.7480621337891 44.25193786621094 113.7480621337891 44.25193786621094 L 112.7480621337891 44.25193786621094 L 112.7480621337891 42.25193786621094 Z M 112.7480621337891 46.25193786621094 L 113.7480621337891 46.25193786621094 C 113.7480621337891 46.25193786621094 113.7480621337891 48.25193786621094 113.7480621337891 48.25193786621094 L 112.7480621337891 48.25193786621094 L 112.7480621337891 46.25193786621094 Z M 112.7480621337891 50.25193786621094 L 113.7480621337891 50.25193786621094 C 113.7480621337891 50.25193786621094 113.7480621337891 52.25193786621094 113.7480621337891 52.25193786621094 L 112.7480621337891 52.25193786621094 L 112.7480621337891 50.25193786621094 Z M 112.7480621337891 54.25193786621094 L 113.7480621337891 54.25193786621094 C 113.7480621337891 54.25193786621094 113.7480621337891 56.25193786621094 113.7480621337891 56.25193786621094 L 112.7480621337891 56.25193786621094 L 112.7480621337891 54.25193786621094 Z M 112.7480621337891 58.25193786621094 L 113.7480621337891 58.25193786621094 C 113.7480621337891 58.25193786621094 113.7480621337891 60.25193786621094 113.7480621337891 60.25193786621094 L 112.7480621337891 60.25193786621094 L 112.7480621337891 58.25193786621094 Z M 112.7480621337891 62.25193786621094 L 113.7480621337891 62.25193786621094 C 113.7480621337891 62.25193786621094 113.7480621337891 64.25193786621094 113.7480621337891 64.25193786621094 L 112.7480621337891 64.25193786621094 L 112.7480621337891 62.25193786621094 Z M 112.7480621337891 66.25193786621094 L 113.7480621337891 66.25193786621094 C 113.7480621337891 66.25193786621094 113.7480621337891 68.25193786621094 113.7480621337891 68.25193786621094 L 112.7480621337891 68.25193786621094 L 112.7480621337891 66.25193786621094 Z M 112.7480621337891 70.25193786621094 L 113.7480621337891 70.25193786621094 C 113.7480621337891 70.25193786621094 113.7480621337891 72.25193786621094 113.7480621337891 72.25193786621094 L 112.7480621337891 72.25193786621094 L 112.7480621337891 70.25193786621094 Z M 112.7480621337891 74.25193786621094 L 113.7480621337891 74.25193786621094 C 113.7480621337891 74.25193786621094 113.7480621337891 76.25193786621094 113.7480621337891 76.25193786621094 L 112.7480621337891 76.25193786621094 L 112.7480621337891 74.25193786621094 Z M 112.7480621337891 78.25193786621094 L 113.7480621337891 78.25193786621094 C 113.7480621337891 78.25193786621094 113.7480621337891 80.25193786621094 113.7480621337891 80.25193786621094 L 112.7480621337891 80.25193786621094 L 112.7480621337891 78.25193786621094 Z M 112.7480621337891 82.25193786621094 L 113.7480621337891 82.25193786621094 C 113.7480621337891 82.25193786621094 113.7480621337891 84.25193786621094 113.7480621337891 84.25193786621094 L 112.7480621337891 84.25193786621094 L 112.7480621337891 82.25193786621094 Z M 112.7480621337891 86.25193786621094 L 113.7480621337891 86.25193786621094 C 113.7480621337891 86.25193786621094 113.7480621337891 88.25193786621094 113.7480621337891 88.25193786621094 L 112.7480621337891 88.25193786621094 L 112.7480621337891 86.25193786621094 Z M 112.7480621337891 90.25193786621094 L 113.7480621337891 90.25193786621094 C 113.7480621337891 90.25193786621094 113.7480621337891 92.25193786621094 113.7480621337891 92.25193786621094 L 112.7480621337891 92.25193786621094 L 112.7480621337891 90.25193786621094 Z M 112.7480621337891 94.25193786621094 L 113.7480621337891 94.25193786621094 C 113.7480621337891 94.25193786621094 113.7480621337891 96.25193786621094 113.7480621337891 96.25193786621094 L 112.7480621337891 96.25193786621094 L 112.7480621337891 94.25193786621094 Z M 112.7480621337891 98.25193786621094 L 113.7480621337891 98.25193786621094 C 113.7480621337891 98.25193786621094 113.7480621337891 100.2519378662109 113.7480621337891 100.2519378662109 L 112.7480621337891 100.2519378662109 L 112.7480621337891 98.25193786621094 Z M 112.7480621337891 102.2519378662109 L 113.7480621337891 102.2519378662109 C 113.7480621337891 102.2519378662109 113.7480621337891 104.2519378662109 113.7480621337891 104.2519378662109 L 112.7480621337891 104.2519378662109 L 112.7480621337891 102.2519378662109 Z M 112.7480621337891 106.2519378662109 L 113.7480621337891 106.2519378662109 C 113.7480621337891 106.2519378662109 113.7480621337891 108.2519378662109 113.7480621337891 108.2519378662109 L 112.7480621337891 108.2519378662109 L 112.7480621337891 106.2519378662109 Z M 112.7480621337891 110.2519378662109 L 113.7480621337891 110.2519378662109 C 113.7480621337891 110.2519378662109 113.7480621337891 112.2519378662109 113.7480621337891 112.2519378662109 L 112.7480621337891 112.2519378662109 L 112.7480621337891 110.2519378662109 Z M 111.2441864013672 112.7480621337891 L 113.2441864013672 112.7480621337891 L 113.2441864013672 113.7480621337891 C 113.2441864013672 113.7480621337891 111.2441864013672 113.7480621337891 111.2441864013672 113.7480621337891 L 111.2441864013672 112.7480621337891 Z M 107.2441864013672 112.7480621337891 L 109.2441864013672 112.7480621337891 L 109.2441864013672 113.7480621337891 C 109.2441864013672 113.7480621337891 107.2441864013672 113.7480621337891 107.2441864013672 113.7480621337891 L 107.2441864013672 112.7480621337891 Z M 103.2441864013672 112.7480621337891 L 105.2441864013672 112.7480621337891 L 105.2441864013672 113.7480621337891 C 105.2441864013672 113.7480621337891 103.2441864013672 113.7480621337891 103.2441864013672 113.7480621337891 L 103.2441864013672 112.7480621337891 Z M 99.24418640136719 112.7480621337891 L 101.2441864013672 112.7480621337891 L 101.2441864013672 113.7480621337891 C 101.2441864013672 113.7480621337891 99.24418640136719 113.7480621337891 99.24418640136719 113.7480621337891 L 99.24418640136719 112.7480621337891 Z M 95.24418640136719 112.7480621337891 L 97.24418640136719 112.7480621337891 L 97.24418640136719 113.7480621337891 C 97.24418640136719 113.7480621337891 95.24418640136719 113.7480621337891 95.24418640136719 113.7480621337891 L 95.24418640136719 112.7480621337891 Z M 91.24418640136719 112.7480621337891 L 93.24418640136719 112.7480621337891 L 93.24418640136719 113.7480621337891 C 93.24418640136719 113.7480621337891 91.24418640136719 113.7480621337891 91.24418640136719 113.7480621337891 L 91.24418640136719 112.7480621337891 Z M 87.24418640136719 112.7480621337891 L 89.24418640136719 112.7480621337891 L 89.24418640136719 113.7480621337891 C 89.24418640136719 113.7480621337891 87.24418640136719 113.7480621337891 87.24418640136719 113.7480621337891 L 87.24418640136719 112.7480621337891 Z M 83.24418640136719 112.7480621337891 L 85.24418640136719 112.7480621337891 L 85.24418640136719 113.7480621337891 C 85.24418640136719 113.7480621337891 83.24418640136719 113.7480621337891 83.24418640136719 113.7480621337891 L 83.24418640136719 112.7480621337891 Z M 79.24418640136719 112.7480621337891 L 81.24418640136719 112.7480621337891 L 81.24418640136719 113.7480621337891 C 81.24418640136719 113.7480621337891 79.24418640136719 113.7480621337891 79.24418640136719 113.7480621337891 L 79.24418640136719 112.7480621337891 Z M 75.24418640136719 112.7480621337891 L 77.24418640136719 112.7480621337891 L 77.24418640136719 113.7480621337891 C 77.24418640136719 113.7480621337891 75.24418640136719 113.7480621337891 75.24418640136719 113.7480621337891 L 75.24418640136719 112.7480621337891 Z M 71.24418640136719 112.7480621337891 L 73.24418640136719 112.7480621337891 L 73.24418640136719 113.7480621337891 C 73.24418640136719 113.7480621337891 71.24418640136719 113.7480621337891 71.24418640136719 113.7480621337891 L 71.24418640136719 112.7480621337891 Z M 67.24418640136719 112.7480621337891 L 69.24418640136719 112.7480621337891 L 69.24418640136719 113.7480621337891 C 69.24418640136719 113.7480621337891 67.24418640136719 113.7480621337891 67.24418640136719 113.7480621337891 L 67.24418640136719 112.7480621337891 Z M 63.24418640136719 112.7480621337891 L 65.24418640136719 112.7480621337891 L 65.24418640136719 113.7480621337891 C 65.24418640136719 113.7480621337891 63.24418640136719 113.7480621337891 63.24418640136719 113.7480621337891 L 63.24418640136719 112.7480621337891 Z M 59.24418640136719 112.7480621337891 L 61.24418640136719 112.7480621337891 L 61.24418640136719 113.7480621337891 C 61.24418640136719 113.7480621337891 59.24418640136719 113.7480621337891 59.24418640136719 113.7480621337891 L 59.24418640136719 112.7480621337891 Z M 55.24418640136719 112.7480621337891 L 57.24418640136719 112.7480621337891 L 57.24418640136719 113.7480621337891 C 57.24418640136719 113.7480621337891 55.24418640136719 113.7480621337891 55.24418640136719 113.7480621337891 L 55.24418640136719 112.7480621337891 Z M 51.24418640136719 112.7480621337891 L 53.24418640136719 112.7480621337891 L 53.24418640136719 113.7480621337891 C 53.24418640136719 113.7480621337891 51.24418640136719 113.7480621337891 51.24418640136719 113.7480621337891 L 51.24418640136719 112.7480621337891 Z M 47.24418640136719 112.7480621337891 L 49.24418640136719 112.7480621337891 L 49.24418640136719 113.7480621337891 C 49.24418640136719 113.7480621337891 47.24418640136719 113.7480621337891 47.24418640136719 113.7480621337891 L 47.24418640136719 112.7480621337891 Z M 43.24418640136719 112.7480621337891 L 45.24418640136719 112.7480621337891 L 45.24418640136719 113.7480621337891 C 45.24418640136719 113.7480621337891 43.24418640136719 113.7480621337891 43.24418640136719 113.7480621337891 L 43.24418640136719 112.7480621337891 Z M 39.24418640136719 112.7480621337891 L 41.24418640136719 112.7480621337891 L 41.24418640136719 113.7480621337891 C 41.24418640136719 113.7480621337891 39.24418640136719 113.7480621337891 39.24418640136719 113.7480621337891 L 39.24418640136719 112.7480621337891 Z M 35.24418640136719 112.7480621337891 L 37.24418640136719 112.7480621337891 L 37.24418640136719 113.7480621337891 C 37.24418640136719 113.7480621337891 35.24418640136719 113.7480621337891 35.24418640136719 113.7480621337891 L 35.24418640136719 112.7480621337891 Z M 31.24418640136719 112.7480621337891 L 33.24418640136719 112.7480621337891 L 33.24418640136719 113.7480621337891 C 33.24418640136719 113.7480621337891 31.24418640136719 113.7480621337891 31.24418640136719 113.7480621337891 L 31.24418640136719 112.7480621337891 Z M 27.24418640136719 112.7480621337891 L 29.24418640136719 112.7480621337891 L 29.24418640136719 113.7480621337891 C 29.24418640136719 113.7480621337891 27.24418640136719 113.7480621337891 27.24418640136719 113.7480621337891 L 27.24418640136719 112.7480621337891 Z M 23.24418640136719 112.7480621337891 L 25.24418640136719 112.7480621337891 L 25.24418640136719 113.7480621337891 C 25.24418640136719 113.7480621337891 23.24418640136719 113.7480621337891 23.24418640136719 113.7480621337891 L 23.24418640136719 112.7480621337891 Z M 19.24418640136719 112.7480621337891 L 21.24418640136719 112.7480621337891 L 21.24418640136719 113.7480621337891 C 21.24418640136719 113.7480621337891 19.24418640136719 113.7480621337891 19.24418640136719 113.7480621337891 L 19.24418640136719 112.7480621337891 Z M 15.24418640136719 112.7480621337891 L 17.24418640136719 112.7480621337891 L 17.24418640136719 113.7480621337891 C 17.24418640136719 113.7480621337891 15.24418640136719 113.7480621337891 15.24418640136719 113.7480621337891 L 15.24418640136719 112.7480621337891 Z M 11.24418640136719 112.7480621337891 L 13.24418640136719 112.7480621337891 L 13.24418640136719 113.7480621337891 C 13.24418640136719 113.7480621337891 11.24418640136719 113.7480621337891 11.24418640136719 113.7480621337891 L 11.24418640136719 112.7480621337891 Z M 7.244186401367188 112.7480621337891 L 9.244186401367188 112.7480621337891 L 9.244186401367188 113.7480621337891 C 9.244186401367188 113.7480621337891 7.244186401367188 113.7480621337891 7.244186401367188 113.7480621337891 L 7.244186401367188 112.7480621337891 Z M 3.244186401367188 112.7480621337891 L 5.244186401367188 112.7480621337891 L 5.244186401367188 113.7480621337891 C 5.244186401367188 113.7480621337891 3.244186401367188 113.7480621337891 3.244186401367188 113.7480621337891 L 3.244186401367188 112.7480621337891 Z M 0 112.7480621337891 L 1.244186401367188 112.7480621337891 L 1.244186401367188 113.7480621337891 C 1.244186401367188 113.7480621337891 0 113.7480621337891 0 113.7480621337891 L 0 112.7480621337891 Z M 0 108.9922485351562 L 1 108.9922485351562 L 1 110.9922485351562 L 0 110.9922485351562 L 0 108.9922485351562 Z M 0 104.9922485351562 L 1 104.9922485351562 L 1 106.9922485351562 L 0 106.9922485351562 L 0 104.9922485351562 Z M 0 100.9922485351562 L 1 100.9922485351562 L 1 102.9922485351562 L 0 102.9922485351562 L 0 100.9922485351562 Z M 0 96.99224853515625 L 1 96.99224853515625 L 1 98.99224853515625 L 0 98.99224853515625 L 0 96.99224853515625 Z M 0 92.99224853515625 L 1 92.99224853515625 L 1 94.99224853515625 L 0 94.99224853515625 L 0 92.99224853515625 Z M 0 88.99224853515625 L 1 88.99224853515625 L 1 90.99224853515625 L 0 90.99224853515625 L 0 88.99224853515625 Z M 0 84.99224853515625 L 1 84.99224853515625 L 1 86.99224853515625 L 0 86.99224853515625 L 0 84.99224853515625 Z M 0 80.99224853515625 L 1 80.99224853515625 L 1 82.99224853515625 L 0 82.99224853515625 L 0 80.99224853515625 Z M 0 76.99224853515625 L 1 76.99224853515625 L 1 78.99224853515625 L 0 78.99224853515625 L 0 76.99224853515625 Z M 0 72.99224853515625 L 1 72.99224853515625 L 1 74.99224853515625 L 0 74.99224853515625 L 0 72.99224853515625 Z M 0 68.99224853515625 L 1 68.99224853515625 L 1 70.99224853515625 L 0 70.99224853515625 L 0 68.99224853515625 Z M 0 64.99224853515625 L 1 64.99224853515625 L 1 66.99224853515625 L 0 66.99224853515625 L 0 64.99224853515625 Z M 0 60.99224472045898 L 1 60.99224472045898 L 1 62.99224472045898 L 0 62.99224472045898 L 0 60.99224472045898 Z M 0 56.99224472045898 L 1 56.99224472045898 L 1 58.99224472045898 L 0 58.99224472045898 L 0 56.99224472045898 Z M 0 52.99224472045898 L 1 52.99224472045898 L 1 54.99224472045898 L 0 54.99224472045898 L 0 52.99224472045898 Z M 0 48.99224853515625 L 1 48.99224853515625 L 1 50.99224472045898 L 0 50.99224472045898 L 0 48.99224853515625 Z M 0 44.99224853515625 L 1 44.99224853515625 L 1 46.99224853515625 L 0 46.99224853515625 L 0 44.99224853515625 Z M 0 40.99224853515625 L 1 40.99224853515625 L 1 42.99224853515625 L 0 42.99224853515625 L 0 40.99224853515625 Z M 0 36.99224853515625 L 1 36.99224853515625 L 1 38.99224853515625 L 0 38.99224853515625 L 0 36.99224853515625 Z M 0 32.99224853515625 L 1 32.99224853515625 L 1 34.99224853515625 L 0 34.99224853515625 L 0 32.99224853515625 Z M 0 28.99224853515625 L 1 28.99224853515625 L 1 30.99224853515625 L 0 30.99224853515625 L 0 28.99224853515625 Z M 0 24.99224853515625 L 1 24.99224853515625 L 1 26.99224853515625 L 0 26.99224853515625 L 0 24.99224853515625 Z M 0 20.99224853515625 L 1 20.99224853515625 L 1 22.99224853515625 L 0 22.99224853515625 L 0 20.99224853515625 Z M 0 16.99224853515625 L 1 16.99224853515625 L 1 18.99224853515625 L 0 18.99224853515625 L 0 16.99224853515625 Z M 0 12.99224853515625 L 1 12.99224853515625 L 1 14.99224853515625 L 0 14.99224853515625 L 0 12.99224853515625 Z M 0 8.99224853515625 L 1 8.99224853515625 L 1 10.99224853515625 L 0 10.99224853515625 L 0 8.99224853515625 Z M 0 4.99224853515625 L 1 4.99224853515625 L 1 6.99224853515625 L 0 6.99224853515625 L 0 4.99224853515625 Z" stroke="none" fill="#a854f3"/>
    </g>
    <g id="Trazado_883950" data-name="Trazado 883950" transform="translate(954.786 9787.568) rotate(-45)" fill="#fff">
      <path d="M 96.14707183837891 96.14707183837891 L 2.49999737739563 96.14707183837891 L 2.49999737739563 2.49999737739563 L 96.14707183837891 2.49999737739563 L 96.14707183837891 96.14707183837891 Z" stroke="none"/>
      <path d="M 4.999992370605469 4.999992370605469 L 4.999992370605469 93.64706420898438 L 93.64706420898438 93.64706420898438 L 93.64706420898438 4.999992370605469 L 4.999992370605469 4.999992370605469 M -7.62939453125e-06 -7.62939453125e-06 L 98.64706420898438 -7.62939453125e-06 L 98.64706420898438 98.64706420898438 L -7.62939453125e-06 98.64706420898438 L -7.62939453125e-06 -7.62939453125e-06 Z" stroke="none" fill="#aec4fa"/>
    </g>
    <path id="Trazado_883951" data-name="Trazado 883951" d="M7.859-4.945h-4.5v3.063H8.641V0H1.016V-11.375H8.625v1.9H3.359v2.711h4.5Zm6.586,2.609a.727.727,0,0,0-.41-.652,4.659,4.659,0,0,0-1.316-.426Q9.7-4.047,9.7-5.977a2.323,2.323,0,0,1,.934-1.879,3.766,3.766,0,0,1,2.441-.754,4.053,4.053,0,0,1,2.574.758,2.388,2.388,0,0,1,.965,1.969H14.359a1.092,1.092,0,0,0-.312-.8A1.322,1.322,0,0,0,13.07-7a1.351,1.351,0,0,0-.883.258.814.814,0,0,0-.312.656.7.7,0,0,0,.355.605,3.657,3.657,0,0,0,1.2.4,9.8,9.8,0,0,1,1.422.379A2.336,2.336,0,0,1,16.641-2.43a2.2,2.2,0,0,1-.992,1.871,4.28,4.28,0,0,1-2.562.715A4.47,4.47,0,0,1,11.2-.223,3.166,3.166,0,0,1,9.906-1.262a2.414,2.414,0,0,1-.469-1.426h2.141a1.179,1.179,0,0,0,.445.922,1.766,1.766,0,0,0,1.109.32,1.635,1.635,0,0,0,.98-.246A.766.766,0,0,0,14.445-2.336Zm12.7,1.477A2.831,2.831,0,0,1,24.828.156a2.67,2.67,0,0,1-2.074-.781,3.335,3.335,0,0,1-.73-2.289V-8.453h2.258v5.467q0,1.322,1.2,1.322a1.63,1.63,0,0,0,1.578-.8V-8.453h2.266V0H27.2Zm5.969-7.594.07.977a2.951,2.951,0,0,1,2.43-1.133,2.453,2.453,0,0,1,2,.789,3.682,3.682,0,0,1,.672,2.359V0H36.023V-5.419a1.47,1.47,0,0,0-.312-1.045,1.4,1.4,0,0,0-1.039-.325,1.553,1.553,0,0,0-1.43.814V0H30.984V-8.453Z" transform="translate(1001.065 9793.068)" fill="#12263f"/>
    <path id="Trazado_883952" data-name="Trazado 883952" d="M6.258,0H4V-8.715l-2.7.832V-9.7l4.711-1.687h.242Z" transform="translate(750.903 9743)" fill="#12263f"/>
  </g>
</svg>
