<svg xmlns="http://www.w3.org/2000/svg" width="458" height="628" viewBox="0 0 458 628">
  <g id="Grupo_1102365" data-name="Grupo 1102365" transform="translate(3132 5702)">
    <g id="Grupo_1102275" data-name="Grupo 1102275" transform="translate(-596.984 3416.615)">
      <g id="Grupo_1101116" data-name="Grupo 1101116" transform="translate(-2192.885 -9047.615) rotate(90)">
        <path id="Sustracción_1" data-name="Sustracción 1" d="M226.461,93H0a115.476,115.476,0,0,1,226.461,0Z" transform="translate(0 226.461) rotate(-90)" fill="#2ed4bf"/>
        <ellipse id="Elipse_11507" data-name="Elipse 11507" cx="86.5" cy="87" rx="86.5" ry="87" transform="translate(30 198.357) rotate(-90)" fill="#f2f6ff"/>
      </g>
      <line id="Línea_878" data-name="Línea 878" x1="62" y1="60" transform="translate(-2216.615 -8996.115) rotate(90)" fill="none" stroke="#198b7d" stroke-linecap="round" stroke-width="2"/>
      <line id="Línea_879" data-name="Línea 879" x1="75" y1="31" transform="translate(-2266.615 -9037.115) rotate(90)" fill="none" stroke="#198b7d" stroke-linecap="round" stroke-width="2"/>
      <line id="Línea_882" data-name="Línea 882" x1="79" y2="15" transform="translate(-2312.615 -9041.115) rotate(90)" fill="none" stroke="#198b7d" stroke-linecap="round" stroke-width="2"/>
      <line id="Línea_880" data-name="Línea 880" x1="69" y2="62" transform="translate(-2327.615 -9003.115) rotate(90)" fill="none" stroke="#198b7d" stroke-linecap="round" stroke-width="2"/>
      <g id="Rectángulo_401590" data-name="Rectángulo 401590" transform="translate(-2383.115 -8967.922)" fill="#f2f6ff" stroke="#aec4fa" stroke-width="5">
        <rect width="154" height="60" stroke="none"/>
        <rect x="2.5" y="2.5" width="149" height="55" fill="none"/>
      </g>
      <text id="Persona" transform="translate(-2337.615 -8931.922)" fill="#12263f" font-size="16" font-family="Roboto-Bold, Roboto" font-weight="700"><tspan x="0" y="0">Persona</tspan></text>
      <g id="Rectángulo_401594" data-name="Rectángulo 401594" transform="translate(-2390.615 -8972.844)" fill="none" stroke="#a854f3" stroke-width="1" stroke-dasharray="2">
        <rect width="169" height="69.844" stroke="none"/>
        <rect x="0.5" y="0.5" width="168" height="68.844" fill="none"/>
      </g>
      <g id="Grupo_1101118" data-name="Grupo 1101118" transform="translate(5465.885 -9542.615) rotate(90)">
        <circle id="Elipse_11511" data-name="Elipse 11511" cx="10.5" cy="10.5" r="10.5" transform="translate(536 7672)" fill="#27b8a6"/>
        <circle id="Elipse_11515" data-name="Elipse 11515" cx="5.5" cy="5.5" r="5.5" transform="translate(541 7677)" fill="#2b7a70"/>
      </g>
      <g id="Grupo_1101119" data-name="Grupo 1101119" transform="translate(5415.885 -9583.615) rotate(90)">
        <circle id="Elipse_11511-2" data-name="Elipse 11511" cx="10.5" cy="10.5" r="10.5" transform="translate(536 7672)" fill="#27b8a6"/>
        <circle id="Elipse_11515-2" data-name="Elipse 11515" cx="5.5" cy="5.5" r="5.5" transform="translate(541 7677)" fill="#2b7a70"/>
      </g>
      <g id="Grupo_1101120" data-name="Grupo 1101120" transform="translate(5351.885 -9587.615) rotate(90)">
        <circle id="Elipse_11511-3" data-name="Elipse 11511" cx="10.5" cy="10.5" r="10.5" transform="translate(536 7672)" fill="#27b8a6"/>
        <circle id="Elipse_11515-3" data-name="Elipse 11515" cx="5.5" cy="5.5" r="5.5" transform="translate(541 7677)" fill="#2b7a70"/>
      </g>
      <g id="Grupo_1101121" data-name="Grupo 1101121" transform="translate(5292.885 -9549.615) rotate(90)">
        <circle id="Elipse_11511-4" data-name="Elipse 11511" cx="10.5" cy="10.5" r="10.5" transform="translate(536 7672)" fill="#27b8a6"/>
        <circle id="Elipse_11515-4" data-name="Elipse 11515" cx="5.5" cy="5.5" r="5.5" transform="translate(541 7677)" fill="#2b7a70"/>
      </g>
    </g>
    <path id="Trazado_883917" data-name="Trazado 883917" d="M22.5,0h81a22.5,22.5,0,0,1,0,45h-81a22.5,22.5,0,0,1,0-45Z" transform="translate(-3132 -5635)" fill="#f2e5fd"/>
    <path id="Trazado_883918" data-name="Trazado 883918" d="M22.5,0h81a22.5,22.5,0,0,1,0,45h-81a22.5,22.5,0,0,1,0-45Z" transform="translate(-3056 -5702)" fill="#f2e5fd"/>
    <path id="Trazado_883929" data-name="Trazado 883929" d="M22.5,0h81a22.5,22.5,0,0,1,0,45h-81a22.5,22.5,0,0,1,0-45Z" transform="translate(-2825 -5157)" fill="#f2e5fd"/>
    <path id="Trazado_883921" data-name="Trazado 883921" d="M22.5,0h81a22.5,22.5,0,0,1,0,45h-81a22.5,22.5,0,0,1,0-45Z" transform="translate(-2881 -5702)" fill="#f2e5fd"/>
    <path id="Trazado_883933" data-name="Trazado 883933" d="M22.5,0h81a22.5,22.5,0,0,1,0,45h-81a22.5,22.5,0,0,1,0-45Z" transform="translate(-2979 -5119)" fill="#f2e5fd"/>
    <path id="Trazado_883926" data-name="Trazado 883926" d="M22.5,0h81a22.5,22.5,0,0,1,0,45h-81a22.5,22.5,0,0,1,0-45Z" transform="translate(-2800 -5635)" fill="#f2e5fd"/>
    <path id="Trazado_883930" data-name="Trazado 883930" d="M22.5,0h81a22.5,22.5,0,0,1,0,45h-81a22.5,22.5,0,0,1,0-45Z" transform="translate(-3112 -5157)" fill="#f2e5fd"/>
    <path id="Trazado_883919" data-name="Trazado 883919" d="M2.945-8.453l.07.977a2.951,2.951,0,0,1,2.43-1.133,2.453,2.453,0,0,1,2,.789,3.682,3.682,0,0,1,.672,2.359V0H5.859V-5.406a1.465,1.465,0,0,0-.312-1.043,1.4,1.4,0,0,0-1.039-.324,1.553,1.553,0,0,0-1.43.813V0H.82V-8.453ZM9.477-4.3a5.013,5.013,0,0,1,.484-2.242A3.546,3.546,0,0,1,11.355-8.07a4.069,4.069,0,0,1,2.113-.539,3.849,3.849,0,0,1,2.793,1.047,4.2,4.2,0,0,1,1.207,2.844l.016.578A4.418,4.418,0,0,1,16.4-1.02,3.775,3.775,0,0,1,13.484.156a3.793,3.793,0,0,1-2.918-1.172A4.5,4.5,0,0,1,9.477-4.2Zm2.258.16A3.16,3.16,0,0,0,12.188-2.3a1.5,1.5,0,0,0,1.3.638,1.5,1.5,0,0,0,1.281-.63,3.457,3.457,0,0,0,.461-2.015,3.128,3.128,0,0,0-.461-1.831,1.5,1.5,0,0,0-1.3-.649,1.474,1.474,0,0,0-1.281.646A3.516,3.516,0,0,0,11.734-4.144Zm9.258-4.309.07.945a2.971,2.971,0,0,1,2.43-1.1A2.255,2.255,0,0,1,25.734-7.32a2.9,2.9,0,0,1,2.539-1.289,2.521,2.521,0,0,1,2.047.8,3.681,3.681,0,0,1,.672,2.41V0H28.727V-5.391a1.61,1.61,0,0,0-.281-1.051,1.246,1.246,0,0,0-.992-.332,1.409,1.409,0,0,0-1.406.969L26.055,0H23.8V-5.383a1.59,1.59,0,0,0-.289-1.062,1.259,1.259,0,0,0-.984-.328,1.463,1.463,0,0,0-1.391.8V0H18.875V-8.453Zm19.352,4.3A5.119,5.119,0,0,1,39.477-.98,2.872,2.872,0,0,1,37.055.156,2.639,2.639,0,0,1,34.859-.9l-.1.9H32.727V-12h2.258v4.3a2.571,2.571,0,0,1,2.055-.914,2.9,2.9,0,0,1,2.426,1.137,5.126,5.126,0,0,1,.879,3.2Zm-2.258-.164a3.363,3.363,0,0,0-.406-1.871,1.374,1.374,0,0,0-1.211-.59,1.489,1.489,0,0,0-1.484.883v3.336a1.509,1.509,0,0,0,1.5.891,1.394,1.394,0,0,0,1.438-1.078A5.562,5.562,0,0,0,38.086-4.312Zm8.4-2.023a6.134,6.134,0,0,0-.812-.062,1.654,1.654,0,0,0-1.68.867V0H41.734V-8.453h2.133l.063,1.008a2.092,2.092,0,0,1,1.883-1.164,2.366,2.366,0,0,1,.7.1ZM51.461.156A4.15,4.15,0,0,1,48.434-.984a4.054,4.054,0,0,1-1.168-3.039v-.219a5.106,5.106,0,0,1,.492-2.277,3.612,3.612,0,0,1,1.395-1.547,3.914,3.914,0,0,1,2.059-.543,3.508,3.508,0,0,1,2.73,1.094,4.444,4.444,0,0,1,1,3.1v.922H49.555a2.1,2.1,0,0,0,.66,1.328,2,2,0,0,0,1.395.5,2.437,2.437,0,0,0,2.039-.945l1.109,1.242A3.389,3.389,0,0,1,53.383-.246,4.511,4.511,0,0,1,51.461.156ZM51.2-6.789a1.411,1.411,0,0,0-1.09.455,2.357,2.357,0,0,0-.535,1.3h3.141v-.181a1.681,1.681,0,0,0-.406-1.165A1.456,1.456,0,0,0,51.2-6.789ZM60.8-2.336a.727.727,0,0,0-.41-.652,4.659,4.659,0,0,0-1.316-.426q-3.016-.633-3.016-2.562a2.323,2.323,0,0,1,.934-1.879,3.766,3.766,0,0,1,2.441-.754A4.053,4.053,0,0,1,62-7.852a2.388,2.388,0,0,1,.965,1.969H60.711a1.092,1.092,0,0,0-.312-.8A1.322,1.322,0,0,0,59.422-7a1.351,1.351,0,0,0-.883.258.814.814,0,0,0-.312.656.7.7,0,0,0,.355.605,3.657,3.657,0,0,0,1.2.4A9.8,9.8,0,0,1,61.2-4.7,2.336,2.336,0,0,1,62.992-2.43,2.2,2.2,0,0,1,62-.559a4.28,4.28,0,0,1-2.562.715,4.47,4.47,0,0,1-1.887-.379,3.166,3.166,0,0,1-1.293-1.039,2.414,2.414,0,0,1-.469-1.426H57.93a1.179,1.179,0,0,0,.445.922,1.766,1.766,0,0,0,1.109.32,1.635,1.635,0,0,0,.98-.246A.766.766,0,0,0,60.8-2.336Z" transform="translate(-3100 -5607)" fill="#12263f"/>
    <path id="Trazado_883920" data-name="Trazado 883920" d="M5.766,0a2.507,2.507,0,0,1-.227-.758A2.732,2.732,0,0,1,3.406.156,3,3,0,0,1,1.348-.562,2.312,2.312,0,0,1,.531-2.375a2.389,2.389,0,0,1,1-2.062,4.915,4.915,0,0,1,2.879-.727H5.445v-.484a1.393,1.393,0,0,0-.3-.937A1.183,1.183,0,0,0,4.2-6.937a1.345,1.345,0,0,0-.895.273.929.929,0,0,0-.324.75H.719a2.268,2.268,0,0,1,.453-1.359,3,3,0,0,1,1.281-.98,4.669,4.669,0,0,1,1.859-.355,3.689,3.689,0,0,1,2.48.785,2.747,2.747,0,0,1,.918,2.207v3.664a4.041,4.041,0,0,0,.336,1.82V0ZM3.9-1.57a1.945,1.945,0,0,0,.922-.223,1.462,1.462,0,0,0,.625-.6V-3.844H4.6q-1.7,0-1.8,1.172l-.008.133a.9.9,0,0,0,.3.7A1.153,1.153,0,0,0,3.9-1.57ZM17.055-4.148a5.07,5.07,0,0,1-.887,3.129A2.843,2.843,0,0,1,13.773.156,2.633,2.633,0,0,1,11.7-.734V3.25H9.445v-11.7h2.094l.078.828a2.654,2.654,0,0,1,2.141-.984,2.862,2.862,0,0,1,2.43,1.156,5.207,5.207,0,0,1,.867,3.188ZM14.8-4.312a3.327,3.327,0,0,0-.418-1.82,1.361,1.361,0,0,0-1.215-.641,1.478,1.478,0,0,0-1.461.813V-2.5a1.5,1.5,0,0,0,1.477.836Q14.8-1.664,14.8-4.312ZM22.344.156A4.15,4.15,0,0,1,19.316-.984a4.054,4.054,0,0,1-1.168-3.039v-.219a5.106,5.106,0,0,1,.492-2.277,3.612,3.612,0,0,1,1.395-1.547,3.914,3.914,0,0,1,2.059-.543,3.508,3.508,0,0,1,2.73,1.094,4.444,4.444,0,0,1,1,3.1v.922H20.438a2.1,2.1,0,0,0,.66,1.328,2,2,0,0,0,1.395.5,2.437,2.437,0,0,0,2.039-.945l1.109,1.242A3.389,3.389,0,0,1,24.266-.246,4.511,4.511,0,0,1,22.344.156Zm-.258-6.945A1.411,1.411,0,0,0,21-6.334a2.357,2.357,0,0,0-.535,1.3H23.6v-.181A1.681,1.681,0,0,0,23.2-6.377,1.456,1.456,0,0,0,22.086-6.789ZM29.484,0H27.219V-12h2.266Zm4.242,0H31.461V-12h2.266Zm4.242,0H35.7V-8.453h2.266Zm-2.4-10.641a1.112,1.112,0,0,1,.34-.836,1.277,1.277,0,0,1,.926-.328,1.28,1.28,0,0,1,.922.328,1.105,1.105,0,0,1,.344.836,1.108,1.108,0,0,1-.348.844,1.283,1.283,0,0,1-.918.328,1.283,1.283,0,0,1-.918-.328A1.108,1.108,0,0,1,35.57-10.641Zm3.906,6.352a5.094,5.094,0,0,1,.887-3.148,2.877,2.877,0,0,1,2.426-1.172,2.589,2.589,0,0,1,2.039.922V-12h2.266V0H45.055l-.109-.9A2.657,2.657,0,0,1,42.773.156,2.869,2.869,0,0,1,40.379-1.02,5.258,5.258,0,0,1,39.477-4.289Zm2.258.168A3.337,3.337,0,0,0,42.148-2.3a1.349,1.349,0,0,0,1.2.634,1.511,1.511,0,0,0,1.477-.884V-5.889a1.489,1.489,0,0,0-1.461-.884Q41.734-6.773,41.734-4.121ZM48.492-4.3a5.013,5.013,0,0,1,.484-2.242A3.546,3.546,0,0,1,50.371-8.07a4.069,4.069,0,0,1,2.113-.539,3.849,3.849,0,0,1,2.793,1.047,4.2,4.2,0,0,1,1.207,2.844l.016.578A4.418,4.418,0,0,1,55.414-1.02,3.775,3.775,0,0,1,52.5.156a3.793,3.793,0,0,1-2.918-1.172A4.5,4.5,0,0,1,48.492-4.2Zm2.258.16A3.16,3.16,0,0,0,51.2-2.3a1.5,1.5,0,0,0,1.3.638,1.5,1.5,0,0,0,1.281-.63,3.457,3.457,0,0,0,.461-2.015,3.128,3.128,0,0,0-.461-1.831,1.5,1.5,0,0,0-1.3-.649,1.474,1.474,0,0,0-1.281.646A3.516,3.516,0,0,0,50.75-4.144ZM62.469-2.336a.727.727,0,0,0-.41-.652,4.659,4.659,0,0,0-1.316-.426q-3.016-.633-3.016-2.562a2.323,2.323,0,0,1,.934-1.879A3.766,3.766,0,0,1,61.1-8.609a4.053,4.053,0,0,1,2.574.758,2.388,2.388,0,0,1,.965,1.969H62.383a1.092,1.092,0,0,0-.312-.8A1.322,1.322,0,0,0,61.094-7a1.351,1.351,0,0,0-.883.258.814.814,0,0,0-.312.656.7.7,0,0,0,.355.605,3.657,3.657,0,0,0,1.2.4,9.8,9.8,0,0,1,1.422.379A2.336,2.336,0,0,1,64.664-2.43a2.2,2.2,0,0,1-.992,1.871,4.28,4.28,0,0,1-2.562.715,4.47,4.47,0,0,1-1.887-.379A3.166,3.166,0,0,1,57.93-1.262a2.414,2.414,0,0,1-.469-1.426H59.6a1.179,1.179,0,0,0,.445.922,1.766,1.766,0,0,0,1.109.32,1.635,1.635,0,0,0,.98-.246A.766.766,0,0,0,62.469-2.336Z" transform="translate(-3024 -5674)" fill="#12263f"/>
    <path id="Trazado_883931" data-name="Trazado 883931" d="M1.484,0V-6.8H.227V-8.453H1.484v-.719A2.918,2.918,0,0,1,2.3-11.379a3.162,3.162,0,0,1,2.285-.785,5.278,5.278,0,0,1,1.148.156l-.023,1.75a2.878,2.878,0,0,0-.687-.07q-1.273,0-1.273,1.2v.68H5.43V-6.8H3.75V0Zm9.008.156A4.15,4.15,0,0,1,7.465-.984,4.054,4.054,0,0,1,6.3-4.023v-.219A5.106,5.106,0,0,1,6.789-6.52,3.612,3.612,0,0,1,8.184-8.066a3.914,3.914,0,0,1,2.059-.543,3.508,3.508,0,0,1,2.73,1.094,4.444,4.444,0,0,1,1,3.1v.922H8.586a2.1,2.1,0,0,0,.66,1.328,2,2,0,0,0,1.395.5,2.437,2.437,0,0,0,2.039-.945l1.109,1.242A3.389,3.389,0,0,1,12.414-.246,4.511,4.511,0,0,1,10.492.156Zm-.258-6.945a1.411,1.411,0,0,0-1.09.455,2.357,2.357,0,0,0-.535,1.3H11.75v-.181a1.681,1.681,0,0,0-.406-1.165A1.456,1.456,0,0,0,10.234-6.789Zm8.531,5.125a1.481,1.481,0,0,0,1.016-.344,1.2,1.2,0,0,0,.406-.914H22.3a2.9,2.9,0,0,1-.469,1.574A3.093,3.093,0,0,1,20.574-.238,3.949,3.949,0,0,1,18.8.156,3.67,3.67,0,0,1,15.945-1,4.56,4.56,0,0,1,14.9-4.18v-.148a4.508,4.508,0,0,1,1.039-3.117,3.627,3.627,0,0,1,2.852-1.164,3.555,3.555,0,0,1,2.543.9A3.2,3.2,0,0,1,22.3-5.3H20.188a1.551,1.551,0,0,0-.406-1.072,1.354,1.354,0,0,0-1.031-.412,1.36,1.36,0,0,0-1.191.575,3.333,3.333,0,0,0-.4,1.866v.235a3.375,3.375,0,0,0,.4,1.878A1.377,1.377,0,0,0,18.766-1.664ZM25.8-7.531a2.818,2.818,0,0,1,2.258-1.078q2.75,0,2.789,3.2V0H28.586V-5.352a1.57,1.57,0,0,0-.312-1.074,1.34,1.34,0,0,0-1.039-.348,1.537,1.537,0,0,0-1.437.766V0H23.539V-12H25.8ZM37.445,0a2.507,2.507,0,0,1-.227-.758,2.732,2.732,0,0,1-2.133.914,3,3,0,0,1-2.059-.719,2.312,2.312,0,0,1-.816-1.812,2.389,2.389,0,0,1,1-2.062,4.915,4.915,0,0,1,2.879-.727h1.039v-.484a1.393,1.393,0,0,0-.3-.937,1.183,1.183,0,0,0-.949-.352,1.345,1.345,0,0,0-.895.273.929.929,0,0,0-.324.75H32.4a2.268,2.268,0,0,1,.453-1.359,3,3,0,0,1,1.281-.98,4.669,4.669,0,0,1,1.859-.355,3.689,3.689,0,0,1,2.48.785,2.747,2.747,0,0,1,.918,2.207v3.664a4.041,4.041,0,0,0,.336,1.82V0ZM35.578-1.57a1.945,1.945,0,0,0,.922-.223,1.462,1.462,0,0,0,.625-.6V-3.844h-.844q-1.7,0-1.8,1.172l-.008.133a.9.9,0,0,0,.3.7A1.153,1.153,0,0,0,35.578-1.57Zm11.8,3.336H40.266V0h7.117Zm4.4-3.43A1.481,1.481,0,0,0,52.8-2.008a1.2,1.2,0,0,0,.406-.914H55.32a2.9,2.9,0,0,1-.469,1.574A3.093,3.093,0,0,1,53.59-.238a3.949,3.949,0,0,1-1.77.395A3.67,3.67,0,0,1,48.961-1,4.56,4.56,0,0,1,47.914-4.18v-.148a4.508,4.508,0,0,1,1.039-3.117A3.627,3.627,0,0,1,51.8-8.609a3.555,3.555,0,0,1,2.543.9,3.2,3.2,0,0,1,.973,2.4H53.2A1.551,1.551,0,0,0,52.8-6.377a1.354,1.354,0,0,0-1.031-.412,1.36,1.36,0,0,0-1.191.575,3.333,3.333,0,0,0-.4,1.866v.235a3.375,3.375,0,0,0,.4,1.878A1.377,1.377,0,0,0,51.781-1.664Zm9.578-4.672a6.134,6.134,0,0,0-.812-.062,1.654,1.654,0,0,0-1.68.867V0H56.609V-8.453h2.133L58.8-7.445a2.092,2.092,0,0,1,1.883-1.164,2.366,2.366,0,0,1,.7.1ZM66.336.156A4.15,4.15,0,0,1,63.309-.984a4.054,4.054,0,0,1-1.168-3.039v-.219a5.106,5.106,0,0,1,.492-2.277,3.612,3.612,0,0,1,1.395-1.547,3.914,3.914,0,0,1,2.059-.543,3.508,3.508,0,0,1,2.73,1.094,4.444,4.444,0,0,1,1,3.1v.922H64.43a2.1,2.1,0,0,0,.66,1.328,2,2,0,0,0,1.395.5,2.437,2.437,0,0,0,2.039-.945l1.109,1.242A3.389,3.389,0,0,1,68.258-.246,4.511,4.511,0,0,1,66.336.156Zm-.258-6.945a1.411,1.411,0,0,0-1.09.455,2.357,2.357,0,0,0-.535,1.3h3.141v-.181a1.681,1.681,0,0,0-.406-1.165A1.456,1.456,0,0,0,66.078-6.789ZM75.992,0a2.507,2.507,0,0,1-.227-.758,2.732,2.732,0,0,1-2.133.914,3,3,0,0,1-2.059-.719,2.312,2.312,0,0,1-.816-1.812,2.389,2.389,0,0,1,1-2.062,4.915,4.915,0,0,1,2.879-.727h1.039v-.484a1.393,1.393,0,0,0-.3-.937,1.183,1.183,0,0,0-.949-.352,1.345,1.345,0,0,0-.895.273.929.929,0,0,0-.324.75H70.945A2.268,2.268,0,0,1,71.4-7.273a3,3,0,0,1,1.281-.98,4.669,4.669,0,0,1,1.859-.355,3.689,3.689,0,0,1,2.48.785,2.747,2.747,0,0,1,.918,2.207v3.664a4.041,4.041,0,0,0,.336,1.82V0ZM74.125-1.57a1.945,1.945,0,0,0,.922-.223,1.462,1.462,0,0,0,.625-.6V-3.844h-.844q-1.7,0-1.8,1.172l-.008.133a.9.9,0,0,0,.3.7A1.153,1.153,0,0,0,74.125-1.57Zm9.063-.094A1.481,1.481,0,0,0,84.2-2.008a1.2,1.2,0,0,0,.406-.914h2.117a2.9,2.9,0,0,1-.469,1.574A3.093,3.093,0,0,1,85-.238a3.949,3.949,0,0,1-1.77.395A3.67,3.67,0,0,1,80.367-1,4.56,4.56,0,0,1,79.32-4.18v-.148a4.508,4.508,0,0,1,1.039-3.117,3.627,3.627,0,0,1,2.852-1.164,3.555,3.555,0,0,1,2.543.9,3.2,3.2,0,0,1,.973,2.4H84.609A1.551,1.551,0,0,0,84.2-6.377a1.354,1.354,0,0,0-1.031-.412,1.36,1.36,0,0,0-1.191.575,3.333,3.333,0,0,0-.4,1.866v.235a3.375,3.375,0,0,0,.4,1.878A1.377,1.377,0,0,0,83.188-1.664ZM90.4,0H88.133V-8.453H90.4ZM88-10.641a1.112,1.112,0,0,1,.34-.836,1.277,1.277,0,0,1,.926-.328,1.28,1.28,0,0,1,.922.328,1.105,1.105,0,0,1,.344.836,1.108,1.108,0,0,1-.348.844,1.283,1.283,0,0,1-.918.328,1.283,1.283,0,0,1-.918-.328A1.108,1.108,0,0,1,88-10.641ZM91.906-4.3a5.013,5.013,0,0,1,.484-2.242A3.546,3.546,0,0,1,93.785-8.07,4.069,4.069,0,0,1,95.9-8.609a3.849,3.849,0,0,1,2.793,1.047A4.2,4.2,0,0,1,99.9-4.719l.016.578A4.418,4.418,0,0,1,98.828-1.02,3.775,3.775,0,0,1,95.914.156,3.793,3.793,0,0,1,93-1.016,4.5,4.5,0,0,1,91.906-4.2Zm2.258.16A3.16,3.16,0,0,0,94.617-2.3a1.5,1.5,0,0,0,1.3.638,1.5,1.5,0,0,0,1.281-.63,3.457,3.457,0,0,0,.461-2.015A3.128,3.128,0,0,0,97.2-6.14a1.5,1.5,0,0,0-1.3-.649,1.474,1.474,0,0,0-1.281.646A3.516,3.516,0,0,0,94.164-4.144ZM96.344-12H98.8L96.641-9.578H94.8Zm7.039,3.547.07.977a2.951,2.951,0,0,1,2.43-1.133,2.453,2.453,0,0,1,2,.789,3.682,3.682,0,0,1,.672,2.359V0H106.3V-5.406a1.465,1.465,0,0,0-.312-1.043,1.4,1.4,0,0,0-1.039-.324,1.553,1.553,0,0,0-1.43.813V0h-2.258V-8.453Z" transform="translate(-2816 -5129)" fill="#12263f"/>
    <path id="Trazado_883923" data-name="Trazado 883923" d="M4.758.156A4.15,4.15,0,0,1,1.73-.984,4.054,4.054,0,0,1,.563-4.023v-.219A5.106,5.106,0,0,1,1.055-6.52,3.612,3.612,0,0,1,2.449-8.066a3.914,3.914,0,0,1,2.059-.543,3.508,3.508,0,0,1,2.73,1.094,4.444,4.444,0,0,1,1,3.1v.922H2.852a2.1,2.1,0,0,0,.66,1.328,2,2,0,0,0,1.395.5,2.437,2.437,0,0,0,2.039-.945L8.055-1.367A3.389,3.389,0,0,1,6.68-.246,4.511,4.511,0,0,1,4.758.156ZM4.5-6.789a1.411,1.411,0,0,0-1.09.455,2.357,2.357,0,0,0-.535,1.3H6.016v-.181a1.681,1.681,0,0,0-.406-1.165A1.456,1.456,0,0,0,4.5-6.789Zm4.664,2.5a5.094,5.094,0,0,1,.887-3.148,2.877,2.877,0,0,1,2.426-1.172,2.589,2.589,0,0,1,2.039.922V-12h2.266V0H14.742l-.109-.9A2.657,2.657,0,0,1,12.461.156,2.869,2.869,0,0,1,10.066-1.02,5.258,5.258,0,0,1,9.164-4.289Zm2.258.168A3.337,3.337,0,0,0,11.836-2.3a1.349,1.349,0,0,0,1.2.634,1.511,1.511,0,0,0,1.477-.884V-5.889a1.489,1.489,0,0,0-1.461-.884Q11.422-6.773,11.422-4.121ZM23.43,0A2.507,2.507,0,0,1,23.2-.758,2.732,2.732,0,0,1,21.07.156a3,3,0,0,1-2.059-.719A2.312,2.312,0,0,1,18.2-2.375a2.389,2.389,0,0,1,1-2.062,4.915,4.915,0,0,1,2.879-.727h1.039v-.484a1.393,1.393,0,0,0-.3-.937,1.183,1.183,0,0,0-.949-.352,1.345,1.345,0,0,0-.895.273.929.929,0,0,0-.324.75H18.383a2.268,2.268,0,0,1,.453-1.359,3,3,0,0,1,1.281-.98,4.669,4.669,0,0,1,1.859-.355,3.689,3.689,0,0,1,2.48.785,2.747,2.747,0,0,1,.918,2.207v3.664a4.041,4.041,0,0,0,.336,1.82V0ZM21.563-1.57a1.945,1.945,0,0,0,.922-.223,1.462,1.462,0,0,0,.625-.6V-3.844h-.844q-1.7,0-1.8,1.172l-.008.133a.9.9,0,0,0,.3.7A1.153,1.153,0,0,0,21.563-1.57Zm5.2-2.719a5.094,5.094,0,0,1,.887-3.148A2.877,2.877,0,0,1,30.07-8.609a2.589,2.589,0,0,1,2.039.922V-12h2.266V0H32.336l-.109-.9A2.657,2.657,0,0,1,30.055.156,2.869,2.869,0,0,1,27.66-1.02,5.258,5.258,0,0,1,26.758-4.289Zm2.258.168A3.337,3.337,0,0,0,29.43-2.3a1.349,1.349,0,0,0,1.2.634,1.511,1.511,0,0,0,1.477-.884V-5.889a1.489,1.489,0,0,0-1.461-.884Q29.016-6.773,29.016-4.121Z" transform="translate(-2835 -5674)" fill="#12263f"/>
    <path id="Trazado_883934" data-name="Trazado 883934" d="M5.445-2.336a.727.727,0,0,0-.41-.652,4.659,4.659,0,0,0-1.316-.426Q.7-4.047.7-5.977a2.323,2.323,0,0,1,.934-1.879,3.766,3.766,0,0,1,2.441-.754,4.053,4.053,0,0,1,2.574.758,2.388,2.388,0,0,1,.965,1.969H5.359a1.092,1.092,0,0,0-.312-.8A1.322,1.322,0,0,0,4.07-7a1.351,1.351,0,0,0-.883.258.814.814,0,0,0-.312.656.7.7,0,0,0,.355.605,3.657,3.657,0,0,0,1.2.4A9.8,9.8,0,0,1,5.852-4.7,2.336,2.336,0,0,1,7.641-2.43,2.2,2.2,0,0,1,6.648-.559,4.28,4.28,0,0,1,4.086.156,4.47,4.47,0,0,1,2.2-.223,3.166,3.166,0,0,1,.906-1.262,2.414,2.414,0,0,1,.438-2.687H2.578a1.179,1.179,0,0,0,.445.922,1.766,1.766,0,0,0,1.109.32,1.635,1.635,0,0,0,.98-.246A.766.766,0,0,0,5.445-2.336ZM13.992,0a2.507,2.507,0,0,1-.227-.758,2.732,2.732,0,0,1-2.133.914A3,3,0,0,1,9.574-.562a2.312,2.312,0,0,1-.816-1.812,2.389,2.389,0,0,1,1-2.062,4.915,4.915,0,0,1,2.879-.727h1.039v-.484a1.393,1.393,0,0,0-.3-.937,1.183,1.183,0,0,0-.949-.352,1.345,1.345,0,0,0-.895.273.929.929,0,0,0-.324.75H8.945A2.268,2.268,0,0,1,9.4-7.273a3,3,0,0,1,1.281-.98,4.669,4.669,0,0,1,1.859-.355,3.689,3.689,0,0,1,2.48.785,2.747,2.747,0,0,1,.918,2.207v3.664a4.041,4.041,0,0,0,.336,1.82V0ZM12.125-1.57a1.945,1.945,0,0,0,.922-.223,1.462,1.462,0,0,0,.625-.6V-3.844h-.844q-1.7,0-1.8,1.172l-.008.133a.9.9,0,0,0,.3.7A1.153,1.153,0,0,0,12.125-1.57ZM20.055,0H17.789V-12h2.266Zm1.508-4.289a5.094,5.094,0,0,1,.887-3.148,2.877,2.877,0,0,1,2.426-1.172,2.589,2.589,0,0,1,2.039.922V-12H29.18V0H27.141l-.109-.9A2.657,2.657,0,0,1,24.859.156,2.869,2.869,0,0,1,22.465-1.02,5.258,5.258,0,0,1,21.563-4.289Zm2.258.168A3.337,3.337,0,0,0,24.234-2.3a1.349,1.349,0,0,0,1.2.634,1.511,1.511,0,0,0,1.477-.884V-5.889a1.489,1.489,0,0,0-1.461-.884Q23.82-6.773,23.82-4.121ZM30.578-4.3a5.013,5.013,0,0,1,.484-2.242A3.546,3.546,0,0,1,32.457-8.07a4.069,4.069,0,0,1,2.113-.539,3.849,3.849,0,0,1,2.793,1.047A4.2,4.2,0,0,1,38.57-4.719l.016.578A4.418,4.418,0,0,1,37.5-1.02,3.775,3.775,0,0,1,34.586.156a3.793,3.793,0,0,1-2.918-1.172A4.5,4.5,0,0,1,30.578-4.2Zm2.258.16A3.16,3.16,0,0,0,33.289-2.3a1.5,1.5,0,0,0,1.3.638,1.5,1.5,0,0,0,1.281-.63,3.457,3.457,0,0,0,.461-2.015,3.128,3.128,0,0,0-.461-1.831,1.5,1.5,0,0,0-1.3-.649,1.474,1.474,0,0,0-1.281.646A3.516,3.516,0,0,0,32.836-4.144Z" transform="translate(-2933 -5091)" fill="#12263f"/>
    <path id="Trazado_883927" data-name="Trazado 883927" d="M3.25,0H.984V-8.453H3.25ZM.852-10.641a1.112,1.112,0,0,1,.34-.836,1.277,1.277,0,0,1,.926-.328,1.28,1.28,0,0,1,.922.328,1.105,1.105,0,0,1,.344.836,1.108,1.108,0,0,1-.348.844,1.283,1.283,0,0,1-.918.328A1.283,1.283,0,0,1,1.2-9.8,1.108,1.108,0,0,1,.852-10.641ZM4.758-4.289a5.094,5.094,0,0,1,.887-3.148A2.877,2.877,0,0,1,8.07-8.609a2.589,2.589,0,0,1,2.039.922V-12h2.266V0H10.336l-.109-.9A2.657,2.657,0,0,1,8.055.156,2.869,2.869,0,0,1,5.66-1.02,5.258,5.258,0,0,1,4.758-4.289Zm2.258.168A3.337,3.337,0,0,0,7.43-2.3a1.349,1.349,0,0,0,1.2.634,1.511,1.511,0,0,0,1.477-.884V-5.889a1.489,1.489,0,0,0-1.461-.884Q7.016-6.773,7.016-4.121Zm11,4.277A4.15,4.15,0,0,1,14.988-.984,4.054,4.054,0,0,1,13.82-4.023v-.219a5.106,5.106,0,0,1,.492-2.277,3.612,3.612,0,0,1,1.395-1.547,3.914,3.914,0,0,1,2.059-.543A3.508,3.508,0,0,1,20.5-7.516a4.444,4.444,0,0,1,1,3.1v.922H16.109a2.1,2.1,0,0,0,.66,1.328,2,2,0,0,0,1.395.5A2.437,2.437,0,0,0,20.2-2.609l1.109,1.242A3.389,3.389,0,0,1,19.938-.246,4.511,4.511,0,0,1,18.016.156Zm-.258-6.945a1.411,1.411,0,0,0-1.09.455,2.357,2.357,0,0,0-.535,1.3h3.141v-.181a1.681,1.681,0,0,0-.406-1.165A1.456,1.456,0,0,0,17.758-6.789Zm7.094-1.664.07.977a2.951,2.951,0,0,1,2.43-1.133,2.453,2.453,0,0,1,2,.789,3.682,3.682,0,0,1,.672,2.359V0H27.766V-5.406a1.465,1.465,0,0,0-.312-1.043,1.4,1.4,0,0,0-1.039-.324,1.553,1.553,0,0,0-1.43.813V0H22.727V-8.453Zm9.586-2.078v2.078h1.445V-6.8H34.438v4.219a1.007,1.007,0,0,0,.18.672.9.9,0,0,0,.688.2,3.6,3.6,0,0,0,.664-.055V-.047a4.648,4.648,0,0,1-1.367.2,2.156,2.156,0,0,1-2.422-2.4V-6.8H30.945V-8.453H32.18v-2.078ZM39.523,0H37.258V-8.453h2.266Zm-2.4-10.641a1.112,1.112,0,0,1,.34-.836,1.277,1.277,0,0,1,.926-.328,1.28,1.28,0,0,1,.922.328,1.105,1.105,0,0,1,.344.836,1.108,1.108,0,0,1-.348.844,1.283,1.283,0,0,1-.918.328,1.283,1.283,0,0,1-.918-.328A1.108,1.108,0,0,1,37.125-10.641ZM41.93,0V-6.8H40.672V-8.453H41.93v-.391a3.17,3.17,0,0,1,.98-2.457,3.945,3.945,0,0,1,2.723-.863A9.031,9.031,0,0,1,48.2-11.7l-.328,1.867a10,10,0,0,0-1.187-.293,5.835,5.835,0,0,0-.906-.066Q44.2-10.2,44.2-8.8v.344h1.664V-6.8H44.2V0Zm7.32,0H46.984V-8.453H49.25Zm5.383-1.664a1.481,1.481,0,0,0,1.016-.344,1.2,1.2,0,0,0,.406-.914h2.117A2.9,2.9,0,0,1,57.7-1.348,3.093,3.093,0,0,1,56.441-.238a3.949,3.949,0,0,1-1.77.395A3.67,3.67,0,0,1,51.813-1,4.56,4.56,0,0,1,50.766-4.18v-.148A4.508,4.508,0,0,1,51.8-7.445a3.627,3.627,0,0,1,2.852-1.164,3.555,3.555,0,0,1,2.543.9,3.2,3.2,0,0,1,.973,2.4H56.055a1.551,1.551,0,0,0-.406-1.072,1.354,1.354,0,0,0-1.031-.412,1.36,1.36,0,0,0-1.191.575,3.333,3.333,0,0,0-.4,1.866v.235a3.375,3.375,0,0,0,.4,1.878A1.377,1.377,0,0,0,54.633-1.664ZM64.359,0a2.507,2.507,0,0,1-.227-.758A2.732,2.732,0,0,1,62,.156a3,3,0,0,1-2.059-.719,2.312,2.312,0,0,1-.816-1.812,2.389,2.389,0,0,1,1-2.062A4.915,4.915,0,0,1,63-5.164h1.039v-.484a1.393,1.393,0,0,0-.3-.937,1.183,1.183,0,0,0-.949-.352,1.345,1.345,0,0,0-.895.273.929.929,0,0,0-.324.75H59.313a2.268,2.268,0,0,1,.453-1.359,3,3,0,0,1,1.281-.98,4.669,4.669,0,0,1,1.859-.355,3.689,3.689,0,0,1,2.48.785A2.747,2.747,0,0,1,66.3-5.617v3.664a4.041,4.041,0,0,0,.336,1.82V0ZM62.492-1.57a1.945,1.945,0,0,0,.922-.223,1.462,1.462,0,0,0,.625-.6V-3.844H63.2q-1.7,0-1.8,1.172l-.008.133a.9.9,0,0,0,.3.7A1.153,1.153,0,0,0,62.492-1.57Zm9.063-.094a1.481,1.481,0,0,0,1.016-.344,1.2,1.2,0,0,0,.406-.914h2.117a2.9,2.9,0,0,1-.469,1.574A3.093,3.093,0,0,1,73.363-.238a3.949,3.949,0,0,1-1.77.395A3.67,3.67,0,0,1,68.734-1,4.56,4.56,0,0,1,67.688-4.18v-.148a4.508,4.508,0,0,1,1.039-3.117,3.627,3.627,0,0,1,2.852-1.164,3.555,3.555,0,0,1,2.543.9,3.2,3.2,0,0,1,.973,2.4H72.977a1.551,1.551,0,0,0-.406-1.072,1.354,1.354,0,0,0-1.031-.412,1.36,1.36,0,0,0-1.191.575,3.333,3.333,0,0,0-.4,1.866v.235a3.375,3.375,0,0,0,.4,1.878A1.377,1.377,0,0,0,71.555-1.664ZM78.766,0H76.5V-8.453h2.266Zm-2.4-10.641a1.112,1.112,0,0,1,.34-.836,1.277,1.277,0,0,1,.926-.328,1.28,1.28,0,0,1,.922.328,1.105,1.105,0,0,1,.344.836,1.108,1.108,0,0,1-.348.844,1.283,1.283,0,0,1-.918.328,1.283,1.283,0,0,1-.918-.328A1.108,1.108,0,0,1,76.367-10.641ZM80.273-4.3a5.013,5.013,0,0,1,.484-2.242A3.546,3.546,0,0,1,82.152-8.07a4.069,4.069,0,0,1,2.113-.539,3.849,3.849,0,0,1,2.793,1.047,4.2,4.2,0,0,1,1.207,2.844l.016.578A4.418,4.418,0,0,1,87.2-1.02,3.775,3.775,0,0,1,84.281.156a3.793,3.793,0,0,1-2.918-1.172A4.5,4.5,0,0,1,80.273-4.2Zm2.258.16A3.16,3.16,0,0,0,82.984-2.3a1.5,1.5,0,0,0,1.3.638,1.5,1.5,0,0,0,1.281-.63,3.457,3.457,0,0,0,.461-2.015,3.128,3.128,0,0,0-.461-1.831,1.5,1.5,0,0,0-1.3-.649,1.474,1.474,0,0,0-1.281.646A3.516,3.516,0,0,0,82.531-4.144ZM84.711-12h2.461L85.008-9.578H83.172ZM91.75-8.453l.07.977a2.951,2.951,0,0,1,2.43-1.133,2.453,2.453,0,0,1,2,.789,3.682,3.682,0,0,1,.672,2.359V0H94.664V-5.406a1.465,1.465,0,0,0-.312-1.043,1.4,1.4,0,0,0-1.039-.324,1.553,1.553,0,0,0-1.43.813V0H89.625V-8.453Z" transform="translate(-2782 -5607)" fill="#12263f"/>
    <path id="Trazado_883932" data-name="Trazado 883932" d="M2.945-8.453l.07.977a2.951,2.951,0,0,1,2.43-1.133,2.453,2.453,0,0,1,2,.789,3.682,3.682,0,0,1,.672,2.359V0H5.859V-5.406a1.465,1.465,0,0,0-.312-1.043,1.4,1.4,0,0,0-1.039-.324,1.553,1.553,0,0,0-1.43.813V0H.82V-8.453ZM14.891-.859A2.831,2.831,0,0,1,12.578.156,2.67,2.67,0,0,1,10.5-.625a3.335,3.335,0,0,1-.73-2.289V-8.453h2.258v5.467q0,1.322,1.2,1.322a1.63,1.63,0,0,0,1.578-.8V-8.453h2.266V0H14.953ZM13.883-12h2.461L14.18-9.578H12.344ZM20.9-8.453l.07.945a2.971,2.971,0,0,1,2.43-1.1A2.255,2.255,0,0,1,25.641-7.32,2.9,2.9,0,0,1,28.18-8.609a2.521,2.521,0,0,1,2.047.8A3.681,3.681,0,0,1,30.9-5.4V0H28.633V-5.391a1.61,1.61,0,0,0-.281-1.051,1.246,1.246,0,0,0-.992-.332,1.409,1.409,0,0,0-1.406.969L25.961,0H23.7V-5.383a1.59,1.59,0,0,0-.289-1.062,1.259,1.259,0,0,0-.984-.328,1.463,1.463,0,0,0-1.391.8V0H18.781V-8.453ZM36.523.156A4.15,4.15,0,0,1,33.5-.984a4.054,4.054,0,0,1-1.168-3.039v-.219A5.106,5.106,0,0,1,32.82-6.52a3.612,3.612,0,0,1,1.395-1.547,3.914,3.914,0,0,1,2.059-.543A3.508,3.508,0,0,1,39-7.516a4.444,4.444,0,0,1,1,3.1v.922H34.617a2.1,2.1,0,0,0,.66,1.328,2,2,0,0,0,1.395.5,2.437,2.437,0,0,0,2.039-.945L39.82-1.367A3.389,3.389,0,0,1,38.445-.246,4.511,4.511,0,0,1,36.523.156Zm-.258-6.945a1.411,1.411,0,0,0-1.09.455,2.357,2.357,0,0,0-.535,1.3h3.141v-.181a1.681,1.681,0,0,0-.406-1.165A1.456,1.456,0,0,0,36.266-6.789Zm9.766.453a6.134,6.134,0,0,0-.812-.062,1.654,1.654,0,0,0-1.68.867V0H41.281V-8.453h2.133l.063,1.008a2.092,2.092,0,0,1,1.883-1.164,2.366,2.366,0,0,1,.7.1ZM46.484-4.3a5.013,5.013,0,0,1,.484-2.242A3.546,3.546,0,0,1,48.363-8.07a4.069,4.069,0,0,1,2.113-.539A3.849,3.849,0,0,1,53.27-7.562a4.2,4.2,0,0,1,1.207,2.844l.016.578A4.418,4.418,0,0,1,53.406-1.02,3.775,3.775,0,0,1,50.492.156a3.793,3.793,0,0,1-2.918-1.172A4.5,4.5,0,0,1,46.484-4.2Zm2.258.16A3.16,3.16,0,0,0,49.2-2.3a1.5,1.5,0,0,0,1.3.638,1.5,1.5,0,0,0,1.281-.63,3.457,3.457,0,0,0,.461-2.015,3.128,3.128,0,0,0-.461-1.831,1.5,1.5,0,0,0-1.3-.649,1.474,1.474,0,0,0-1.281.646A3.516,3.516,0,0,0,48.742-4.144Zm13.4,5.91H55.023V0h7.117Zm4.4-3.43a1.481,1.481,0,0,0,1.016-.344,1.2,1.2,0,0,0,.406-.914h2.117a2.9,2.9,0,0,1-.469,1.574A3.093,3.093,0,0,1,68.348-.238a3.949,3.949,0,0,1-1.77.395A3.67,3.67,0,0,1,63.719-1,4.56,4.56,0,0,1,62.672-4.18v-.148a4.508,4.508,0,0,1,1.039-3.117,3.627,3.627,0,0,1,2.852-1.164,3.555,3.555,0,0,1,2.543.9,3.2,3.2,0,0,1,.973,2.4H67.961a1.551,1.551,0,0,0-.406-1.072,1.354,1.354,0,0,0-1.031-.412,1.36,1.36,0,0,0-1.191.575,3.333,3.333,0,0,0-.4,1.866v.235a3.375,3.375,0,0,0,.4,1.878A1.377,1.377,0,0,0,66.539-1.664Zm9.891.8A2.831,2.831,0,0,1,74.117.156a2.67,2.67,0,0,1-2.074-.781,3.335,3.335,0,0,1-.73-2.289V-8.453H73.57v5.467q0,1.322,1.2,1.322a1.63,1.63,0,0,0,1.578-.8V-8.453h2.266V0H76.492ZM84.211.156A4.15,4.15,0,0,1,81.184-.984a4.054,4.054,0,0,1-1.168-3.039v-.219a5.106,5.106,0,0,1,.492-2.277A3.612,3.612,0,0,1,81.9-8.066a3.914,3.914,0,0,1,2.059-.543,3.508,3.508,0,0,1,2.73,1.094,4.444,4.444,0,0,1,1,3.1v.922H82.3a2.1,2.1,0,0,0,.66,1.328,2,2,0,0,0,1.395.5A2.437,2.437,0,0,0,86.4-2.609l1.109,1.242A3.389,3.389,0,0,1,86.133-.246,4.511,4.511,0,0,1,84.211.156Zm-.258-6.945a1.411,1.411,0,0,0-1.09.455,2.357,2.357,0,0,0-.535,1.3h3.141v-.181a1.681,1.681,0,0,0-.406-1.165A1.456,1.456,0,0,0,83.953-6.789Zm7.094-1.664.07.977a2.951,2.951,0,0,1,2.43-1.133,2.453,2.453,0,0,1,2,.789,3.682,3.682,0,0,1,.672,2.359V0H93.961V-5.406a1.465,1.465,0,0,0-.312-1.043,1.4,1.4,0,0,0-1.039-.324,1.553,1.553,0,0,0-1.43.813V0H88.922V-8.453Zm9.586-2.078v2.078h1.445V-6.8h-1.445v4.219a1.007,1.007,0,0,0,.18.672.9.9,0,0,0,.688.2,3.6,3.6,0,0,0,.664-.055V-.047a4.648,4.648,0,0,1-1.367.2,2.156,2.156,0,0,1-2.422-2.4V-6.8H97.141V-8.453h1.234v-2.078ZM108.234,0a2.507,2.507,0,0,1-.227-.758,2.732,2.732,0,0,1-2.133.914,3,3,0,0,1-2.059-.719A2.312,2.312,0,0,1,103-2.375a2.389,2.389,0,0,1,1-2.062,4.915,4.915,0,0,1,2.879-.727h1.039v-.484a1.393,1.393,0,0,0-.3-.937,1.183,1.183,0,0,0-.949-.352,1.345,1.345,0,0,0-.895.273.929.929,0,0,0-.324.75h-2.258a2.268,2.268,0,0,1,.453-1.359,3,3,0,0,1,1.281-.98,4.669,4.669,0,0,1,1.859-.355,3.689,3.689,0,0,1,2.48.785,2.747,2.747,0,0,1,.918,2.207v3.664a4.041,4.041,0,0,0,.336,1.82V0Zm-1.867-1.57a1.945,1.945,0,0,0,.922-.223,1.462,1.462,0,0,0,.625-.6V-3.844h-.844q-1.7,0-1.8,1.172l-.008.133a.9.9,0,0,0,.3.7A1.153,1.153,0,0,0,106.367-1.57Z" transform="translate(-3104 -5129)" fill="#12263f"/>
    <g id="Grupo_1102276" data-name="Grupo 1102276" transform="translate(-1079.25 3700.25)">
      <g id="Grupo_1101117" data-name="Grupo 1101117" transform="translate(-1944.727 -8861.75) rotate(-90)">
        <path id="Sustracción_1-2" data-name="Sustracción 1" d="M226.461,93H0a115.476,115.476,0,0,1,226.461,0Z" transform="translate(0 226.461) rotate(-90)" fill="#f3d457"/>
        <path id="Trazado_883910" data-name="Trazado 883910" d="M86.5,0C134.273,0,173,38.951,173,87s-38.727,87-86.5,87S0,135.049,0,87,38.727,0,86.5,0Z" transform="translate(30 198.357) rotate(-90)" fill="#f2f6ff"/>
      </g>
      <line id="Línea_875" data-name="Línea 875" y1="55" x2="63.5" transform="translate(-1745.75 -8969.75) rotate(90)" fill="none" stroke="#d1b132" stroke-linecap="round" stroke-width="2"/>
      <line id="Línea_876" data-name="Línea 876" x2="73.5" transform="translate(-1830.75 -8940.75) rotate(90)" fill="none" stroke="#d1b132" stroke-linecap="round" stroke-width="2"/>
      <line id="Línea_877" data-name="Línea 877" x2="67.5" y2="54" transform="translate(-1860.75 -8969.75) rotate(90)" fill="none" stroke="#d1b132" stroke-linecap="round" stroke-width="2"/>
      <g id="Rectángulo_401592" data-name="Rectángulo 401592" transform="translate(-1906.25 -8997)" fill="#f2f6ff" stroke="#aec4fa" stroke-width="5">
        <rect width="154" height="60" stroke="none"/>
        <rect x="2.5" y="2.5" width="149" height="55" fill="none"/>
      </g>
      <text id="Cuenta" transform="translate(-1856.25 -8961)" fill="#12263f" font-size="16" font-family="Roboto-Bold, Roboto" font-weight="700"><tspan x="0" y="0">Cuenta</tspan></text>
      <g id="Rectángulo_401595" data-name="Rectángulo 401595" transform="translate(-1914.75 -9001.922)" fill="none" stroke="#a854f3" stroke-width="1" stroke-dasharray="2">
        <rect width="169" height="69.844" stroke="none"/>
        <rect x="0.5" y="0.5" width="168" height="68.844" fill="none"/>
      </g>
      <g id="Grupo_1101122" data-name="Grupo 1101122" transform="translate(5936.75 -9452.75) rotate(90)">
        <circle id="Elipse_11511-5" data-name="Elipse 11511" cx="10.5" cy="10.5" r="10.5" transform="translate(536 7672)" fill="#d1b132"/>
        <circle id="Elipse_11515-5" data-name="Elipse 11515" cx="5.5" cy="5.5" r="5.5" transform="translate(541 7677)" fill="#95802c"/>
      </g>
      <g id="Grupo_1101125" data-name="Grupo 1101125" transform="translate(5850.75 -9413.75) rotate(90)">
        <circle id="Elipse_11511-6" data-name="Elipse 11511" cx="10.5" cy="10.5" r="10.5" transform="translate(536 7672)" fill="#d1b132"/>
        <circle id="Elipse_11515-6" data-name="Elipse 11515" cx="5.5" cy="5.5" r="5.5" transform="translate(541 7677)" fill="#95802c"/>
      </g>
      <g id="Grupo_1101126" data-name="Grupo 1101126" transform="translate(5767.75 -9448.75) rotate(90)">
        <circle id="Elipse_11511-7" data-name="Elipse 11511" cx="10.5" cy="10.5" r="10.5" transform="translate(536 7672)" fill="#d1b132"/>
        <circle id="Elipse_11515-7" data-name="Elipse 11515" cx="5.5" cy="5.5" r="5.5" transform="translate(541 7677)" fill="#95802c"/>
      </g>
      <line id="Línea_895" data-name="Línea 895" y2="47" transform="translate(-1957.75 -8903.75)" fill="none" stroke="#a854f3" stroke-width="1" stroke-dasharray="2"/>
      <line id="Línea_1091" data-name="Línea 1091" y2="47" transform="translate(-1695.765 -8903.75)" fill="none" stroke="#a854f3" stroke-width="1" stroke-dasharray="2"/>
      <line id="Línea_893" data-name="Línea 893" x2="48" transform="translate(-1832.75 -8867.25) rotate(90)" fill="none" stroke="#a854f3" stroke-width="1" stroke-dasharray="2"/>
      <line id="Línea_894" data-name="Línea 894" y2="43" transform="translate(-1914.75 -8903.75) rotate(90)" fill="none" stroke="#a854f3" stroke-width="1" stroke-dasharray="2"/>
      <line id="Línea_1092" data-name="Línea 1092" y2="43" transform="translate(-1697.765 -8903.75) rotate(90)" fill="none" stroke="#a854f3" stroke-width="1" stroke-dasharray="2"/>
    </g>
    <g id="Trazado_883924" data-name="Trazado 883924" transform="translate(-2985.899 -5395.568) rotate(-45)" fill="none" stroke-dasharray="2">
      <path d="M0,0H113.748V113.748H0Z" stroke="none"/>
      <path d="M 0 0 L 2 0 L 2 1 L 1 1 L 1 2.99224853515625 L 0 2.99224853515625 L 0 0 Z M 4 0 L 6 0 L 6 1 L 4 1 L 4 0 Z M 8 0 L 10 0 L 10 1 L 8 1 L 8 0 Z M 12 0 L 14 0 L 14 1 L 12 1 L 12 0 Z M 16 0 L 18 0 L 18 1 L 16 1 L 16 0 Z M 20 0 L 22 0 L 22 1 L 20 1 L 20 0 Z M 24 0 L 26 0 L 26 1 L 24 1 L 24 0 Z M 28 0 L 30 0 L 30 1 L 28 1 L 28 0 Z M 32 0 L 34 0 L 34 1 L 32 1 L 32 0 Z M 36 0 L 38 0 L 38 1 L 36 1 L 36 0 Z M 40 0 L 42 0 L 42 1 L 40 1 L 40 0 Z M 44 0 L 46 0 L 46 1 L 44 1 L 44 0 Z M 48 0 L 50 0 L 50 1 L 48 1 L 48 0 Z M 52 0 L 54 0 L 54 1 L 52 1 L 52 0 Z M 56 0 L 58 0 L 58 1 L 56 1 L 56 0 Z M 60 0 L 62 0 L 62 1 L 60 1 L 60 0 Z M 64 0 L 66 0 L 66 1 L 64 1 L 64 0 Z M 68 0 L 70 0 L 70 1 L 68 1 L 68 0 Z M 72 0 L 74 0 L 74 1 L 72 1 L 72 0 Z M 76 0 L 78 0 L 78 1 L 76 1 L 76 0 Z M 80 0 L 82 0 L 82 1 L 80 1 L 80 0 Z M 84 0 L 86 0 L 86 1 L 84 1 L 84 0 Z M 88 0 L 90 0 L 90 1 L 88 1 L 88 0 Z M 92 0 L 94 0 L 94 1 L 92 1 L 92 0 Z M 96 0 L 98 0 L 98 1 L 96 1 L 96 0 Z M 100 0 L 102 0 L 102 1 L 100 1 L 100 0 Z M 104 0 L 106 0 L 106 1 L 104 1 L 104 0 Z M 108 0 L 110 0 L 110 1 L 108 1 L 108 0 Z M 112 0 L 113.7480621337891 0 L 113.7480621337891 1 L 112 1 L 112 0 Z M 112.7480621337891 2.251937866210938 L 113.7480621337891 2.251937866210938 C 113.7480621337891 2.251937866210938 113.7480621337891 4.251937866210938 113.7480621337891 4.251937866210938 L 112.7480621337891 4.251937866210938 L 112.7480621337891 2.251937866210938 Z M 112.7480621337891 6.251937866210938 L 113.7480621337891 6.251937866210938 C 113.7480621337891 6.251937866210938 113.7480621337891 8.251937866210938 113.7480621337891 8.251937866210938 L 112.7480621337891 8.251937866210938 L 112.7480621337891 6.251937866210938 Z M 112.7480621337891 10.25193786621094 L 113.7480621337891 10.25193786621094 C 113.7480621337891 10.25193786621094 113.7480621337891 12.25193786621094 113.7480621337891 12.25193786621094 L 112.7480621337891 12.25193786621094 L 112.7480621337891 10.25193786621094 Z M 112.7480621337891 14.25193786621094 L 113.7480621337891 14.25193786621094 C 113.7480621337891 14.25193786621094 113.7480621337891 16.25193786621094 113.7480621337891 16.25193786621094 L 112.7480621337891 16.25193786621094 L 112.7480621337891 14.25193786621094 Z M 112.7480621337891 18.25193786621094 L 113.7480621337891 18.25193786621094 C 113.7480621337891 18.25193786621094 113.7480621337891 20.25193786621094 113.7480621337891 20.25193786621094 L 112.7480621337891 20.25193786621094 L 112.7480621337891 18.25193786621094 Z M 112.7480621337891 22.25193786621094 L 113.7480621337891 22.25193786621094 C 113.7480621337891 22.25193786621094 113.7480621337891 24.25193786621094 113.7480621337891 24.25193786621094 L 112.7480621337891 24.25193786621094 L 112.7480621337891 22.25193786621094 Z M 112.7480621337891 26.25193786621094 L 113.7480621337891 26.25193786621094 C 113.7480621337891 26.25193786621094 113.7480621337891 28.25193786621094 113.7480621337891 28.25193786621094 L 112.7480621337891 28.25193786621094 L 112.7480621337891 26.25193786621094 Z M 112.7480621337891 30.25193786621094 L 113.7480621337891 30.25193786621094 C 113.7480621337891 30.25193786621094 113.7480621337891 32.25193786621094 113.7480621337891 32.25193786621094 L 112.7480621337891 32.25193786621094 L 112.7480621337891 30.25193786621094 Z M 112.7480621337891 34.25193786621094 L 113.7480621337891 34.25193786621094 C 113.7480621337891 34.25193786621094 113.7480621337891 36.25193786621094 113.7480621337891 36.25193786621094 L 112.7480621337891 36.25193786621094 L 112.7480621337891 34.25193786621094 Z M 112.7480621337891 38.25193786621094 L 113.7480621337891 38.25193786621094 C 113.7480621337891 38.25193786621094 113.7480621337891 40.25193786621094 113.7480621337891 40.25193786621094 L 112.7480621337891 40.25193786621094 L 112.7480621337891 38.25193786621094 Z M 112.7480621337891 42.25193786621094 L 113.7480621337891 42.25193786621094 C 113.7480621337891 42.25193786621094 113.7480621337891 44.25193786621094 113.7480621337891 44.25193786621094 L 112.7480621337891 44.25193786621094 L 112.7480621337891 42.25193786621094 Z M 112.7480621337891 46.25193786621094 L 113.7480621337891 46.25193786621094 C 113.7480621337891 46.25193786621094 113.7480621337891 48.25193786621094 113.7480621337891 48.25193786621094 L 112.7480621337891 48.25193786621094 L 112.7480621337891 46.25193786621094 Z M 112.7480621337891 50.25193786621094 L 113.7480621337891 50.25193786621094 C 113.7480621337891 50.25193786621094 113.7480621337891 52.25193786621094 113.7480621337891 52.25193786621094 L 112.7480621337891 52.25193786621094 L 112.7480621337891 50.25193786621094 Z M 112.7480621337891 54.25193786621094 L 113.7480621337891 54.25193786621094 C 113.7480621337891 54.25193786621094 113.7480621337891 56.25193786621094 113.7480621337891 56.25193786621094 L 112.7480621337891 56.25193786621094 L 112.7480621337891 54.25193786621094 Z M 112.7480621337891 58.25193786621094 L 113.7480621337891 58.25193786621094 C 113.7480621337891 58.25193786621094 113.7480621337891 60.25193786621094 113.7480621337891 60.25193786621094 L 112.7480621337891 60.25193786621094 L 112.7480621337891 58.25193786621094 Z M 112.7480621337891 62.25193786621094 L 113.7480621337891 62.25193786621094 C 113.7480621337891 62.25193786621094 113.7480621337891 64.25193786621094 113.7480621337891 64.25193786621094 L 112.7480621337891 64.25193786621094 L 112.7480621337891 62.25193786621094 Z M 112.7480621337891 66.25193786621094 L 113.7480621337891 66.25193786621094 C 113.7480621337891 66.25193786621094 113.7480621337891 68.25193786621094 113.7480621337891 68.25193786621094 L 112.7480621337891 68.25193786621094 L 112.7480621337891 66.25193786621094 Z M 112.7480621337891 70.25193786621094 L 113.7480621337891 70.25193786621094 C 113.7480621337891 70.25193786621094 113.7480621337891 72.25193786621094 113.7480621337891 72.25193786621094 L 112.7480621337891 72.25193786621094 L 112.7480621337891 70.25193786621094 Z M 112.7480621337891 74.25193786621094 L 113.7480621337891 74.25193786621094 C 113.7480621337891 74.25193786621094 113.7480621337891 76.25193786621094 113.7480621337891 76.25193786621094 L 112.7480621337891 76.25193786621094 L 112.7480621337891 74.25193786621094 Z M 112.7480621337891 78.25193786621094 L 113.7480621337891 78.25193786621094 C 113.7480621337891 78.25193786621094 113.7480621337891 80.25193786621094 113.7480621337891 80.25193786621094 L 112.7480621337891 80.25193786621094 L 112.7480621337891 78.25193786621094 Z M 112.7480621337891 82.25193786621094 L 113.7480621337891 82.25193786621094 C 113.7480621337891 82.25193786621094 113.7480621337891 84.25193786621094 113.7480621337891 84.25193786621094 L 112.7480621337891 84.25193786621094 L 112.7480621337891 82.25193786621094 Z M 112.7480621337891 86.25193786621094 L 113.7480621337891 86.25193786621094 C 113.7480621337891 86.25193786621094 113.7480621337891 88.25193786621094 113.7480621337891 88.25193786621094 L 112.7480621337891 88.25193786621094 L 112.7480621337891 86.25193786621094 Z M 112.7480621337891 90.25193786621094 L 113.7480621337891 90.25193786621094 C 113.7480621337891 90.25193786621094 113.7480621337891 92.25193786621094 113.7480621337891 92.25193786621094 L 112.7480621337891 92.25193786621094 L 112.7480621337891 90.25193786621094 Z M 112.7480621337891 94.25193786621094 L 113.7480621337891 94.25193786621094 C 113.7480621337891 94.25193786621094 113.7480621337891 96.25193786621094 113.7480621337891 96.25193786621094 L 112.7480621337891 96.25193786621094 L 112.7480621337891 94.25193786621094 Z M 112.7480621337891 98.25193786621094 L 113.7480621337891 98.25193786621094 C 113.7480621337891 98.25193786621094 113.7480621337891 100.2519378662109 113.7480621337891 100.2519378662109 L 112.7480621337891 100.2519378662109 L 112.7480621337891 98.25193786621094 Z M 112.7480621337891 102.2519378662109 L 113.7480621337891 102.2519378662109 C 113.7480621337891 102.2519378662109 113.7480621337891 104.2519378662109 113.7480621337891 104.2519378662109 L 112.7480621337891 104.2519378662109 L 112.7480621337891 102.2519378662109 Z M 112.7480621337891 106.2519378662109 L 113.7480621337891 106.2519378662109 C 113.7480621337891 106.2519378662109 113.7480621337891 108.2519378662109 113.7480621337891 108.2519378662109 L 112.7480621337891 108.2519378662109 L 112.7480621337891 106.2519378662109 Z M 112.7480621337891 110.2519378662109 L 113.7480621337891 110.2519378662109 C 113.7480621337891 110.2519378662109 113.7480621337891 112.2519378662109 113.7480621337891 112.2519378662109 L 112.7480621337891 112.2519378662109 L 112.7480621337891 110.2519378662109 Z M 111.2441864013672 112.7480621337891 L 113.2441864013672 112.7480621337891 L 113.2441864013672 113.7480621337891 C 113.2441864013672 113.7480621337891 111.2441864013672 113.7480621337891 111.2441864013672 113.7480621337891 L 111.2441864013672 112.7480621337891 Z M 107.2441864013672 112.7480621337891 L 109.2441864013672 112.7480621337891 L 109.2441864013672 113.7480621337891 C 109.2441864013672 113.7480621337891 107.2441864013672 113.7480621337891 107.2441864013672 113.7480621337891 L 107.2441864013672 112.7480621337891 Z M 103.2441864013672 112.7480621337891 L 105.2441864013672 112.7480621337891 L 105.2441864013672 113.7480621337891 C 105.2441864013672 113.7480621337891 103.2441864013672 113.7480621337891 103.2441864013672 113.7480621337891 L 103.2441864013672 112.7480621337891 Z M 99.24418640136719 112.7480621337891 L 101.2441864013672 112.7480621337891 L 101.2441864013672 113.7480621337891 C 101.2441864013672 113.7480621337891 99.24418640136719 113.7480621337891 99.24418640136719 113.7480621337891 L 99.24418640136719 112.7480621337891 Z M 95.24418640136719 112.7480621337891 L 97.24418640136719 112.7480621337891 L 97.24418640136719 113.7480621337891 C 97.24418640136719 113.7480621337891 95.24418640136719 113.7480621337891 95.24418640136719 113.7480621337891 L 95.24418640136719 112.7480621337891 Z M 91.24418640136719 112.7480621337891 L 93.24418640136719 112.7480621337891 L 93.24418640136719 113.7480621337891 C 93.24418640136719 113.7480621337891 91.24418640136719 113.7480621337891 91.24418640136719 113.7480621337891 L 91.24418640136719 112.7480621337891 Z M 87.24418640136719 112.7480621337891 L 89.24418640136719 112.7480621337891 L 89.24418640136719 113.7480621337891 C 89.24418640136719 113.7480621337891 87.24418640136719 113.7480621337891 87.24418640136719 113.7480621337891 L 87.24418640136719 112.7480621337891 Z M 83.24418640136719 112.7480621337891 L 85.24418640136719 112.7480621337891 L 85.24418640136719 113.7480621337891 C 85.24418640136719 113.7480621337891 83.24418640136719 113.7480621337891 83.24418640136719 113.7480621337891 L 83.24418640136719 112.7480621337891 Z M 79.24418640136719 112.7480621337891 L 81.24418640136719 112.7480621337891 L 81.24418640136719 113.7480621337891 C 81.24418640136719 113.7480621337891 79.24418640136719 113.7480621337891 79.24418640136719 113.7480621337891 L 79.24418640136719 112.7480621337891 Z M 75.24418640136719 112.7480621337891 L 77.24418640136719 112.7480621337891 L 77.24418640136719 113.7480621337891 C 77.24418640136719 113.7480621337891 75.24418640136719 113.7480621337891 75.24418640136719 113.7480621337891 L 75.24418640136719 112.7480621337891 Z M 71.24418640136719 112.7480621337891 L 73.24418640136719 112.7480621337891 L 73.24418640136719 113.7480621337891 C 73.24418640136719 113.7480621337891 71.24418640136719 113.7480621337891 71.24418640136719 113.7480621337891 L 71.24418640136719 112.7480621337891 Z M 67.24418640136719 112.7480621337891 L 69.24418640136719 112.7480621337891 L 69.24418640136719 113.7480621337891 C 69.24418640136719 113.7480621337891 67.24418640136719 113.7480621337891 67.24418640136719 113.7480621337891 L 67.24418640136719 112.7480621337891 Z M 63.24418640136719 112.7480621337891 L 65.24418640136719 112.7480621337891 L 65.24418640136719 113.7480621337891 C 65.24418640136719 113.7480621337891 63.24418640136719 113.7480621337891 63.24418640136719 113.7480621337891 L 63.24418640136719 112.7480621337891 Z M 59.24418640136719 112.7480621337891 L 61.24418640136719 112.7480621337891 L 61.24418640136719 113.7480621337891 C 61.24418640136719 113.7480621337891 59.24418640136719 113.7480621337891 59.24418640136719 113.7480621337891 L 59.24418640136719 112.7480621337891 Z M 55.24418640136719 112.7480621337891 L 57.24418640136719 112.7480621337891 L 57.24418640136719 113.7480621337891 C 57.24418640136719 113.7480621337891 55.24418640136719 113.7480621337891 55.24418640136719 113.7480621337891 L 55.24418640136719 112.7480621337891 Z M 51.24418640136719 112.7480621337891 L 53.24418640136719 112.7480621337891 L 53.24418640136719 113.7480621337891 C 53.24418640136719 113.7480621337891 51.24418640136719 113.7480621337891 51.24418640136719 113.7480621337891 L 51.24418640136719 112.7480621337891 Z M 47.24418640136719 112.7480621337891 L 49.24418640136719 112.7480621337891 L 49.24418640136719 113.7480621337891 C 49.24418640136719 113.7480621337891 47.24418640136719 113.7480621337891 47.24418640136719 113.7480621337891 L 47.24418640136719 112.7480621337891 Z M 43.24418640136719 112.7480621337891 L 45.24418640136719 112.7480621337891 L 45.24418640136719 113.7480621337891 C 45.24418640136719 113.7480621337891 43.24418640136719 113.7480621337891 43.24418640136719 113.7480621337891 L 43.24418640136719 112.7480621337891 Z M 39.24418640136719 112.7480621337891 L 41.24418640136719 112.7480621337891 L 41.24418640136719 113.7480621337891 C 41.24418640136719 113.7480621337891 39.24418640136719 113.7480621337891 39.24418640136719 113.7480621337891 L 39.24418640136719 112.7480621337891 Z M 35.24418640136719 112.7480621337891 L 37.24418640136719 112.7480621337891 L 37.24418640136719 113.7480621337891 C 37.24418640136719 113.7480621337891 35.24418640136719 113.7480621337891 35.24418640136719 113.7480621337891 L 35.24418640136719 112.7480621337891 Z M 31.24418640136719 112.7480621337891 L 33.24418640136719 112.7480621337891 L 33.24418640136719 113.7480621337891 C 33.24418640136719 113.7480621337891 31.24418640136719 113.7480621337891 31.24418640136719 113.7480621337891 L 31.24418640136719 112.7480621337891 Z M 27.24418640136719 112.7480621337891 L 29.24418640136719 112.7480621337891 L 29.24418640136719 113.7480621337891 C 29.24418640136719 113.7480621337891 27.24418640136719 113.7480621337891 27.24418640136719 113.7480621337891 L 27.24418640136719 112.7480621337891 Z M 23.24418640136719 112.7480621337891 L 25.24418640136719 112.7480621337891 L 25.24418640136719 113.7480621337891 C 25.24418640136719 113.7480621337891 23.24418640136719 113.7480621337891 23.24418640136719 113.7480621337891 L 23.24418640136719 112.7480621337891 Z M 19.24418640136719 112.7480621337891 L 21.24418640136719 112.7480621337891 L 21.24418640136719 113.7480621337891 C 21.24418640136719 113.7480621337891 19.24418640136719 113.7480621337891 19.24418640136719 113.7480621337891 L 19.24418640136719 112.7480621337891 Z M 15.24418640136719 112.7480621337891 L 17.24418640136719 112.7480621337891 L 17.24418640136719 113.7480621337891 C 17.24418640136719 113.7480621337891 15.24418640136719 113.7480621337891 15.24418640136719 113.7480621337891 L 15.24418640136719 112.7480621337891 Z M 11.24418640136719 112.7480621337891 L 13.24418640136719 112.7480621337891 L 13.24418640136719 113.7480621337891 C 13.24418640136719 113.7480621337891 11.24418640136719 113.7480621337891 11.24418640136719 113.7480621337891 L 11.24418640136719 112.7480621337891 Z M 7.244186401367188 112.7480621337891 L 9.244186401367188 112.7480621337891 L 9.244186401367188 113.7480621337891 C 9.244186401367188 113.7480621337891 7.244186401367188 113.7480621337891 7.244186401367188 113.7480621337891 L 7.244186401367188 112.7480621337891 Z M 3.244186401367188 112.7480621337891 L 5.244186401367188 112.7480621337891 L 5.244186401367188 113.7480621337891 C 5.244186401367188 113.7480621337891 3.244186401367188 113.7480621337891 3.244186401367188 113.7480621337891 L 3.244186401367188 112.7480621337891 Z M 0 112.7480621337891 L 1.244186401367188 112.7480621337891 L 1.244186401367188 113.7480621337891 C 1.244186401367188 113.7480621337891 0 113.7480621337891 0 113.7480621337891 L 0 112.7480621337891 Z M 0 108.9922485351562 L 1 108.9922485351562 L 1 110.9922485351562 L 0 110.9922485351562 L 0 108.9922485351562 Z M 0 104.9922485351562 L 1 104.9922485351562 L 1 106.9922485351562 L 0 106.9922485351562 L 0 104.9922485351562 Z M 0 100.9922485351562 L 1 100.9922485351562 L 1 102.9922485351562 L 0 102.9922485351562 L 0 100.9922485351562 Z M 0 96.99224853515625 L 1 96.99224853515625 L 1 98.99224853515625 L 0 98.99224853515625 L 0 96.99224853515625 Z M 0 92.99224853515625 L 1 92.99224853515625 L 1 94.99224853515625 L 0 94.99224853515625 L 0 92.99224853515625 Z M 0 88.99224853515625 L 1 88.99224853515625 L 1 90.99224853515625 L 0 90.99224853515625 L 0 88.99224853515625 Z M 0 84.99224853515625 L 1 84.99224853515625 L 1 86.99224853515625 L 0 86.99224853515625 L 0 84.99224853515625 Z M 0 80.99224853515625 L 1 80.99224853515625 L 1 82.99224853515625 L 0 82.99224853515625 L 0 80.99224853515625 Z M 0 76.99224853515625 L 1 76.99224853515625 L 1 78.99224853515625 L 0 78.99224853515625 L 0 76.99224853515625 Z M 0 72.99224853515625 L 1 72.99224853515625 L 1 74.99224853515625 L 0 74.99224853515625 L 0 72.99224853515625 Z M 0 68.99224853515625 L 1 68.99224853515625 L 1 70.99224853515625 L 0 70.99224853515625 L 0 68.99224853515625 Z M 0 64.99224853515625 L 1 64.99224853515625 L 1 66.99224853515625 L 0 66.99224853515625 L 0 64.99224853515625 Z M 0 60.99224472045898 L 1 60.99224472045898 L 1 62.99224472045898 L 0 62.99224472045898 L 0 60.99224472045898 Z M 0 56.99224472045898 L 1 56.99224472045898 L 1 58.99224472045898 L 0 58.99224472045898 L 0 56.99224472045898 Z M 0 52.99224472045898 L 1 52.99224472045898 L 1 54.99224472045898 L 0 54.99224472045898 L 0 52.99224472045898 Z M 0 48.99224853515625 L 1 48.99224853515625 L 1 50.99224472045898 L 0 50.99224472045898 L 0 48.99224853515625 Z M 0 44.99224853515625 L 1 44.99224853515625 L 1 46.99224853515625 L 0 46.99224853515625 L 0 44.99224853515625 Z M 0 40.99224853515625 L 1 40.99224853515625 L 1 42.99224853515625 L 0 42.99224853515625 L 0 40.99224853515625 Z M 0 36.99224853515625 L 1 36.99224853515625 L 1 38.99224853515625 L 0 38.99224853515625 L 0 36.99224853515625 Z M 0 32.99224853515625 L 1 32.99224853515625 L 1 34.99224853515625 L 0 34.99224853515625 L 0 32.99224853515625 Z M 0 28.99224853515625 L 1 28.99224853515625 L 1 30.99224853515625 L 0 30.99224853515625 L 0 28.99224853515625 Z M 0 24.99224853515625 L 1 24.99224853515625 L 1 26.99224853515625 L 0 26.99224853515625 L 0 24.99224853515625 Z M 0 20.99224853515625 L 1 20.99224853515625 L 1 22.99224853515625 L 0 22.99224853515625 L 0 20.99224853515625 Z M 0 16.99224853515625 L 1 16.99224853515625 L 1 18.99224853515625 L 0 18.99224853515625 L 0 16.99224853515625 Z M 0 12.99224853515625 L 1 12.99224853515625 L 1 14.99224853515625 L 0 14.99224853515625 L 0 12.99224853515625 Z M 0 8.99224853515625 L 1 8.99224853515625 L 1 10.99224853515625 L 0 10.99224853515625 L 0 8.99224853515625 Z M 0 4.99224853515625 L 1 4.99224853515625 L 1 6.99224853515625 L 0 6.99224853515625 L 0 4.99224853515625 Z" stroke="none" fill="#a854f3"/>
    </g>
    <path id="Trazado_883922" data-name="Trazado 883922" d="M0,201.034V0" transform="translate(-2905.467 -5494.534)" fill="none" stroke="#aec4fa" stroke-linecap="round" stroke-width="5"/>
    <g id="Trazado_883925" data-name="Trazado 883925" transform="translate(-2975.221 -5395.568) rotate(-45)" fill="#f2f6ff">
      <path d="M 96.14707183837891 96.14707183837891 L 2.49999737739563 96.14707183837891 L 2.49999737739563 2.49999737739563 L 96.14707183837891 2.49999737739563 L 96.14707183837891 96.14707183837891 Z" stroke="none"/>
      <path d="M 4.999992370605469 4.999992370605469 L 4.999992370605469 93.64706420898438 L 93.64706420898438 93.64706420898438 L 93.64706420898438 4.999992370605469 L 4.999992370605469 4.999992370605469 M -7.62939453125e-06 -7.62939453125e-06 L 98.64706420898438 -7.62939453125e-06 L 98.64706420898438 98.64706420898438 L -7.62939453125e-06 98.64706420898438 L -7.62939453125e-06 -7.62939453125e-06 Z" stroke="none" fill="#aec4fa"/>
    </g>
    <path id="Trazado_883928" data-name="Trazado 883928" d="M9.578-9.477H6.094V0H3.75V-9.477H.313v-1.9H9.578ZM13.148,0H10.883V-8.453h2.266Zm-2.4-10.641a1.112,1.112,0,0,1,.34-.836,1.277,1.277,0,0,1,.926-.328,1.28,1.28,0,0,1,.922.328,1.105,1.105,0,0,1,.344.836,1.108,1.108,0,0,1-.348.844,1.283,1.283,0,0,1-.918.328A1.283,1.283,0,0,1,11.1-9.8,1.108,1.108,0,0,1,10.75-10.641Zm6.961.109v2.078h1.445V-6.8H17.711v4.219a1.007,1.007,0,0,0,.18.672.9.9,0,0,0,.688.2,3.6,3.6,0,0,0,.664-.055V-.047a4.648,4.648,0,0,1-1.367.2,2.156,2.156,0,0,1-2.422-2.4V-6.8H14.219V-8.453h1.234v-2.078ZM25.477-.859A2.831,2.831,0,0,1,23.164.156,2.67,2.67,0,0,1,21.09-.625a3.335,3.335,0,0,1-.73-2.289V-8.453h2.258v5.467q0,1.322,1.2,1.322a1.63,1.63,0,0,0,1.578-.8V-8.453h2.266V0H25.539ZM31.75,0H29.484V-12H31.75Zm6.758,0a2.507,2.507,0,0,1-.227-.758,2.732,2.732,0,0,1-2.133.914A3,3,0,0,1,34.09-.562a2.312,2.312,0,0,1-.816-1.812,2.389,2.389,0,0,1,1-2.062,4.915,4.915,0,0,1,2.879-.727h1.039v-.484a1.393,1.393,0,0,0-.3-.937,1.183,1.183,0,0,0-.949-.352,1.345,1.345,0,0,0-.895.273.929.929,0,0,0-.324.75H33.461a2.268,2.268,0,0,1,.453-1.359,3,3,0,0,1,1.281-.98,4.669,4.669,0,0,1,1.859-.355,3.689,3.689,0,0,1,2.48.785,2.747,2.747,0,0,1,.918,2.207v3.664a4.041,4.041,0,0,0,.336,1.82V0ZM36.641-1.57a1.945,1.945,0,0,0,.922-.223,1.462,1.462,0,0,0,.625-.6V-3.844h-.844q-1.7,0-1.8,1.172l-.008.133a.9.9,0,0,0,.3.7A1.153,1.153,0,0,0,36.641-1.57Zm10.3-4.766a6.134,6.134,0,0,0-.812-.062,1.654,1.654,0,0,0-1.68.867V0H42.188V-8.453H44.32l.063,1.008a2.092,2.092,0,0,1,1.883-1.164,2.366,2.366,0,0,1,.7.1Z" transform="translate(-2928.889 -5390.068)" fill="#12263f"/>
  </g>
</svg>
