<svg xmlns="http://www.w3.org/2000/svg" width="820" height="431" viewBox="0 0 820 431">
  <g id="Grupo_1102365" data-name="Grupo 1102365" transform="translate(-369 -7208)">
    <g id="Grupo_1101399" data-name="Grupo 1101399" transform="translate(-21 -32)">
      <g id="Grupo_1101138" data-name="Grupo 1101138" transform="translate(-210 -2287)">
        <g id="Grupo_1101116" data-name="Grupo 1101116" transform="translate(771 9630.77)">
          <path id="Sustracción_1" data-name="Sustracción 1" d="M226.461,93H0a115.476,115.476,0,0,1,226.461,0Z" transform="translate(0 226.461) rotate(-90)" fill="#2ed4bf"/>
          <ellipse id="Elipse_11507" data-name="Elipse 11507" cx="86.5" cy="87" rx="86.5" ry="87" transform="translate(30 198.357) rotate(-90)" fill="#f2f6ff"/>
        </g>
        <line id="Línea_878" data-name="Línea 878" y1="71" transform="translate(864.903 9643.5)" fill="none" stroke="#198b7d" stroke-linecap="round" stroke-width="2"/>
        <line id="Línea_879" data-name="Línea 879" x1="63" y1="33" transform="translate(779.5 9702.5)" fill="none" stroke="#198b7d" stroke-linecap="round" stroke-width="2"/>
        <line id="Línea_882" data-name="Línea 882" x1="71" y2="10" transform="translate(771.5 9751.5)" fill="none" stroke="#198b7d" stroke-linecap="round" stroke-width="2"/>
        <line id="Línea_880" data-name="Línea 880" y2="89" transform="translate(864.825 9765.5)" fill="none" stroke="#198b7d" stroke-linecap="round" stroke-width="2"/>
        <rect id="Rectángulo_401596" data-name="Rectángulo 401596" width="126" height="45" rx="22.5" transform="translate(810 9527)" fill="#f2e5fd"/>
        <rect id="Rectángulo_401606" data-name="Rectángulo 401606" width="126" height="45" rx="22.5" transform="translate(810 9913)" fill="#f2e5fd"/>
        <rect id="Rectángulo_401597" data-name="Rectángulo 401597" width="126" height="45" rx="22.5" transform="translate(635 9578)" fill="#f2e5fd"/>
        <rect id="Rectángulo_401598" data-name="Rectángulo 401598" width="126" height="45" rx="22.5" transform="translate(600 9650)" fill="#f2e5fd"/>
        <rect id="Rectángulo_401599" data-name="Rectángulo 401599" width="126" height="45" rx="22.5" transform="translate(600 9757)" fill="#f2e5fd"/>
        <rect id="Rectángulo_401605" data-name="Rectángulo 401605" width="126" height="45" rx="22.5" transform="translate(635 9851)" fill="#f2e5fd"/>
        <text id="nombres" transform="translate(842 9555)" fill="#12263f" font-size="16" font-family="Roboto-Bold, Roboto" font-weight="700"><tspan x="0" y="0">nombres</tspan></text>
        <text id="identificación" transform="translate(828 9941)" fill="#12263f" font-size="16" font-family="Roboto-Bold, Roboto" font-weight="700"><tspan x="0" y="0">identificación</tspan></text>
        <text id="apellidos" transform="translate(667 9606)" fill="#12263f" font-size="16" font-family="Roboto-Bold, Roboto" font-weight="700"><tspan x="0" y="0">apellidos</tspan></text>
        <text id="correo" transform="translate(640 9678)" fill="#12263f" font-size="16" font-family="Roboto-Bold, Roboto" font-weight="700"><tspan x="0" y="0">correo</tspan></text>
        <text id="edad" transform="translate(646 9785)" fill="#12263f" font-size="16" font-family="Roboto-Bold, Roboto" font-weight="700"><tspan x="0" y="0">edad</tspan></text>
        <text id="país" transform="translate(681 9879)" fill="#12263f" font-size="16" font-family="Roboto-Bold, Roboto" font-weight="700"><tspan x="0" y="0">país</tspan></text>
        <line id="Línea_899" data-name="Línea 899" x1="29" y1="65" transform="translate(820.5 9649.5)" fill="none" stroke="#198b7d" stroke-linecap="round" stroke-width="2"/>
        <line id="Línea_900" data-name="Línea 900" x1="47" y2="55" transform="translate(802.5 9765.5)" fill="none" stroke="#198b7d" stroke-linecap="round" stroke-width="2"/>
        <g id="Rectángulo_401590" data-name="Rectángulo 401590" transform="translate(838.5 9714)" fill="#f2f6ff" stroke="#aec4fa" stroke-width="5">
          <rect width="154" height="60" stroke="none"/>
          <rect x="2.5" y="2.5" width="149" height="55" fill="none"/>
        </g>
        <text id="Persona" transform="translate(877.078 9750)" fill="#12263f" font-size="16" font-family="Roboto-Bold, Roboto" font-weight="700"><tspan x="0" y="0">Persona</tspan></text>
        <g id="Rectángulo_401594" data-name="Rectángulo 401594" transform="translate(831 9709.078)" fill="none" stroke="#a854f3" stroke-width="1" stroke-dasharray="2">
          <rect width="169" height="69.844" stroke="none"/>
          <rect x="0.5" y="0.5" width="168" height="68.844" fill="none"/>
        </g>
        <line id="Línea_901" data-name="Línea 901" y1="61" transform="translate(864.5 9572.5)" fill="none" stroke="#a854f3" stroke-width="1" stroke-dasharray="2"/>
        <line id="Línea_910" data-name="Línea 910" y1="61" transform="translate(864.5 9852)" fill="none" stroke="#a854f3" stroke-width="1" stroke-dasharray="2"/>
        <g id="Grupo_1101118" data-name="Grupo 1101118" transform="translate(853.549 9623)">
          <circle id="Elipse_11511" data-name="Elipse 11511" cx="10.5" cy="10.5" r="10.5" transform="translate(0.451)" fill="#27b8a6"/>
          <circle id="Elipse_11515" data-name="Elipse 11515" cx="5.5" cy="5.5" r="5.5" transform="translate(5.451 5)" fill="#2b7a70"/>
        </g>
        <line id="Línea_902" data-name="Línea 902" x2="18" transform="translate(761.5 9603.5)" fill="none" stroke="#a854f3" stroke-width="1" stroke-dasharray="2"/>
        <line id="Línea_908" data-name="Línea 908" x2="18" transform="translate(759.5 9873.5)" fill="none" stroke="#a854f3" stroke-width="1" stroke-dasharray="2"/>
        <line id="Línea_904" data-name="Línea 904" x2="18" transform="translate(726 9673)" fill="none" stroke="#a854f3" stroke-width="1" stroke-dasharray="2"/>
        <line id="Línea_907" data-name="Línea 907" x2="18" transform="translate(726 9779)" fill="none" stroke="#a854f3" stroke-width="1" stroke-dasharray="2"/>
        <line id="Línea_903" data-name="Línea 903" x2="41" y2="46" transform="translate(779.5 9603.5)" fill="none" stroke="#a854f3" stroke-width="1" stroke-dasharray="2"/>
        <line id="Línea_909" data-name="Línea 909" y1="53" x2="22" transform="translate(777.5 9820.5)" fill="none" stroke="#a854f3" stroke-width="1" stroke-dasharray="2"/>
        <line id="Línea_905" data-name="Línea 905" x2="36" y2="30" transform="translate(744 9673)" fill="none" stroke="#a854f3" stroke-width="1" stroke-dasharray="2"/>
        <line id="Línea_906" data-name="Línea 906" y1="17" x2="28" transform="translate(744 9762)" fill="none" stroke="#a854f3" stroke-width="1" stroke-dasharray="2"/>
        <g id="Grupo_1101119" data-name="Grupo 1101119" transform="translate(809.551 9639)">
          <circle id="Elipse_11511-2" data-name="Elipse 11511" cx="10.5" cy="10.5" r="10.5" transform="translate(0.449)" fill="#27b8a6"/>
          <circle id="Elipse_11515-2" data-name="Elipse 11515" cx="5.5" cy="5.5" r="5.5" transform="translate(5.449 5)" fill="#2b7a70"/>
        </g>
        <g id="Grupo_1101120" data-name="Grupo 1101120" transform="translate(769.454 9692)">
          <circle id="Elipse_11511-3" data-name="Elipse 11511" cx="10.5" cy="10.5" r="10.5" transform="translate(-0.454)" fill="#27b8a6"/>
          <circle id="Elipse_11515-3" data-name="Elipse 11515" cx="5.5" cy="5.5" r="5.5" transform="translate(4.546 5)" fill="#2b7a70"/>
        </g>
        <g id="Grupo_1101137" data-name="Grupo 1101137" transform="translate(761.378 9751)">
          <circle id="Elipse_11511-4" data-name="Elipse 11511" cx="10.5" cy="10.5" r="10.5" transform="translate(-0.378)" fill="#27b8a6"/>
          <circle id="Elipse_11515-4" data-name="Elipse 11515" cx="5.5" cy="5.5" r="5.5" transform="translate(4.622 5)" fill="#2b7a70"/>
        </g>
        <g id="Grupo_1101121" data-name="Grupo 1101121" transform="translate(789.378 9810)">
          <circle id="Elipse_11511-5" data-name="Elipse 11511" cx="10.5" cy="10.5" r="10.5" transform="translate(-0.378)" fill="#27b8a6"/>
          <circle id="Elipse_11515-5" data-name="Elipse 11515" cx="5.5" cy="5.5" r="5.5" transform="translate(4.622 5)" fill="#2b7a70"/>
        </g>
        <g id="Grupo_1101136" data-name="Grupo 1101136" transform="translate(853.549 9847)">
          <circle id="Elipse_11511-6" data-name="Elipse 11511" cx="10.5" cy="10.5" r="10.5" transform="translate(0.451)" fill="#27b8a6"/>
          <circle id="Elipse_11515-6" data-name="Elipse 11515" cx="5.5" cy="5.5" r="5.5" transform="translate(5.451 5)" fill="#2b7a70"/>
        </g>
        <line id="Línea_911" data-name="Línea 911" x2="95" transform="translate(828.5 9946.5)" fill="none" stroke="#a854f3" stroke-width="1"/>
      </g>
      <g id="Grupo_1101139" data-name="Grupo 1101139" transform="translate(210 -2287)">
        <g id="Grupo_1101116-2" data-name="Grupo 1101116" transform="translate(771 9630.77)">
          <path id="Sustracción_1-2" data-name="Sustracción 1" d="M226.461,93H0a115.476,115.476,0,0,1,226.461,0Z" transform="translate(0 226.461) rotate(-90)" fill="#2ed4bf"/>
          <ellipse id="Elipse_11507-2" data-name="Elipse 11507" cx="86.5" cy="87" rx="86.5" ry="87" transform="translate(30 198.357) rotate(-90)" fill="#f2f6ff"/>
        </g>
        <line id="Línea_878-2" data-name="Línea 878" y1="71" transform="translate(864.903 9643.5)" fill="none" stroke="#198b7d" stroke-linecap="round" stroke-width="2"/>
        <line id="Línea_879-2" data-name="Línea 879" x1="63" y1="33" transform="translate(779.5 9702.5)" fill="none" stroke="#198b7d" stroke-linecap="round" stroke-width="2"/>
        <line id="Línea_882-2" data-name="Línea 882" x1="71" y2="10" transform="translate(771.5 9751.5)" fill="none" stroke="#198b7d" stroke-linecap="round" stroke-width="2"/>
        <line id="Línea_880-2" data-name="Línea 880" y2="89" transform="translate(864.825 9765.5)" fill="none" stroke="#198b7d" stroke-linecap="round" stroke-width="2"/>
        <rect id="Rectángulo_401596-2" data-name="Rectángulo 401596" width="126" height="45" rx="22.5" transform="translate(810 9527)" fill="#f2e5fd"/>
        <rect id="Rectángulo_401606-2" data-name="Rectángulo 401606" width="126" height="45" rx="22.5" transform="translate(810 9913)" fill="#f2e5fd"/>
        <rect id="Rectángulo_401597-2" data-name="Rectángulo 401597" width="126" height="45" rx="22.5" transform="translate(635 9578)" fill="#f2e5fd"/>
        <rect id="Rectángulo_401598-2" data-name="Rectángulo 401598" width="126" height="45" rx="22.5" transform="translate(600 9650)" fill="#f2e5fd"/>
        <rect id="Rectángulo_401599-2" data-name="Rectángulo 401599" width="126" height="45" rx="22.5" transform="translate(600 9757)" fill="#f2e5fd"/>
        <rect id="Rectángulo_401605-2" data-name="Rectángulo 401605" width="126" height="45" rx="22.5" transform="translate(635 9851)" fill="#f2e5fd"/>
        <text id="nombres-2" data-name="nombres" transform="translate(842 9555)" fill="#12263f" font-size="16" font-family="Roboto-Bold, Roboto" font-weight="700"><tspan x="0" y="0">nombres</tspan></text>
        <text id="identificación-2" data-name="identificación" transform="translate(825 9941)" fill="#12263f" font-size="16" font-family="Roboto-Bold, Roboto" font-weight="700"><tspan x="0" y="0">identificación</tspan></text>
        <text id="apellidos-2" data-name="apellidos" transform="translate(667 9606)" fill="#12263f" font-size="16" font-family="Roboto-Bold, Roboto" font-weight="700"><tspan x="0" y="0">apellidos</tspan></text>
        <text id="correo-2" data-name="correo" transform="translate(640 9678)" fill="#12263f" font-size="16" font-family="Roboto-Bold, Roboto" font-weight="700"><tspan x="0" y="0">correo</tspan></text>
        <text id="edad-2" data-name="edad" transform="translate(646 9785)" fill="#12263f" font-size="16" font-family="Roboto-Bold, Roboto" font-weight="700"><tspan x="0" y="0">edad</tspan></text>
        <text id="país-2" data-name="país" transform="translate(681 9879)" fill="#12263f" font-size="16" font-family="Roboto-Bold, Roboto" font-weight="700"><tspan x="0" y="0">país</tspan></text>
        <line id="Línea_899-2" data-name="Línea 899" x1="29" y1="65" transform="translate(820.5 9649.5)" fill="none" stroke="#198b7d" stroke-linecap="round" stroke-width="2"/>
        <line id="Línea_900-2" data-name="Línea 900" x1="47" y2="55" transform="translate(802.5 9765.5)" fill="none" stroke="#198b7d" stroke-linecap="round" stroke-width="2"/>
        <g id="Rectángulo_401590-2" data-name="Rectángulo 401590" transform="translate(838.5 9714)" fill="#f2f6ff" stroke="#aec4fa" stroke-width="5">
          <rect width="154" height="60" stroke="none"/>
          <rect x="2.5" y="2.5" width="149" height="55" fill="none"/>
        </g>
        <text id="Persona-2" data-name="Persona" transform="translate(877.078 9750)" fill="#12263f" font-size="16" font-family="Roboto-Bold, Roboto" font-weight="700"><tspan x="0" y="0">Persona</tspan></text>
        <g id="Rectángulo_401594-2" data-name="Rectángulo 401594" transform="translate(831 9709.078)" fill="none" stroke="#a854f3" stroke-width="1" stroke-dasharray="2">
          <rect width="169" height="69.844" stroke="none"/>
          <rect x="0.5" y="0.5" width="168" height="68.844" fill="none"/>
        </g>
        <line id="Línea_901-2" data-name="Línea 901" y1="61" transform="translate(864.5 9572.5)" fill="none" stroke="#a854f3" stroke-width="1" stroke-dasharray="2"/>
        <line id="Línea_910-2" data-name="Línea 910" y1="61" transform="translate(864.5 9852)" fill="none" stroke="#a854f3" stroke-width="1" stroke-dasharray="2"/>
        <g id="Grupo_1101118-2" data-name="Grupo 1101118" transform="translate(853.549 9623)">
          <circle id="Elipse_11511-7" data-name="Elipse 11511" cx="10.5" cy="10.5" r="10.5" transform="translate(0.451)" fill="#27b8a6"/>
          <circle id="Elipse_11515-7" data-name="Elipse 11515" cx="5.5" cy="5.5" r="5.5" transform="translate(5.451 5)" fill="#2b7a70"/>
        </g>
        <line id="Línea_902-2" data-name="Línea 902" x2="18" transform="translate(761.5 9603.5)" fill="none" stroke="#a854f3" stroke-width="1" stroke-dasharray="2"/>
        <line id="Línea_908-2" data-name="Línea 908" x2="18" transform="translate(759.5 9873.5)" fill="none" stroke="#a854f3" stroke-width="1" stroke-dasharray="2"/>
        <line id="Línea_904-2" data-name="Línea 904" x2="18" transform="translate(726 9673)" fill="none" stroke="#a854f3" stroke-width="1" stroke-dasharray="2"/>
        <line id="Línea_907-2" data-name="Línea 907" x2="18" transform="translate(726 9779)" fill="none" stroke="#a854f3" stroke-width="1" stroke-dasharray="2"/>
        <line id="Línea_903-2" data-name="Línea 903" x2="41" y2="46" transform="translate(779.5 9603.5)" fill="none" stroke="#a854f3" stroke-width="1" stroke-dasharray="2"/>
        <line id="Línea_909-2" data-name="Línea 909" y1="53" x2="22" transform="translate(777.5 9820.5)" fill="none" stroke="#a854f3" stroke-width="1" stroke-dasharray="2"/>
        <line id="Línea_905-2" data-name="Línea 905" x2="36" y2="30" transform="translate(744 9673)" fill="none" stroke="#a854f3" stroke-width="1" stroke-dasharray="2"/>
        <line id="Línea_906-2" data-name="Línea 906" y1="17" x2="28" transform="translate(744 9762)" fill="none" stroke="#a854f3" stroke-width="1" stroke-dasharray="2"/>
        <g id="Grupo_1101119-2" data-name="Grupo 1101119" transform="translate(809.551 9639)">
          <circle id="Elipse_11511-8" data-name="Elipse 11511" cx="10.5" cy="10.5" r="10.5" transform="translate(0.449)" fill="#27b8a6"/>
          <circle id="Elipse_11515-8" data-name="Elipse 11515" cx="5.5" cy="5.5" r="5.5" transform="translate(5.449 5)" fill="#2b7a70"/>
        </g>
        <g id="Grupo_1101120-2" data-name="Grupo 1101120" transform="translate(769.454 9692)">
          <circle id="Elipse_11511-9" data-name="Elipse 11511" cx="10.5" cy="10.5" r="10.5" transform="translate(-0.454)" fill="#27b8a6"/>
          <circle id="Elipse_11515-9" data-name="Elipse 11515" cx="5.5" cy="5.5" r="5.5" transform="translate(4.546 5)" fill="#2b7a70"/>
        </g>
        <g id="Grupo_1101137-2" data-name="Grupo 1101137" transform="translate(761.378 9751)">
          <circle id="Elipse_11511-10" data-name="Elipse 11511" cx="10.5" cy="10.5" r="10.5" transform="translate(-0.378)" fill="#27b8a6"/>
          <circle id="Elipse_11515-10" data-name="Elipse 11515" cx="5.5" cy="5.5" r="5.5" transform="translate(4.622 5)" fill="#2b7a70"/>
        </g>
        <g id="Grupo_1101121-2" data-name="Grupo 1101121" transform="translate(789.378 9810)">
          <circle id="Elipse_11511-11" data-name="Elipse 11511" cx="10.5" cy="10.5" r="10.5" transform="translate(-0.378)" fill="#27b8a6"/>
          <circle id="Elipse_11515-11" data-name="Elipse 11515" cx="5.5" cy="5.5" r="5.5" transform="translate(4.622 5)" fill="#2b7a70"/>
        </g>
        <g id="Grupo_1101136-2" data-name="Grupo 1101136" transform="translate(853.549 9847)">
          <circle id="Elipse_11511-12" data-name="Elipse 11511" cx="10.5" cy="10.5" r="10.5" transform="translate(0.451)" fill="#27b8a6"/>
          <circle id="Elipse_11515-12" data-name="Elipse 11515" cx="5.5" cy="5.5" r="5.5" transform="translate(5.451 5)" fill="#2b7a70"/>
        </g>
      </g>
    </g>
  </g>
</svg>
