<svg xmlns="http://www.w3.org/2000/svg" width="481.73" height="629.757" viewBox="0 0 481.73 629.757">
  <g id="Grupo_1102366" data-name="Grupo 1102366" transform="translate(3147 4381.257)">
    <g id="Grupo_1102279" data-name="Grupo 1102279">
      <g id="Grupo_1101116" data-name="Grupo 1101116" transform="translate(-2791.27 -4261) rotate(90)">
        <path id="Sustracción_1" data-name="Sustracción 1" d="M226.461,93H0a115.476,115.476,0,0,1,226.461,0Z" transform="translate(0 226.461) rotate(-90)" fill="#2ed4bf"/>
        <ellipse id="Elipse_11507" data-name="Elipse 11507" cx="86.5" cy="87" rx="86.5" ry="87" transform="translate(30 198.357) rotate(-90)" fill="#f2f6ff"/>
      </g>
      <line id="Línea_878" data-name="Línea 878" y1="71" transform="translate(-2804 -4167.097) rotate(90)" fill="none" stroke="#198b7d" stroke-linecap="round" stroke-width="2"/>
      <line id="Línea_879" data-name="Línea 879" x1="63" y1="33" transform="translate(-2863 -4252.5) rotate(90)" fill="none" stroke="#198b7d" stroke-linecap="round" stroke-width="2"/>
      <line id="Línea_882" data-name="Línea 882" x1="71" y2="10" transform="translate(-2912 -4260.5) rotate(90)" fill="none" stroke="#198b7d" stroke-linecap="round" stroke-width="2"/>
      <line id="Línea_880" data-name="Línea 880" y2="89" transform="translate(-2926 -4167.175) rotate(90)" fill="none" stroke="#198b7d" stroke-linecap="round" stroke-width="2"/>
      <rect id="Rectángulo_401596" data-name="Rectángulo 401596" width="126" height="45" rx="22.5" transform="translate(-2791.27 -4227.5)" fill="#f2e5fd"/>
      <rect id="Rectángulo_401606" data-name="Rectángulo 401606" width="126" height="45" rx="22.5" transform="translate(-3147 -4225)" fill="#f2e5fd"/>
      <rect id="Rectángulo_401597" data-name="Rectángulo 401597" width="126" height="45" rx="22.5" transform="translate(-2826 -4315)" fill="#f2e5fd"/>
      <rect id="Rectángulo_401598" data-name="Rectángulo 401598" width="126" height="45" rx="22.5" transform="translate(-2867.5 -4381.257)" fill="#f2e5fd"/>
      <rect id="Rectángulo_401599" data-name="Rectángulo 401599" width="126" height="45" rx="22.5" transform="translate(-3003 -4381.257)" fill="#f2e5fd"/>
      <rect id="Rectángulo_401605" data-name="Rectángulo 401605" width="126" height="45" rx="22.5" transform="translate(-3117.5 -4317.825)" fill="#f2e5fd"/>
      <text id="nombres" transform="translate(-2759.27 -4199.5)" fill="#12263f" font-size="16" font-family="Roboto-Bold, Roboto" font-weight="700"><tspan x="0" y="0">nombres</tspan></text>
      <text id="identificación" transform="translate(-3129 -4197)" fill="#12263f" font-size="16" font-family="Roboto-Bold, Roboto" font-weight="700"><tspan x="0" y="0">identificación</tspan></text>
      <text id="apellidos" transform="translate(-2794 -4287)" fill="#12263f" font-size="16" font-family="Roboto-Bold, Roboto" font-weight="700"><tspan x="0" y="0">apellidos</tspan></text>
      <text id="correo" transform="translate(-2827.5 -4353.257)" fill="#12263f" font-size="16" font-family="Roboto-Bold, Roboto" font-weight="700"><tspan x="0" y="0">correo</tspan></text>
      <text id="edad" transform="translate(-2957 -4353.257)" fill="#12263f" font-size="16" font-family="Roboto-Bold, Roboto" font-weight="700"><tspan x="0" y="0">edad</tspan></text>
      <text id="país" transform="translate(-3071.5 -4289.825)" fill="#12263f" font-size="16" font-family="Roboto-Bold, Roboto" font-weight="700"><tspan x="0" y="0">país</tspan></text>
      <line id="Línea_899" data-name="Línea 899" x1="29" y1="65" transform="translate(-2810 -4211.5) rotate(90)" fill="none" stroke="#198b7d" stroke-linecap="round" stroke-width="2"/>
      <line id="Línea_900" data-name="Línea 900" x1="47" y2="55" transform="translate(-2926 -4229.5) rotate(90)" fill="none" stroke="#198b7d" stroke-linecap="round" stroke-width="2"/>
      <g id="Rectángulo_401590" data-name="Rectángulo 401590" transform="translate(-2982 -4206.578)" fill="#f2f6ff" stroke="#aec4fa" stroke-width="5">
        <rect width="154" height="60" stroke="none"/>
        <rect x="2.5" y="2.5" width="149" height="55" fill="none"/>
      </g>
      <text id="Persona" transform="translate(-2934 -4170.578)" fill="#12263f" font-size="16" font-family="Roboto-Bold, Roboto" font-weight="700"><tspan x="0" y="0">Persona</tspan></text>
      <g id="Rectángulo_401594" data-name="Rectángulo 401594" transform="translate(-2989 -4211.5)" fill="none" stroke="#a854f3" stroke-width="1" stroke-dasharray="2">
        <rect width="169" height="69.844" stroke="none"/>
        <rect x="0.5" y="0.5" width="168" height="68.844" fill="none"/>
      </g>
      <line id="Línea_901" data-name="Línea 901" y1="61" transform="translate(-2733 -4167.5) rotate(90)" fill="none" stroke="#a854f3" stroke-width="1" stroke-dasharray="2"/>
      <line id="Línea_910" data-name="Línea 910" x2="53" transform="translate(-3073.5 -4167.5)" fill="none" stroke="#a854f3" stroke-width="1" stroke-dasharray="2"/>
      <g id="Grupo_1101118" data-name="Grupo 1101118" transform="translate(-2783.5 -4178.451) rotate(90)">
        <circle id="Elipse_11511" data-name="Elipse 11511" cx="10.5" cy="10.5" r="10.5" transform="translate(0.451)" fill="#27b8a6"/>
        <circle id="Elipse_11515" data-name="Elipse 11515" cx="5.5" cy="5.5" r="5.5" transform="translate(5.451 5)" fill="#2b7a70"/>
      </g>
      <line id="Línea_902" data-name="Línea 902" x2="18" transform="translate(-2764 -4270.5) rotate(90)" fill="none" stroke="#a854f3" stroke-width="1" stroke-dasharray="2"/>
      <line id="Línea_1095" data-name="Línea 1095" y2="16.087" transform="translate(-2734.5 -4182.5)" fill="none" stroke="#a854f3" stroke-width="1" stroke-dasharray="2"/>
      <line id="Línea_908" data-name="Línea 908" x2="18" transform="translate(-3034 -4272.5) rotate(90)" fill="none" stroke="#a854f3" stroke-width="1" stroke-dasharray="2"/>
      <line id="Línea_1094" data-name="Línea 1094" y2="13.835" transform="translate(-3073.5 -4180.413)" fill="none" stroke="#a854f3" stroke-width="1" stroke-dasharray="2"/>
      <line id="Línea_904" data-name="Línea 904" y2="47" transform="translate(-2833.5 -4335.413)" fill="none" stroke="#a854f3" stroke-width="1" stroke-dasharray="2"/>
      <line id="Línea_907" data-name="Línea 907" y2="48.413" transform="translate(-2939.5 -4336.413)" fill="none" stroke="#a854f3" stroke-width="1" stroke-dasharray="2"/>
      <line id="Línea_903" data-name="Línea 903" x2="41" y2="46" transform="translate(-2764 -4252.5) rotate(90)" fill="none" stroke="#a854f3" stroke-width="1" stroke-dasharray="2"/>
      <line id="Línea_909" data-name="Línea 909" y1="53" x2="22" transform="translate(-2981 -4254.5) rotate(90)" fill="none" stroke="#a854f3" stroke-width="1" stroke-dasharray="2"/>
      <line id="Línea_905" data-name="Línea 905" x2="36" y2="30" transform="translate(-2833.5 -4288) rotate(90)" fill="none" stroke="#a854f3" stroke-width="1" stroke-dasharray="2"/>
      <line id="Línea_906" data-name="Línea 906" y1="17" x2="28" transform="translate(-2922.5 -4288) rotate(90)" fill="none" stroke="#a854f3" stroke-width="1" stroke-dasharray="2"/>
      <g id="Grupo_1101119" data-name="Grupo 1101119" transform="translate(-2799.5 -4222.449) rotate(90)">
        <circle id="Elipse_11511-2" data-name="Elipse 11511" cx="10.5" cy="10.5" r="10.5" transform="translate(0.449)" fill="#27b8a6"/>
        <circle id="Elipse_11515-2" data-name="Elipse 11515" cx="5.5" cy="5.5" r="5.5" transform="translate(5.449 5)" fill="#2b7a70"/>
      </g>
      <g id="Grupo_1101120" data-name="Grupo 1101120" transform="translate(-2852.5 -4262.546) rotate(90)">
        <circle id="Elipse_11511-3" data-name="Elipse 11511" cx="10.5" cy="10.5" r="10.5" transform="translate(-0.454)" fill="#27b8a6"/>
        <circle id="Elipse_11515-3" data-name="Elipse 11515" cx="5.5" cy="5.5" r="5.5" transform="translate(4.546 5)" fill="#2b7a70"/>
      </g>
      <g id="Grupo_1101137" data-name="Grupo 1101137" transform="translate(-2911.5 -4270.622) rotate(90)">
        <circle id="Elipse_11511-4" data-name="Elipse 11511" cx="10.5" cy="10.5" r="10.5" transform="translate(-0.378)" fill="#27b8a6"/>
        <circle id="Elipse_11515-4" data-name="Elipse 11515" cx="5.5" cy="5.5" r="5.5" transform="translate(4.622 5)" fill="#2b7a70"/>
      </g>
      <g id="Grupo_1101121" data-name="Grupo 1101121" transform="translate(-2970.5 -4242.622) rotate(90)">
        <circle id="Elipse_11511-5" data-name="Elipse 11511" cx="10.5" cy="10.5" r="10.5" transform="translate(-0.378)" fill="#27b8a6"/>
        <circle id="Elipse_11515-5" data-name="Elipse 11515" cx="5.5" cy="5.5" r="5.5" transform="translate(4.622 5)" fill="#2b7a70"/>
      </g>
      <g id="Grupo_1101136" data-name="Grupo 1101136" transform="translate(-3007.5 -4178.451) rotate(90)">
        <circle id="Elipse_11511-6" data-name="Elipse 11511" cx="10.5" cy="10.5" r="10.5" transform="translate(0.451)" fill="#27b8a6"/>
        <circle id="Elipse_11515-6" data-name="Elipse 11515" cx="5.5" cy="5.5" r="5.5" transform="translate(5.451 5)" fill="#2b7a70"/>
      </g>
      <line id="Línea_911" data-name="Línea 911" x2="97.5" transform="translate(-3129 -4193)" fill="none" stroke="#a854f3" stroke-width="1"/>
    </g>
    <g id="Grupo_1102278" data-name="Grupo 1102278" transform="translate(11)">
      <g id="Grupo_1101116-2" data-name="Grupo 1101116" transform="translate(-2793.27 -3955.5) rotate(90)">
        <path id="Sustracción_1-2" data-name="Sustracción 1" d="M226.461,93H0a115.476,115.476,0,0,1,226.461,0Z" transform="translate(0 226.461) rotate(-90)" fill="#2ed4bf"/>
        <ellipse id="Elipse_11507-2" data-name="Elipse 11507" cx="86.5" cy="87" rx="86.5" ry="87" transform="translate(30 198.357) rotate(-90)" fill="#f2f6ff"/>
      </g>
      <line id="Línea_878-2" data-name="Línea 878" y1="71" transform="translate(-2806 -3861.597) rotate(90)" fill="none" stroke="#198b7d" stroke-linecap="round" stroke-width="2"/>
      <line id="Línea_879-2" data-name="Línea 879" x1="63" y1="33" transform="translate(-2865 -3947) rotate(90)" fill="none" stroke="#198b7d" stroke-linecap="round" stroke-width="2"/>
      <line id="Línea_882-2" data-name="Línea 882" x1="71" y2="10" transform="translate(-2914 -3955) rotate(90)" fill="none" stroke="#198b7d" stroke-linecap="round" stroke-width="2"/>
      <line id="Línea_880-2" data-name="Línea 880" y2="89" transform="translate(-2928 -3861.675) rotate(90)" fill="none" stroke="#198b7d" stroke-linecap="round" stroke-width="2"/>
      <rect id="Rectángulo_401596-2" data-name="Rectángulo 401596" width="95" height="45" rx="22.5" transform="translate(-2783 -3917)" fill="#f2e5fd"/>
      <rect id="Rectángulo_401606-2" data-name="Rectángulo 401606" width="126" height="45" rx="22.5" transform="translate(-3147 -3916)" fill="#f2e5fd"/>
      <rect id="Rectángulo_401597-2" data-name="Rectángulo 401597" width="126" height="45" rx="22.5" transform="translate(-2826 -4014)" fill="#f2e5fd"/>
      <rect id="Rectángulo_401598-2" data-name="Rectángulo 401598" width="126" height="45" rx="22.5" transform="translate(-2881 -4086)" fill="#f2e5fd"/>
      <rect id="Rectángulo_401599-2" data-name="Rectángulo 401599" width="86" height="45" rx="22.5" transform="translate(-2989 -4086)" fill="#f2e5fd"/>
      <rect id="Rectángulo_401605-2" data-name="Rectángulo 401605" width="85" height="45" rx="22.5" transform="translate(-3080 -4012)" fill="#f2e5fd"/>
      <text id="nombres-2" data-name="nombres" transform="translate(-2767 -3891)" fill="#12263f" font-size="16" font-family="Roboto-Bold, Roboto" font-weight="700"><tspan x="0" y="0">nombres</tspan></text>
      <text id="identificación-2" data-name="identificación" transform="translate(-3132 -3888)" fill="#12263f" font-size="16" font-family="Roboto-Bold, Roboto" font-weight="700"><tspan x="0" y="0">identificación</tspan></text>
      <text id="apellidos-2" data-name="apellidos" transform="translate(-2794 -3986)" fill="#12263f" font-size="16" font-family="Roboto-Bold, Roboto" font-weight="700"><tspan x="0" y="0">apellidos</tspan></text>
      <text id="correo-2" data-name="correo" transform="translate(-2841 -4058)" fill="#12263f" font-size="16" font-family="Roboto-Bold, Roboto" font-weight="700"><tspan x="0" y="0">correo</tspan></text>
      <text id="edad-2" data-name="edad" transform="translate(-2963 -4058)" fill="#12263f" font-size="16" font-family="Roboto-Bold, Roboto" font-weight="700"><tspan x="0" y="0">edad</tspan></text>
      <text id="país-2" data-name="país" transform="translate(-3053 -3984)" fill="#12263f" font-size="16" font-family="Roboto-Bold, Roboto" font-weight="700"><tspan x="0" y="0">país</tspan></text>
      <line id="Línea_899-2" data-name="Línea 899" x1="29" y1="65" transform="translate(-2812 -3906) rotate(90)" fill="none" stroke="#198b7d" stroke-linecap="round" stroke-width="2"/>
      <line id="Línea_900-2" data-name="Línea 900" x1="47" y2="55" transform="translate(-2928 -3924) rotate(90)" fill="none" stroke="#198b7d" stroke-linecap="round" stroke-width="2"/>
      <g id="Rectángulo_401590-2" data-name="Rectángulo 401590" transform="translate(-2968.417 -3892)" fill="#f2f6ff" stroke="#aec4fa" stroke-width="5">
        <rect width="125.333" height="60" stroke="none"/>
        <rect x="2.5" y="2.5" width="120.333" height="55" fill="none"/>
      </g>
      <text id="Persona-2" data-name="Persona" transform="translate(-2929.839 -3856)" fill="#12263f" font-size="16" font-family="Roboto-Bold, Roboto" font-weight="700"><tspan x="0" y="0">Persona</tspan></text>
      <g id="Rectángulo_401594-2" data-name="Rectángulo 401594" transform="translate(-2975.917 -3896.922)" fill="none" stroke="#a854f3" stroke-width="1" stroke-dasharray="2">
        <rect width="138.833" height="69.844" stroke="none"/>
        <rect x="0.5" y="0.5" width="137.833" height="68.844" fill="none"/>
      </g>
      <line id="Línea_901-2" data-name="Línea 901" y1="61" transform="translate(-2735 -3862) rotate(90)" fill="none" stroke="#a854f3" stroke-width="1" stroke-dasharray="2"/>
      <line id="Línea_910-2" data-name="Línea 910" y1="61" transform="translate(-3014.5 -3862) rotate(90)" fill="none" stroke="#a854f3" stroke-width="1" stroke-dasharray="2"/>
      <g id="Grupo_1101118-2" data-name="Grupo 1101118" transform="translate(-2785.5 -3872.951) rotate(90)">
        <circle id="Elipse_11511-7" data-name="Elipse 11511" cx="10.5" cy="10.5" r="10.5" transform="translate(0.451)" fill="#27b8a6"/>
        <circle id="Elipse_11515-7" data-name="Elipse 11515" cx="5.5" cy="5.5" r="5.5" transform="translate(5.451 5)" fill="#2b7a70"/>
      </g>
      <line id="Línea_902-2" data-name="Línea 902" x2="18" transform="translate(-2766 -3965) rotate(90)" fill="none" stroke="#a854f3" stroke-width="1" stroke-dasharray="2"/>
      <line id="Línea_908-2" data-name="Línea 908" x2="18" transform="translate(-3036 -3967) rotate(90)" fill="none" stroke="#a854f3" stroke-width="1" stroke-dasharray="2"/>
      <line id="Línea_1096" data-name="Línea 1096" y2="10" transform="translate(-3075 -3872)" fill="none" stroke="#a854f3" stroke-width="1" stroke-dasharray="2"/>
      <line id="Línea_1097" data-name="Línea 1097" y2="10" transform="translate(-2736 -3872)" fill="none" stroke="#a854f3" stroke-width="1" stroke-dasharray="2"/>
      <line id="Línea_904-2" data-name="Línea 904" x2="58.5" transform="translate(-2835.5 -4041) rotate(90)" fill="none" stroke="#a854f3" stroke-width="1" stroke-dasharray="2"/>
      <line id="Línea_907-2" data-name="Línea 907" x2="58.5" transform="translate(-2941.5 -4041) rotate(90)" fill="none" stroke="#a854f3" stroke-width="1" stroke-dasharray="2"/>
      <line id="Línea_903-2" data-name="Línea 903" x2="41" y2="46" transform="translate(-2766 -3947) rotate(90)" fill="none" stroke="#a854f3" stroke-width="1" stroke-dasharray="2"/>
      <line id="Línea_909-2" data-name="Línea 909" y1="53" x2="22" transform="translate(-2983 -3949) rotate(90)" fill="none" stroke="#a854f3" stroke-width="1" stroke-dasharray="2"/>
      <line id="Línea_905-2" data-name="Línea 905" x2="36" y2="30" transform="translate(-2835.5 -3982.5) rotate(90)" fill="none" stroke="#a854f3" stroke-width="1" stroke-dasharray="2"/>
      <line id="Línea_906-2" data-name="Línea 906" y1="17" x2="28" transform="translate(-2924.5 -3982.5) rotate(90)" fill="none" stroke="#a854f3" stroke-width="1" stroke-dasharray="2"/>
      <g id="Grupo_1101119-2" data-name="Grupo 1101119" transform="translate(-2801.5 -3916.949) rotate(90)">
        <circle id="Elipse_11511-8" data-name="Elipse 11511" cx="10.5" cy="10.5" r="10.5" transform="translate(0.449)" fill="#27b8a6"/>
        <circle id="Elipse_11515-8" data-name="Elipse 11515" cx="5.5" cy="5.5" r="5.5" transform="translate(5.449 5)" fill="#2b7a70"/>
      </g>
      <g id="Grupo_1101120-2" data-name="Grupo 1101120" transform="translate(-2854.5 -3957.046) rotate(90)">
        <circle id="Elipse_11511-9" data-name="Elipse 11511" cx="10.5" cy="10.5" r="10.5" transform="translate(-0.454)" fill="#27b8a6"/>
        <circle id="Elipse_11515-9" data-name="Elipse 11515" cx="5.5" cy="5.5" r="5.5" transform="translate(4.546 5)" fill="#2b7a70"/>
      </g>
      <g id="Grupo_1101137-2" data-name="Grupo 1101137" transform="translate(-2913.5 -3965.122) rotate(90)">
        <circle id="Elipse_11511-10" data-name="Elipse 11511" cx="10.5" cy="10.5" r="10.5" transform="translate(-0.378)" fill="#27b8a6"/>
        <circle id="Elipse_11515-10" data-name="Elipse 11515" cx="5.5" cy="5.5" r="5.5" transform="translate(4.622 5)" fill="#2b7a70"/>
      </g>
      <g id="Grupo_1101121-2" data-name="Grupo 1101121" transform="translate(-2972.5 -3937.122) rotate(90)">
        <circle id="Elipse_11511-11" data-name="Elipse 11511" cx="10.5" cy="10.5" r="10.5" transform="translate(-0.378)" fill="#27b8a6"/>
        <circle id="Elipse_11515-11" data-name="Elipse 11515" cx="5.5" cy="5.5" r="5.5" transform="translate(4.622 5)" fill="#2b7a70"/>
      </g>
      <g id="Grupo_1101136-2" data-name="Grupo 1101136" transform="translate(-3009.5 -3872.951) rotate(90)">
        <circle id="Elipse_11511-12" data-name="Elipse 11511" cx="10.5" cy="10.5" r="10.5" transform="translate(0.451)" fill="#27b8a6"/>
        <circle id="Elipse_11515-12" data-name="Elipse 11515" cx="5.5" cy="5.5" r="5.5" transform="translate(5.451 5)" fill="#2b7a70"/>
      </g>
    </g>
  </g>
</svg>
