<svg xmlns="http://www.w3.org/2000/svg" width="610" height="431" viewBox="0 0 610 431">
  <g id="Grupo_1102365" data-name="Grupo 1102365" transform="translate(-495 -8375)">
    <g id="Grupo_1102062" data-name="Grupo 1102062">
      <g id="Grupo_1101116" data-name="Grupo 1101116" transform="translate(737.748 8478.77)">
        <path id="Sustracción_1" data-name="Sustracción 1" d="M226.461,93H0a115.476,115.476,0,0,1,226.461,0Z" transform="translate(0 226.461) rotate(-90)" fill="#2ed4bf"/>
        <ellipse id="Elipse_11507" data-name="Elipse 11507" cx="86.5" cy="87" rx="86.5" ry="87" transform="translate(30 198.357) rotate(-90)" fill="#f2f6ff"/>
      </g>
      <line id="Línea_879" data-name="Línea 879" x1="99.555" y1="33" transform="translate(724.945 8550.5)" fill="none" stroke="#198b7d" stroke-linecap="round" stroke-width="2"/>
      <line id="Línea_882" data-name="Línea 882" x1="106.883" y2="14" transform="translate(715.617 8595.5)" fill="none" stroke="#198b7d" stroke-linecap="round" stroke-width="2"/>
      <line id="Línea_880" data-name="Línea 880" y2="89" transform="translate(824.68 8613.5)" fill="none" stroke="#198b7d" stroke-linecap="round" stroke-width="2"/>
      <rect id="Rectángulo_401596" data-name="Rectángulo 401596" width="126" height="45" rx="22.5" transform="translate(775 8375)" fill="#f2e5fd"/>
      <rect id="Rectángulo_401607" data-name="Rectángulo 401607" width="126" height="45" rx="22.5" transform="translate(979 8421)" fill="#f2e5fd"/>
      <rect id="Rectángulo_401606" data-name="Rectángulo 401606" width="126" height="45" rx="22.5" transform="translate(775 8761)" fill="#f2e5fd"/>
      <rect id="Rectángulo_401597" data-name="Rectángulo 401597" width="126" height="45" rx="22.5" transform="translate(579 8426)" fill="#f2e5fd"/>
      <rect id="Rectángulo_401598" data-name="Rectángulo 401598" width="126" height="45" rx="22.5" transform="translate(495 8498)" fill="#f2e5fd"/>
      <rect id="Rectángulo_401599" data-name="Rectángulo 401599" width="126" height="45" rx="22.5" transform="translate(495 8605)" fill="#f2e5fd"/>
      <rect id="Rectángulo_401605" data-name="Rectángulo 401605" width="126" height="45" rx="22.5" transform="translate(530 8699)" fill="#f2e5fd"/>
      <text id="nombres" transform="translate(806 8403)" fill="#12263f" font-size="16" font-family="Roboto-Bold, Roboto" font-weight="700"><tspan x="0" y="0">nombres</tspan></text>
      <text id="id_personas" transform="translate(999 8449)" fill="#12263f" font-size="16" font-family="Roboto-Bold, Roboto" font-weight="700"><tspan x="0" y="0">id_personas</tspan></text>
      <text id="identificación" transform="translate(793 8789)" fill="#12263f" font-size="16" font-family="Roboto-Bold, Roboto" font-weight="700"><tspan x="0" y="0">identificación</tspan></text>
      <text id="apellidos" transform="translate(611 8454)" fill="#12263f" font-size="16" font-family="Roboto-Bold, Roboto" font-weight="700"><tspan x="0" y="0">apellidos</tspan></text>
      <text id="correo" transform="translate(535 8526)" fill="#12263f" font-size="16" font-family="Roboto-Bold, Roboto" font-weight="700"><tspan x="0" y="0">correo</tspan></text>
      <text id="edad" transform="translate(541 8633)" fill="#12263f" font-size="16" font-family="Roboto-Bold, Roboto" font-weight="700"><tspan x="0" y="0">edad</tspan></text>
      <text id="país" transform="translate(576 8727)" fill="#12263f" font-size="16" font-family="Roboto-Bold, Roboto" font-weight="700"><tspan x="0" y="0">país</tspan></text>
      <line id="Línea_899" data-name="Línea 899" x1="48.603" y1="72" transform="translate(772.897 8497.5)" fill="none" stroke="#198b7d" stroke-linecap="round" stroke-width="2"/>
      <line id="Línea_900" data-name="Línea 900" x1="80" y2="59" transform="translate(742.5 8609.5)" fill="none" stroke="#198b7d" stroke-linecap="round" stroke-width="2"/>
      <line id="Línea_901" data-name="Línea 901" y1="61" transform="translate(824.275 8420.5)" fill="none" stroke="#a854f3" stroke-width="1" stroke-dasharray="2"/>
      <line id="Línea_910" data-name="Línea 910" y1="61" transform="translate(824.275 8700)" fill="none" stroke="#a854f3" stroke-width="1" stroke-dasharray="2"/>
      <line id="Línea_902" data-name="Línea 902" x2="18" transform="translate(697.56 8451.5)" fill="none" stroke="#a854f3" stroke-width="1" stroke-dasharray="2"/>
      <path id="Trazado_877741" data-name="Trazado 877741" d="M0,0H51" transform="translate(929 8441)" fill="none" stroke="#a854f3" stroke-width="1" stroke-dasharray="2"/>
      <line id="Línea_908" data-name="Línea 908" x2="56.551" transform="translate(656.5 8721.5)" fill="none" stroke="#a854f3" stroke-width="1" stroke-dasharray="2"/>
      <line id="Línea_904" data-name="Línea 904" x2="50" transform="translate(621 8521)" fill="none" stroke="#a854f3" stroke-width="1" stroke-dasharray="2"/>
      <line id="Línea_907" data-name="Línea 907" x2="56" transform="translate(621 8627)" fill="none" stroke="#a854f3" stroke-width="1" stroke-dasharray="2"/>
      <line id="Línea_903" data-name="Línea 903" x2="44.973" y2="46" transform="translate(718.5 8451.5)" fill="none" stroke="#a854f3" stroke-width="1" stroke-dasharray="2"/>
      <line id="Línea_914" data-name="Línea 914" x1="54" y2="43" transform="translate(875.5 8441.5)" fill="none" stroke="#a854f3" stroke-width="1" stroke-dasharray="2"/>
      <line id="Línea_909" data-name="Línea 909" y1="53" x2="26.513" transform="translate(713.5 8668.5)" fill="none" stroke="#a854f3" stroke-width="1" stroke-dasharray="2"/>
      <line id="Línea_905" data-name="Línea 905" x2="42" y2="30" transform="translate(671 8521)" fill="none" stroke="#a854f3" stroke-width="1" stroke-dasharray="2"/>
      <line id="Línea_906" data-name="Línea 906" y1="17" x2="28" transform="translate(677 8610)" fill="none" stroke="#a854f3" stroke-width="1" stroke-dasharray="2"/>
      <g id="Grupo_1101119" data-name="Grupo 1101119" transform="translate(759.077 8487)">
        <circle id="Elipse_11511" data-name="Elipse 11511" cx="10.5" cy="10.5" r="10.5" transform="translate(-0.077)" fill="#27b8a6"/>
        <circle id="Elipse_11515" data-name="Elipse 11515" cx="5.5" cy="5.5" r="5.5" transform="translate(4.923 5)" fill="#2b7a70"/>
      </g>
      <g id="Grupo_1101120" data-name="Grupo 1101120" transform="translate(706.748 8540)">
        <circle id="Elipse_11511-2" data-name="Elipse 11511" cx="10.5" cy="10.5" r="10.5" transform="translate(0.252)" fill="#27b8a6"/>
        <circle id="Elipse_11515-2" data-name="Elipse 11515" cx="5.5" cy="5.5" r="5.5" transform="translate(5.252 5)" fill="#2b7a70"/>
      </g>
      <g id="Grupo_1101137" data-name="Grupo 1101137" transform="translate(697.012 8599)">
        <circle id="Elipse_11511-3" data-name="Elipse 11511" cx="10.5" cy="10.5" r="10.5" transform="translate(-0.012)" fill="#27b8a6"/>
        <circle id="Elipse_11515-3" data-name="Elipse 11515" cx="5.5" cy="5.5" r="5.5" transform="translate(4.988 5)" fill="#2b7a70"/>
      </g>
      <g id="Grupo_1101121" data-name="Grupo 1101121" transform="translate(732.303 8658)">
        <circle id="Elipse_11511-4" data-name="Elipse 11511" cx="10.5" cy="10.5" r="10.5" transform="translate(-0.303)" fill="#27b8a6"/>
        <circle id="Elipse_11515-4" data-name="Elipse 11515" cx="5.5" cy="5.5" r="5.5" transform="translate(4.697 5)" fill="#2b7a70"/>
      </g>
      <g id="Grupo_1101136" data-name="Grupo 1101136" transform="translate(813.839 8695)">
        <circle id="Elipse_11511-5" data-name="Elipse 11511" cx="10.5" cy="10.5" r="10.5" transform="translate(0.161)" fill="#27b8a6"/>
        <circle id="Elipse_11515-5" data-name="Elipse 11515" cx="5.5" cy="5.5" r="5.5" transform="translate(5.161 5)" fill="#2b7a70"/>
      </g>
      <path id="Trazado_877406" data-name="Trazado 877406" d="M-7826.1-1306c18.6-6,38.611,0,38.611,0l11.486-25s-20.194-8.5-50.1-3S-7844.694-1300-7826.1-1306Z" transform="translate(8656.175 9814)" fill="#2ed4bf"/>
      <g id="Grupo_1101118" data-name="Grupo 1101118" transform="translate(813.839 8471)">
        <circle id="Elipse_11511-6" data-name="Elipse 11511" cx="10.5" cy="10.5" r="10.5" transform="translate(0.161)" fill="#27b8a6"/>
        <circle id="Elipse_11515-6" data-name="Elipse 11515" cx="5.5" cy="5.5" r="5.5" transform="translate(5.161 5)" fill="#2b7a70"/>
      </g>
      <line id="Línea_878" data-name="Línea 878" y1="71" transform="translate(824.777 8491.5)" fill="none" stroke="#198b7d" stroke-linecap="round" stroke-width="2"/>
      <line id="Línea_912" data-name="Línea 912" y1="80" x2="26.667" transform="translate(848.833 8487.5)" fill="none" stroke="#198b7d" stroke-linecap="round" stroke-width="2"/>
      <g id="Grupo_1101141" data-name="Grupo 1101141" transform="translate(863.469 8477)">
        <circle id="Elipse_11511-7" data-name="Elipse 11511" cx="10.5" cy="10.5" r="10.5" transform="translate(-0.469)" fill="#27b8a6"/>
        <circle id="Elipse_11515-7" data-name="Elipse 11515" cx="5.5" cy="5.5" r="5.5" transform="translate(4.531 5)" fill="#2b7a70"/>
      </g>
      <g id="Rectángulo_401590" data-name="Rectángulo 401590" transform="translate(818.679 8562)" fill="#f2f6ff" stroke="#aec4fa" stroke-width="5">
        <rect width="128" height="60" stroke="none"/>
        <rect x="2.5" y="2.5" width="123" height="55" fill="none"/>
      </g>
      <text id="Persona" transform="translate(849.222 8598)" fill="#12263f" font-size="16" font-family="Roboto-Bold, Roboto" font-weight="700"><tspan x="0" y="0">Persona</tspan></text>
      <g id="Rectángulo_401594" data-name="Rectángulo 401594" transform="translate(812.355 8557.078)" fill="none" stroke="#a854f3" stroke-width="1" stroke-dasharray="2">
        <rect width="142.145" height="69.844" stroke="none"/>
        <rect x="0.5" y="0.5" width="141.145" height="68.844" fill="none"/>
      </g>
    </g>
  </g>
</svg>
