<svg xmlns="http://www.w3.org/2000/svg" width="1030" height="431" viewBox="0 0 1030 431">
  <g id="Grupo_1102365" data-name="Grupo 1102365" transform="translate(-265 -10282)">
    <g id="Grupo_1101146" data-name="Grupo 1101146" transform="translate(-20 -832)">
      <g id="Grupo_1101117" data-name="Grupo 1101117" transform="translate(1147 11443.477) rotate(180)">
        <path id="Sustracción_1" data-name="Sustracción 1" d="M226.461,93H0a115.476,115.476,0,0,1,226.461,0Z" transform="translate(0 226.461) rotate(-90)" fill="#f3d457"/>
        <ellipse id="Elipse_11507" data-name="Elipse 11507" cx="86.5" cy="87" rx="86.5" ry="87" transform="translate(30 198.357) rotate(-90)" fill="#f2f6ff"/>
      </g>
      <line id="Línea_875" data-name="Línea 875" y1="55" x2="63.5" transform="translate(1039 11244.5)" fill="none" stroke="#d1b132" stroke-linecap="round" stroke-width="2"/>
      <line id="Línea_876" data-name="Línea 876" x2="73.5" transform="translate(1068 11329.5)" fill="none" stroke="#d1b132" stroke-linecap="round" stroke-width="2"/>
      <line id="Línea_877" data-name="Línea 877" x2="67.5" y2="54" transform="translate(1039 11359.5)" fill="none" stroke="#d1b132" stroke-linecap="round" stroke-width="2"/>
      <g id="Rectángulo_401592" data-name="Rectángulo 401592" transform="translate(913.5 11299)" fill="#f2f6ff" stroke="#aec4fa" stroke-width="5">
        <rect width="154" height="60" stroke="none"/>
        <rect x="2.5" y="2.5" width="149" height="55" fill="none"/>
      </g>
      <text id="Cuenta" transform="translate(969.322 11335)" fill="#12263f" font-size="16" font-family="Roboto-Bold, Roboto" font-weight="700"><tspan x="0" y="0">Cuenta</tspan></text>
      <g id="Rectángulo_401593" data-name="Rectángulo 401593" transform="translate(717.469 11329.5) rotate(-45)" fill="none" stroke="#a854f3" stroke-width="1" stroke-dasharray="2">
        <rect width="113.748" height="113.748" stroke="none"/>
        <rect x="0.5" y="0.5" width="112.748" height="112.748" fill="none"/>
      </g>
      <line id="Línea_881" data-name="Línea 881" x2="244" transform="translate(669.5 11330.5)" fill="none" stroke="#aec4fa" stroke-linecap="round" stroke-width="5"/>
      <g id="Rectángulo_401591" data-name="Rectángulo 401591" transform="translate(728.147 11329.5) rotate(-45)" fill="#f2f6ff" stroke="#aec4fa" stroke-width="5">
        <rect width="98.647" height="98.647" stroke="none"/>
        <rect x="2.5" y="2.5" width="93.647" height="93.647" fill="none"/>
      </g>
      <text id="Titular" transform="translate(774.479 11335)" fill="#12263f" font-size="16" font-family="Roboto-Bold, Roboto" font-weight="700"><tspan x="0" y="0">Titular</tspan></text>
      <g id="Rectángulo_401595" data-name="Rectángulo 401595" transform="translate(905 11294.078)" fill="none" stroke="#a854f3" stroke-width="1" stroke-dasharray="2">
        <rect width="169" height="69.844" stroke="none"/>
        <rect x="0.5" y="0.5" width="168" height="68.844" fill="none"/>
      </g>
      <g id="Grupo_1101122" data-name="Grupo 1101122" transform="translate(556 3562)">
        <circle id="Elipse_11511" data-name="Elipse 11511" cx="10.5" cy="10.5" r="10.5" transform="translate(536 7672)" fill="#d1b132"/>
        <circle id="Elipse_11515" data-name="Elipse 11515" cx="5.5" cy="5.5" r="5.5" transform="translate(541 7677)" fill="#95802c"/>
      </g>
      <g id="Grupo_1101125" data-name="Grupo 1101125" transform="translate(595 3648)">
        <circle id="Elipse_11511-2" data-name="Elipse 11511" cx="10.5" cy="10.5" r="10.5" transform="translate(536 7672)" fill="#d1b132"/>
        <circle id="Elipse_11515-2" data-name="Elipse 11515" cx="5.5" cy="5.5" r="5.5" transform="translate(541 7677)" fill="#95802c"/>
      </g>
      <g id="Grupo_1101126" data-name="Grupo 1101126" transform="translate(560 3731)">
        <circle id="Elipse_11511-3" data-name="Elipse 11511" cx="10.5" cy="10.5" r="10.5" transform="translate(536 7672)" fill="#d1b132"/>
        <circle id="Elipse_11515-3" data-name="Elipse 11515" cx="5.5" cy="5.5" r="5.5" transform="translate(541 7677)" fill="#95802c"/>
      </g>
      <rect id="Rectángulo_401601" data-name="Rectángulo 401601" width="144" height="45" rx="22.5" transform="translate(1126 11150)" fill="#f2e5fd"/>
      <rect id="Rectángulo_401602" data-name="Rectángulo 401602" width="126" height="45" rx="22.5" transform="translate(1189 11309)" fill="#f2e5fd"/>
      <rect id="Rectángulo_401603" data-name="Rectángulo 401603" width="144" height="45" rx="22.5" transform="translate(1126 11434)" fill="#f2e5fd"/>
      <text id="número_cuenta" transform="translate(1142 11178)" fill="#12263f" font-size="16" font-family="Roboto-Bold, Roboto" font-weight="700"><tspan x="0" y="0">número_cuenta</tspan></text>
      <text id="saldo" transform="translate(1230 11337)" fill="#12263f" font-size="16" font-family="Roboto-Bold, Roboto" font-weight="700"><tspan x="0" y="0">saldo</tspan></text>
      <text id="fecha_creación" transform="translate(1144 11462)" fill="#12263f" font-size="16" font-family="Roboto-Bold, Roboto" font-weight="700"><tspan x="0" y="0">fecha_creación</tspan></text>
      <line id="Línea_891" data-name="Línea 891" x2="20.5" transform="translate(1105 11172.5)" fill="none" stroke="#a854f3" stroke-width="1" stroke-dasharray="2"/>
      <line id="Línea_895" data-name="Línea 895" x2="20.5" transform="translate(1105 11456.5)" fill="none" stroke="#a854f3" stroke-width="1" stroke-dasharray="2"/>
      <line id="Línea_893" data-name="Línea 893" x2="48" transform="translate(1141.5 11331.5)" fill="none" stroke="#a854f3" stroke-width="1" stroke-dasharray="2"/>
      <line id="Línea_892" data-name="Línea 892" y2="67" transform="translate(1105 11172.5)" fill="none" stroke="#a854f3" stroke-width="1" stroke-dasharray="2"/>
      <line id="Línea_894" data-name="Línea 894" y2="43" transform="translate(1105 11413.5)" fill="none" stroke="#a854f3" stroke-width="1" stroke-dasharray="2"/>
      <g id="Grupo_1101145" data-name="Grupo 1101145" transform="translate(0 853)">
        <g id="Grupo_1101116" data-name="Grupo 1101116" transform="translate(464.969 10364.77)">
          <path id="Sustracción_1-2" data-name="Sustracción 1" d="M226.461,93H0a115.476,115.476,0,0,1,226.461,0Z" transform="translate(0 226.461) rotate(-90)" fill="#2ed4bf"/>
          <path id="Trazado_883912" data-name="Trazado 883912" d="M86.5,0C134.273,0,173,38.951,173,87s-38.727,87-86.5,87S0,135.049,0,87,38.727,0,86.5,0Z" transform="translate(30 198.357) rotate(-90)" fill="#f2f6ff"/>
        </g>
        <line id="Línea_879" data-name="Línea 879" x1="63" y1="33" transform="translate(470.806 10436.5)" fill="none" stroke="#198b7d" stroke-linecap="round" stroke-width="2"/>
        <line id="Línea_882" data-name="Línea 882" x1="71" y2="10" transform="translate(462.64 10485.5)" fill="none" stroke="#198b7d" stroke-linecap="round" stroke-width="2"/>
        <line id="Línea_880" data-name="Línea 880" y2="89" transform="translate(557.932 10499.5)" fill="none" stroke="#198b7d" stroke-linecap="round" stroke-width="2"/>
        <rect id="Rectángulo_401596" data-name="Rectángulo 401596" width="126" height="45" rx="22.5" transform="translate(504 10261)" fill="#f2e5fd"/>
        <rect id="Rectángulo_401607" data-name="Rectángulo 401607" width="126" height="45" rx="22.5" transform="translate(664 10307)" fill="#f2e5fd"/>
        <rect id="Rectángulo_401606" data-name="Rectángulo 401606" width="126" height="45" rx="22.5" transform="translate(504 10647)" fill="#f2e5fd"/>
        <rect id="Rectángulo_401597" data-name="Rectángulo 401597" width="126" height="45" rx="22.5" transform="translate(320 10312)" fill="#f2e5fd"/>
        <rect id="Rectángulo_401598" data-name="Rectángulo 401598" width="126" height="45" rx="22.5" transform="translate(285 10384)" fill="#f2e5fd"/>
        <rect id="Rectángulo_401599" data-name="Rectángulo 401599" width="126" height="45" rx="22.5" transform="translate(285 10491)" fill="#f2e5fd"/>
        <rect id="Rectángulo_401605" data-name="Rectángulo 401605" width="126" height="45" rx="22.5" transform="translate(320 10585)" fill="#f2e5fd"/>
        <text id="nombres" transform="translate(536 10289)" fill="#12263f" font-size="16" font-family="Roboto-Bold, Roboto" font-weight="700"><tspan x="0" y="0">nombres</tspan></text>
        <text id="id_personas" transform="translate(684 10335)" fill="#12263f" font-size="16" font-family="Roboto-Bold, Roboto" font-weight="700"><tspan x="0" y="0">id_personas</tspan></text>
        <text id="identificación" transform="translate(522 10675)" fill="#12263f" font-size="16" font-family="Roboto-Bold, Roboto" font-weight="700"><tspan x="0" y="0">identificación</tspan></text>
        <text id="apellidos" transform="translate(352 10340)" fill="#12263f" font-size="16" font-family="Roboto-Bold, Roboto" font-weight="700"><tspan x="0" y="0">apellidos</tspan></text>
        <text id="correo" transform="translate(325 10412)" fill="#12263f" font-size="16" font-family="Roboto-Bold, Roboto" font-weight="700"><tspan x="0" y="0">correo</tspan></text>
        <text id="edad" transform="translate(331 10519)" fill="#12263f" font-size="16" font-family="Roboto-Bold, Roboto" font-weight="700"><tspan x="0" y="0">edad</tspan></text>
        <text id="país" transform="translate(369 10613)" fill="#12263f" font-size="16" font-family="Roboto-Bold, Roboto" font-weight="700"><tspan x="0" y="0">país</tspan></text>
        <line id="Línea_899" data-name="Línea 899" x1="29" y1="65" transform="translate(512.675 10383.5)" fill="none" stroke="#198b7d" stroke-linecap="round" stroke-width="2"/>
        <line id="Línea_900" data-name="Línea 900" x1="47" y2="55" transform="translate(494.357 10499.5)" fill="none" stroke="#198b7d" stroke-linecap="round" stroke-width="2"/>
        <line id="Línea_901" data-name="Línea 901" y1="61" transform="translate(557.597 10306.5)" fill="none" stroke="#a854f3" stroke-width="1" stroke-dasharray="2"/>
        <line id="Línea_910" data-name="Línea 910" y1="61" transform="translate(557.597 10586)" fill="none" stroke="#a854f3" stroke-width="1" stroke-dasharray="2"/>
        <line id="Línea_902" data-name="Línea 902" x2="18" transform="translate(451.632 10337.5)" fill="none" stroke="#a854f3" stroke-width="1" stroke-dasharray="2"/>
        <line id="Línea_913" data-name="Línea 913" x2="18" transform="translate(642 10327)" fill="none" stroke="#a854f3" stroke-width="1" stroke-dasharray="2"/>
        <line id="Línea_908" data-name="Línea 908" x2="18" transform="translate(449.569 10607.5)" fill="none" stroke="#a854f3" stroke-width="1" stroke-dasharray="2"/>
        <line id="Línea_904" data-name="Línea 904" x2="18" transform="translate(415 10407)" fill="none" stroke="#a854f3" stroke-width="1" stroke-dasharray="2"/>
        <line id="Línea_907" data-name="Línea 907" x2="18" transform="translate(415 10513)" fill="none" stroke="#a854f3" stroke-width="1" stroke-dasharray="2"/>
        <line id="Línea_903" data-name="Línea 903" x2="41" y2="46" transform="translate(470.497 10337.5)" fill="none" stroke="#a854f3" stroke-width="1" stroke-dasharray="2"/>
        <line id="Línea_914" data-name="Línea 914" x1="35" y2="43" transform="translate(606.769 10327.5)" fill="none" stroke="#a854f3" stroke-width="1" stroke-dasharray="2"/>
        <line id="Línea_909" data-name="Línea 909" y1="53" x2="22" transform="translate(468.189 10554.5)" fill="none" stroke="#a854f3" stroke-width="1" stroke-dasharray="2"/>
        <line id="Línea_905" data-name="Línea 905" x2="36" y2="30" transform="translate(434 10407)" fill="none" stroke="#a854f3" stroke-width="1" stroke-dasharray="2"/>
        <line id="Línea_906" data-name="Línea 906" y1="17" x2="28" transform="translate(434 10496)" fill="none" stroke="#a854f3" stroke-width="1" stroke-dasharray="2"/>
        <g id="Grupo_1101119" data-name="Grupo 1101119" transform="translate(501.716 10373)">
          <circle id="Elipse_11511-4" data-name="Elipse 11511" cx="10.5" cy="10.5" r="10.5" transform="translate(0.284)" fill="#27b8a6"/>
          <circle id="Elipse_11515-4" data-name="Elipse 11515" cx="5.5" cy="5.5" r="5.5" transform="translate(5.284 5)" fill="#2b7a70"/>
        </g>
        <g id="Grupo_1101120" data-name="Grupo 1101120" transform="translate(459.405 10426)">
          <circle id="Elipse_11511-5" data-name="Elipse 11511" cx="10.5" cy="10.5" r="10.5" transform="translate(-0.405)" fill="#27b8a6"/>
          <circle id="Elipse_11515-5" data-name="Elipse 11515" cx="5.5" cy="5.5" r="5.5" transform="translate(4.595 5)" fill="#2b7a70"/>
        </g>
        <g id="Grupo_1101137" data-name="Grupo 1101137" transform="translate(451.149 10485)">
          <circle id="Elipse_11511-6" data-name="Elipse 11511" cx="10.5" cy="10.5" r="10.5" transform="translate(-0.149)" fill="#27b8a6"/>
          <circle id="Elipse_11515-6" data-name="Elipse 11515" cx="5.5" cy="5.5" r="5.5" transform="translate(4.851 5)" fill="#2b7a70"/>
        </g>
        <g id="Grupo_1101121" data-name="Grupo 1101121" transform="translate(480.045 10544)">
          <circle id="Elipse_11511-7" data-name="Elipse 11511" cx="10.5" cy="10.5" r="10.5" transform="translate(-0.045)" fill="#27b8a6"/>
          <circle id="Elipse_11515-7" data-name="Elipse 11515" cx="5.5" cy="5.5" r="5.5" transform="translate(4.955 5)" fill="#2b7a70"/>
        </g>
        <g id="Grupo_1101136" data-name="Grupo 1101136" transform="translate(547.124 10581)">
          <circle id="Elipse_11511-8" data-name="Elipse 11511" cx="10.5" cy="10.5" r="10.5" transform="translate(-0.124)" fill="#27b8a6"/>
          <circle id="Elipse_11515-8" data-name="Elipse 11515" cx="5.5" cy="5.5" r="5.5" transform="translate(4.876 5)" fill="#2b7a70"/>
        </g>
        <path id="Trazado_877406" data-name="Trazado 877406" d="M-7826.1-1306c18.6-6,38.611,0,38.611,0l11.486-25s-20.194-8.5-50.1-3S-7844.694-1300-7826.1-1306Z" transform="translate(8384.771 11700)" fill="#2ed4bf"/>
        <g id="Grupo_1101118" data-name="Grupo 1101118" transform="translate(547.124 10357)">
          <circle id="Elipse_11511-9" data-name="Elipse 11511" cx="10.5" cy="10.5" r="10.5" transform="translate(-0.124)" fill="#27b8a6"/>
          <circle id="Elipse_11515-9" data-name="Elipse 11515" cx="5.5" cy="5.5" r="5.5" transform="translate(4.876 5)" fill="#2b7a70"/>
        </g>
        <line id="Línea_878" data-name="Línea 878" y1="71" transform="translate(558.012 10377.5)" fill="none" stroke="#198b7d" stroke-linecap="round" stroke-width="2"/>
        <line id="Línea_912" data-name="Línea 912" y1="80" x2="31" transform="translate(574.667 10373.5)" fill="none" stroke="#198b7d" stroke-linecap="round" stroke-width="2"/>
        <g id="Grupo_1101141" data-name="Grupo 1101141" transform="translate(595.627 10363)">
          <circle id="Elipse_11511-10" data-name="Elipse 11511" cx="10.5" cy="10.5" r="10.5" transform="translate(0.373)" fill="#27b8a6"/>
          <circle id="Elipse_11515-10" data-name="Elipse 11515" cx="5.5" cy="5.5" r="5.5" transform="translate(5.373 5)" fill="#2b7a70"/>
        </g>
        <g id="Rectángulo_401590" data-name="Rectángulo 401590" transform="translate(534.147 10448)" fill="#f2f6ff" stroke="#aec4fa" stroke-width="5">
          <rect width="154" height="60" stroke="none"/>
          <rect x="2.5" y="2.5" width="149" height="55" fill="none"/>
        </g>
        <text id="Persona" transform="translate(571.721 10484)" fill="#12263f" font-size="16" font-family="Roboto-Bold, Roboto" font-weight="700"><tspan x="0" y="0">Persona</tspan></text>
        <g id="Rectángulo_401594" data-name="Rectángulo 401594" transform="translate(526.794 10443.078)" fill="none" stroke="#a854f3" stroke-width="1" stroke-dasharray="2">
          <rect width="169" height="69.844" stroke="none"/>
          <rect x="0.5" y="0.5" width="168" height="68.844" fill="none"/>
        </g>
      </g>
      <text id="_1" data-name="1" transform="translate(714 11324)" fill="#12263f" font-size="16" font-family="Roboto-Bold, Roboto" font-weight="700"><tspan x="-9.18" y="0">1</tspan></text>
      <text id="N" transform="translate(895 11324)" fill="#12263f" font-size="16" font-family="Roboto-Bold, Roboto" font-weight="700"><tspan x="-11.297" y="0">N</tspan></text>
      <line id="Línea_915" data-name="Línea 915" x2="97" transform="translate(522.5 11533.5)" fill="none" stroke="#a854f3" stroke-width="1"/>
    </g>
  </g>
</svg>
