<svg xmlns="http://www.w3.org/2000/svg" width="459.5" height="700.894" viewBox="0 0 459.5 700.894">
  <g id="Grupo_1102282" data-name="Grupo 1102282" transform="translate(3132 1403.5)">
    <g id="Grupo_1101116" data-name="Grupo 1101116" transform="translate(-2789.77 -1273.031) rotate(90)">
      <path id="Sustracción_1" data-name="Sustracción 1" d="M226.461,93H0a115.476,115.476,0,0,1,226.461,0Z" transform="translate(0 226.461) rotate(-90)" fill="#2ed4bf"/>
      <ellipse id="Elipse_11507" data-name="Elipse 11507" cx="86.5" cy="87" rx="86.5" ry="87" transform="translate(30 198.357) rotate(-90)" fill="#f2f6ff"/>
    </g>
    <line id="Línea_879" data-name="Línea 879" x1="63" y1="33" transform="translate(-2861.5 -1267.194) rotate(90)" fill="none" stroke="#198b7d" stroke-linecap="round" stroke-width="2"/>
    <line id="Línea_882" data-name="Línea 882" x1="71" y2="10" transform="translate(-2910.5 -1275.36) rotate(90)" fill="none" stroke="#198b7d" stroke-linecap="round" stroke-width="2"/>
    <line id="Línea_880" data-name="Línea 880" y2="89" transform="translate(-2924.5 -1180.068) rotate(90)" fill="none" stroke="#198b7d" stroke-linecap="round" stroke-width="2"/>
    <rect id="Rectángulo_401596" data-name="Rectángulo 401596" width="98" height="45" rx="22.5" transform="translate(-2785 -1240)" fill="#f2e5fd"/>
    <rect id="Rectángulo_401607" data-name="Rectángulo 401607" width="126" height="45" rx="22.5" transform="translate(-2817.5 -1111.136)" fill="#f2e5fd"/>
    <rect id="Rectángulo_401606" data-name="Rectángulo 401606" width="126" height="45" rx="22.5" transform="translate(-3132 -1247.191)" fill="#f2e5fd"/>
    <rect id="Rectángulo_401597" data-name="Rectángulo 401597" width="126" height="45" rx="22.5" transform="translate(-2822.5 -1331.598)" fill="#f2e5fd"/>
    <rect id="Rectángulo_401598" data-name="Rectángulo 401598" width="126" height="45" rx="22.5" transform="translate(-2871 -1403.5)" fill="#f2e5fd"/>
    <rect id="Rectángulo_401599" data-name="Rectángulo 401599" width="126" height="45" rx="22.5" transform="translate(-3004.5 -1381.5)" fill="#f2e5fd"/>
    <rect id="Rectángulo_401605" data-name="Rectángulo 401605" width="126" height="45" rx="22.5" transform="translate(-3110.5 -1332)" fill="#f2e5fd"/>
    <text id="nombres" transform="translate(-2767 -1212)" fill="#12263f" font-size="16" font-family="Roboto-Bold, Roboto" font-weight="700"><tspan x="0" y="0">nombres</tspan></text>
    <text id="id_personas" transform="translate(-2797.5 -1083.136)" fill="#12263f" font-size="16" font-family="Roboto-Bold, Roboto" font-weight="700"><tspan x="0" y="0">id_personas</tspan></text>
    <text id="identificación" transform="translate(-3114 -1219.191)" fill="#12263f" font-size="16" font-family="Roboto-Bold, Roboto" font-weight="700"><tspan x="0" y="0">identificación</tspan></text>
    <text id="apellidos" transform="translate(-2790.5 -1303.598)" fill="#12263f" font-size="16" font-family="Roboto-Bold, Roboto" font-weight="700"><tspan x="0" y="0">apellidos</tspan></text>
    <text id="correo" transform="translate(-2831 -1375.5)" fill="#12263f" font-size="16" font-family="Roboto-Bold, Roboto" font-weight="700"><tspan x="0" y="0">correo</tspan></text>
    <text id="edad" transform="translate(-2958.5 -1353.5)" fill="#12263f" font-size="16" font-family="Roboto-Bold, Roboto" font-weight="700"><tspan x="0" y="0">edad</tspan></text>
    <text id="país" transform="translate(-3061.5 -1304)" fill="#12263f" font-size="16" font-family="Roboto-Bold, Roboto" font-weight="700"><tspan x="0" y="0">país</tspan></text>
    <line id="Línea_899" data-name="Línea 899" x1="29" y1="65" transform="translate(-2808.5 -1225.325) rotate(90)" fill="none" stroke="#198b7d" stroke-linecap="round" stroke-width="2"/>
    <line id="Línea_900" data-name="Línea 900" x1="47" y2="55" transform="translate(-2924.5 -1243.643) rotate(90)" fill="none" stroke="#198b7d" stroke-linecap="round" stroke-width="2"/>
    <line id="Línea_901" data-name="Línea 901" x2="48" transform="translate(-2792.5 -1180.403)" fill="none" stroke="#a854f3" stroke-width="1" stroke-dasharray="2"/>
    <line id="Línea_910" data-name="Línea 910" y1="61" transform="translate(-3011 -1180.403) rotate(90)" fill="none" stroke="#a854f3" stroke-width="1" stroke-dasharray="2"/>
    <line id="Línea_902" data-name="Línea 902" x2="18" transform="translate(-2762.5 -1286.368) rotate(90)" fill="none" stroke="#a854f3" stroke-width="1" stroke-dasharray="2"/>
    <line id="Línea_1099" data-name="Línea 1099" y2="16.746" transform="translate(-2745 -1196.5)" fill="none" stroke="#a854f3" stroke-width="1" stroke-dasharray="2"/>
    <line id="Línea_913" data-name="Línea 913" x2="18" transform="translate(-2738 -1130) rotate(90)" fill="none" stroke="#a854f3" stroke-width="1" stroke-dasharray="2"/>
    <line id="Línea_908" data-name="Línea 908" x2="18" transform="translate(-3032.5 -1288.431) rotate(90)" fill="none" stroke="#a854f3" stroke-width="1" stroke-dasharray="2"/>
    <line id="Línea_1098" data-name="Línea 1098" x2="18" transform="translate(-3072.5 -1200.755) rotate(90)" fill="none" stroke="#a854f3" stroke-width="1" stroke-dasharray="2"/>
    <line id="Línea_904" data-name="Línea 904" y2="54" transform="translate(-2832 -1358)" fill="none" stroke="#a854f3" stroke-width="1" stroke-dasharray="2"/>
    <line id="Línea_907" data-name="Línea 907" y2="31" transform="translate(-2938 -1336)" fill="none" stroke="#a854f3" stroke-width="1" stroke-dasharray="2"/>
    <line id="Línea_903" data-name="Línea 903" x2="41" y2="46" transform="translate(-2762.5 -1267.503) rotate(90)" fill="none" stroke="#a854f3" stroke-width="1" stroke-dasharray="2"/>
    <line id="Línea_914" data-name="Línea 914" x1="57" transform="translate(-2795.5 -1131.231)" fill="none" stroke="#a854f3" stroke-width="1" stroke-dasharray="2"/>
    <line id="Línea_909" data-name="Línea 909" y1="53" x2="22" transform="translate(-2979.5 -1269.811) rotate(90)" fill="none" stroke="#a854f3" stroke-width="1" stroke-dasharray="2"/>
    <line id="Línea_905" data-name="Línea 905" x2="36" y2="30" transform="translate(-2832 -1304) rotate(90)" fill="none" stroke="#a854f3" stroke-width="1" stroke-dasharray="2"/>
    <line id="Línea_906" data-name="Línea 906" y1="17" x2="28" transform="translate(-2921 -1304) rotate(90)" fill="none" stroke="#a854f3" stroke-width="1" stroke-dasharray="2"/>
    <g id="Grupo_1101119" data-name="Grupo 1101119" transform="translate(-2798 -1236.284) rotate(90)">
      <circle id="Elipse_11511" data-name="Elipse 11511" cx="10.5" cy="10.5" r="10.5" transform="translate(0.284)" fill="#27b8a6"/>
      <circle id="Elipse_11515" data-name="Elipse 11515" cx="5.5" cy="5.5" r="5.5" transform="translate(5.284 5)" fill="#2b7a70"/>
    </g>
    <g id="Grupo_1101120" data-name="Grupo 1101120" transform="translate(-2851 -1278.595) rotate(90)">
      <circle id="Elipse_11511-2" data-name="Elipse 11511" cx="10.5" cy="10.5" r="10.5" transform="translate(-0.405)" fill="#27b8a6"/>
      <circle id="Elipse_11515-2" data-name="Elipse 11515" cx="5.5" cy="5.5" r="5.5" transform="translate(4.595 5)" fill="#2b7a70"/>
    </g>
    <g id="Grupo_1101137" data-name="Grupo 1101137" transform="translate(-2910 -1286.851) rotate(90)">
      <circle id="Elipse_11511-3" data-name="Elipse 11511" cx="10.5" cy="10.5" r="10.5" transform="translate(-0.149)" fill="#27b8a6"/>
      <circle id="Elipse_11515-3" data-name="Elipse 11515" cx="5.5" cy="5.5" r="5.5" transform="translate(4.851 5)" fill="#2b7a70"/>
    </g>
    <g id="Grupo_1101121" data-name="Grupo 1101121" transform="translate(-2969 -1257.955) rotate(90)">
      <circle id="Elipse_11511-4" data-name="Elipse 11511" cx="10.5" cy="10.5" r="10.5" transform="translate(-0.045)" fill="#27b8a6"/>
      <circle id="Elipse_11515-4" data-name="Elipse 11515" cx="5.5" cy="5.5" r="5.5" transform="translate(4.955 5)" fill="#2b7a70"/>
    </g>
    <g id="Grupo_1101136" data-name="Grupo 1101136" transform="translate(-3006 -1190.876) rotate(90)">
      <circle id="Elipse_11511-5" data-name="Elipse 11511" cx="10.5" cy="10.5" r="10.5" transform="translate(-0.124)" fill="#27b8a6"/>
      <circle id="Elipse_11515-5" data-name="Elipse 11515" cx="5.5" cy="5.5" r="5.5" transform="translate(4.876 5)" fill="#2b7a70"/>
    </g>
    <path id="Trazado_877406" data-name="Trazado 877406" d="M-7826.1-1306c18.6-6,38.611,0,38.611,0l11.486-25s-20.194-8.5-50.1-3S-7844.694-1300-7826.1-1306Z" transform="translate(-4125 6646.771) rotate(90)" fill="#2ed4bf"/>
    <g id="Grupo_1101118" data-name="Grupo 1101118" transform="translate(-2782 -1190.876) rotate(90)">
      <circle id="Elipse_11511-6" data-name="Elipse 11511" cx="10.5" cy="10.5" r="10.5" transform="translate(-0.124)" fill="#27b8a6"/>
      <circle id="Elipse_11515-6" data-name="Elipse 11515" cx="5.5" cy="5.5" r="5.5" transform="translate(4.876 5)" fill="#2b7a70"/>
    </g>
    <line id="Línea_878" data-name="Línea 878" y1="71" transform="translate(-2802.5 -1179.988) rotate(90)" fill="none" stroke="#198b7d" stroke-linecap="round" stroke-width="2"/>
    <line id="Línea_912" data-name="Línea 912" y1="80" x2="31" transform="translate(-2798.5 -1163.333) rotate(90)" fill="none" stroke="#198b7d" stroke-linecap="round" stroke-width="2"/>
    <g id="Grupo_1101141" data-name="Grupo 1101141" transform="translate(-2788 -1142.373) rotate(90)">
      <circle id="Elipse_11511-7" data-name="Elipse 11511" cx="10.5" cy="10.5" r="10.5" transform="translate(0.373)" fill="#27b8a6"/>
      <circle id="Elipse_11515-7" data-name="Elipse 11515" cx="5.5" cy="5.5" r="5.5" transform="translate(5.373 5)" fill="#2b7a70"/>
    </g>
    <g id="Rectángulo_401590" data-name="Rectángulo 401590" transform="translate(-2980 -1212.755)" fill="#f2f6ff" stroke="#aec4fa" stroke-width="5">
      <rect width="154" height="60" stroke="none"/>
      <rect x="2.5" y="2.5" width="149" height="55" fill="none"/>
    </g>
    <text id="Persona" transform="translate(-2933 -1176.755)" fill="#12263f" font-size="16" font-family="Roboto-Bold, Roboto" font-weight="700"><tspan x="0" y="0">Persona</tspan></text>
    <g id="Rectángulo_401594" data-name="Rectángulo 401594" transform="translate(-2988 -1217.677)" fill="none" stroke="#a854f3" stroke-width="1" stroke-dasharray="2">
      <rect width="169" height="69.844" stroke="none"/>
      <rect x="0.5" y="0.5" width="168" height="68.844" fill="none"/>
    </g>
    <text id="_1" data-name="1" transform="translate(-2910.5 -1108.256)" fill="#12263f" font-size="16" font-family="Roboto-Bold, Roboto" font-weight="700"><tspan x="-9.18" y="0">1</tspan></text>
    <g id="Grupo_1101117" data-name="Grupo 1101117" transform="translate(-3015.477 -785.606) rotate(-90)">
      <path id="Sustracción_1-2" data-name="Sustracción 1" d="M226.461,93H0a115.476,115.476,0,0,1,226.461,0Z" transform="translate(0 226.461) rotate(-90)" fill="#f3d457"/>
      <ellipse id="Elipse_11507-2" data-name="Elipse 11507" cx="86.5" cy="87" rx="86.5" ry="87" transform="translate(30 198.357) rotate(-90)" fill="#f2f6ff"/>
    </g>
    <line id="Línea_875" data-name="Línea 875" y1="55" x2="63.5" transform="translate(-2816.5 -893.606) rotate(90)" fill="none" stroke="#d1b132" stroke-linecap="round" stroke-width="2"/>
    <line id="Línea_876" data-name="Línea 876" x2="73.5" transform="translate(-2901.5 -864.606) rotate(90)" fill="none" stroke="#d1b132" stroke-linecap="round" stroke-width="2"/>
    <line id="Línea_877" data-name="Línea 877" x2="67.5" y2="54" transform="translate(-2931.5 -893.606) rotate(90)" fill="none" stroke="#d1b132" stroke-linecap="round" stroke-width="2"/>
    <g id="Grupo_1101122" data-name="Grupo 1101122" transform="translate(4866 -1376.606) rotate(90)">
      <circle id="Elipse_11511-8" data-name="Elipse 11511" cx="10.5" cy="10.5" r="10.5" transform="translate(536 7672)" fill="#d1b132"/>
      <circle id="Elipse_11515-8" data-name="Elipse 11515" cx="5.5" cy="5.5" r="5.5" transform="translate(541 7677)" fill="#95802c"/>
    </g>
    <g id="Grupo_1101125" data-name="Grupo 1101125" transform="translate(4780 -1337.606) rotate(90)">
      <circle id="Elipse_11511-9" data-name="Elipse 11511" cx="10.5" cy="10.5" r="10.5" transform="translate(536 7672)" fill="#d1b132"/>
      <circle id="Elipse_11515-9" data-name="Elipse 11515" cx="5.5" cy="5.5" r="5.5" transform="translate(541 7677)" fill="#95802c"/>
    </g>
    <g id="Grupo_1101126" data-name="Grupo 1101126" transform="translate(4697 -1372.606) rotate(90)">
      <circle id="Elipse_11511-10" data-name="Elipse 11511" cx="10.5" cy="10.5" r="10.5" transform="translate(536 7672)" fill="#d1b132"/>
      <circle id="Elipse_11515-10" data-name="Elipse 11515" cx="5.5" cy="5.5" r="5.5" transform="translate(541 7677)" fill="#95802c"/>
    </g>
    <rect id="Rectángulo_401601" data-name="Rectángulo 401601" width="144" height="45" rx="22.5" transform="translate(-2816.5 -797.951)" fill="#f2e5fd"/>
    <rect id="Rectángulo_401602" data-name="Rectángulo 401602" width="126" height="45" rx="22.5" transform="translate(-2966.5 -747.606)" fill="#f2e5fd"/>
    <rect id="Rectángulo_401603" data-name="Rectángulo 401603" width="144" height="45" rx="22.5" transform="translate(-3100.5 -797.951)" fill="#f2e5fd"/>
    <text id="número_cuenta" transform="translate(-2800.5 -769.951)" fill="#12263f" font-size="16" font-family="Roboto-Bold, Roboto" font-weight="700"><tspan x="0" y="0">número_cuenta</tspan></text>
    <text id="saldo" transform="translate(-2925.5 -719.606)" fill="#12263f" font-size="16" font-family="Roboto-Bold, Roboto" font-weight="700"><tspan x="0" y="0">saldo</tspan></text>
    <text id="fecha_creación" transform="translate(-3082.5 -769.951)" fill="#12263f" font-size="16" font-family="Roboto-Bold, Roboto" font-weight="700"><tspan x="0" y="0">fecha_creación</tspan></text>
    <line id="Línea_891" data-name="Línea 891" y2="30.106" transform="translate(-2744.5 -827.606)" fill="none" stroke="#a854f3" stroke-width="1" stroke-dasharray="2"/>
    <line id="Línea_895" data-name="Línea 895" y2="30.106" transform="translate(-3028.5 -827.606)" fill="none" stroke="#a854f3" stroke-width="1" stroke-dasharray="2"/>
    <line id="Línea_893" data-name="Línea 893" y2="43.606" transform="translate(-2903.5 -791.106)" fill="none" stroke="#a854f3" stroke-width="1" stroke-dasharray="2"/>
    <line id="Línea_892" data-name="Línea 892" y2="67" transform="translate(-2744.5 -827.606) rotate(90)" fill="none" stroke="#a854f3" stroke-width="1" stroke-dasharray="2"/>
    <line id="Línea_894" data-name="Línea 894" y2="43" transform="translate(-2985.5 -827.606) rotate(90)" fill="none" stroke="#a854f3" stroke-width="1" stroke-dasharray="2"/>
    <line id="Línea_881" data-name="Línea 881" y2="241" transform="translate(-2903 -1152.5)" fill="none" stroke="#aec4fa" stroke-linecap="round" stroke-width="5"/>
    <g id="Grupo_1102281" data-name="Grupo 1102281">
      <g id="Rectángulo_401593" data-name="Rectángulo 401593" transform="translate(-2983.197 -1017.704) rotate(-45)" fill="none" stroke="#a854f3" stroke-width="1" stroke-dasharray="2">
        <rect width="113.748" height="113.748" stroke="none"/>
        <rect x="0.5" y="0.5" width="112.748" height="112.748" fill="none"/>
      </g>
      <g id="Rectángulo_401591" data-name="Rectángulo 401591" transform="translate(-2972.519 -1017.704) rotate(-45)" fill="#f2f6ff" stroke="#aec4fa" stroke-width="5">
        <rect width="98.647" height="98.647" stroke="none"/>
        <rect x="2.5" y="2.5" width="93.647" height="93.647" fill="none"/>
      </g>
      <text id="Titular" transform="translate(-2926.187 -1012.204)" fill="#12263f" font-size="16" font-family="Roboto-Bold, Roboto" font-weight="700"><tspan x="0" y="0">Titular</tspan></text>
    </g>
    <g id="Rectángulo_401592" data-name="Rectángulo 401592" transform="translate(-2977 -916.45)" fill="#f2f6ff" stroke="#aec4fa" stroke-width="5">
      <rect width="154" height="60" stroke="none"/>
      <rect x="2.5" y="2.5" width="149" height="55" fill="none"/>
    </g>
    <text id="Cuenta" transform="translate(-2926 -880.45)" fill="#12263f" font-size="16" font-family="Roboto-Bold, Roboto" font-weight="700"><tspan x="0" y="0">Cuenta</tspan></text>
    <g id="Rectángulo_401595" data-name="Rectángulo 401595" transform="translate(-2985.5 -921.372)" fill="none" stroke="#a854f3" stroke-width="1" stroke-dasharray="2">
      <rect width="169" height="69.844" stroke="none"/>
      <rect x="0.5" y="0.5" width="168" height="68.844" fill="none"/>
    </g>
    <text id="N" transform="translate(-2881 -928)" fill="#12263f" font-size="16" font-family="Roboto-Bold, Roboto" font-weight="700"><tspan x="-11.297" y="0">N</tspan></text>
  </g>
</svg>
