<svg xmlns="http://www.w3.org/2000/svg" width="1029" height="338" viewBox="0 0 1029 338">
  <g id="Grupo_1102365" data-name="Grupo 1102365" transform="translate(-286 -6365)">
    <g id="Grupo_1102327" data-name="Grupo 1102327">
      <g id="Grupo_1101116" data-name="Grupo 1101116" transform="translate(432 6430.77)">
        <path id="Sustracción_1" data-name="Sustracción 1" d="M226.461,93H0a115.476,115.476,0,0,1,226.461,0Z" transform="translate(0 226.461) rotate(-90)" fill="#2ed4bf"/>
        <ellipse id="Elipse_11507" data-name="Elipse 11507" cx="86.5" cy="87" rx="86.5" ry="87" transform="translate(30 198.357) rotate(-90)" fill="#f2f6ff"/>
      </g>
      <g id="Grupo_1101117" data-name="Grupo 1101117" transform="translate(1192 6658.477) rotate(180)">
        <path id="Sustracción_1-2" data-name="Sustracción 1" d="M226.461,93H0a115.476,115.476,0,0,1,226.461,0Z" transform="translate(0 226.461) rotate(-90)" fill="#f3d457"/>
        <ellipse id="Elipse_11507-2" data-name="Elipse 11507" cx="86.5" cy="87" rx="86.5" ry="87" transform="translate(30 198.357) rotate(-90)" fill="#f2f6ff"/>
      </g>
      <line id="Línea_875" data-name="Línea 875" y1="55" x2="63.5" transform="translate(1075.82 6459.5)" fill="none" stroke="#d1b132" stroke-linecap="round" stroke-width="2"/>
      <line id="Línea_978" data-name="Línea 978" y1="58" transform="translate(821.333 6421.5)" fill="none" stroke="#3a1d71" stroke-linecap="round" stroke-width="2"/>
      <line id="Línea_878" data-name="Línea 878" x1="62" y1="60" transform="translate(493.178 6454.5)" fill="none" stroke="#198b7d" stroke-linecap="round" stroke-width="2"/>
      <line id="Línea_879" data-name="Línea 879" x1="75" y1="31" transform="translate(450.288 6504.5)" fill="none" stroke="#198b7d" stroke-linecap="round" stroke-width="2"/>
      <line id="Línea_882" data-name="Línea 882" x1="79" y2="15" transform="translate(446.124 6550.5)" fill="none" stroke="#198b7d" stroke-linecap="round" stroke-width="2"/>
      <line id="Línea_877" data-name="Línea 877" x2="67.5" y2="54" transform="translate(1075.981 6574.5)" fill="none" stroke="#d1b132" stroke-linecap="round" stroke-width="2"/>
      <line id="Línea_880" data-name="Línea 880" x1="69" y2="62" transform="translate(485.908 6565.5)" fill="none" stroke="#198b7d" stroke-linecap="round" stroke-width="2"/>
      <g id="Rectángulo_401592" data-name="Rectángulo 401592" transform="translate(947.534 6514)" fill="#f2f6ff" stroke="#aec4fa" stroke-width="5">
        <rect width="154" height="60" stroke="none"/>
        <rect x="2.5" y="2.5" width="149" height="55" fill="none"/>
      </g>
      <text id="Producto" transform="translate(990.43 6550)" fill="#12263f" font-size="16" font-family="Roboto-Bold, Roboto" font-weight="700"><tspan x="0" y="0">Producto</tspan></text>
      <g id="Rectángulo_401590" data-name="Rectángulo 401590" transform="translate(527.982 6514)" fill="#f2f6ff" stroke="#aec4fa" stroke-width="5">
        <rect width="154" height="60" stroke="none"/>
        <rect x="2.5" y="2.5" width="149" height="55" fill="none"/>
      </g>
      <text id="Proveedor" transform="translate(569.125 6550)" fill="#12263f" font-size="16" font-family="Roboto-Bold, Roboto" font-weight="700"><tspan x="0" y="0">Proveedor</tspan></text>
      <g id="Rectángulo_401593" data-name="Rectángulo 401593" transform="translate(741.083 6544.5) rotate(-45)" fill="none" stroke="#a854f3" stroke-width="1" stroke-dasharray="2">
        <rect width="113.748" height="113.748" stroke="none"/>
        <rect x="0.5" y="0.5" width="112.748" height="112.748" fill="none"/>
      </g>
      <line id="Línea_881" data-name="Línea 881" x2="244" transform="translate(692.85 6545.5)" fill="none" stroke="#aec4fa" stroke-linecap="round" stroke-width="5"/>
      <g id="Rectángulo_401591" data-name="Rectángulo 401591" transform="translate(751.733 6544.5) rotate(-45)" fill="#f2f6ff" stroke="#aec4fa" stroke-width="5">
        <rect width="98.647" height="98.647" stroke="none"/>
        <rect x="2.5" y="2.5" width="93.647" height="93.647" fill="none"/>
      </g>
      <text id="Provee" transform="translate(798.012 6550)" fill="#12263f" font-size="16" font-family="Roboto-Bold, Roboto" font-weight="700"><tspan x="0" y="0">Provee</tspan></text>
      <text id="N" transform="translate(713 6529)" fill="#12263f" font-size="16" font-family="Roboto-Bold, Roboto" font-weight="700"><tspan x="0" y="0">N</tspan></text>
      <text id="N-2" data-name="N" transform="translate(907 6529)" fill="#12263f" font-size="16" font-family="Roboto-Bold, Roboto" font-weight="700"><tspan x="0" y="0">N</tspan></text>
      <g id="Rectángulo_401594" data-name="Rectángulo 401594" transform="translate(520.298 6509.078)" fill="none" stroke="#a854f3" stroke-width="1" stroke-dasharray="2">
        <rect width="169" height="69.844" stroke="none"/>
        <rect x="0.5" y="0.5" width="168" height="68.844" fill="none"/>
      </g>
      <g id="Rectángulo_401595" data-name="Rectángulo 401595" transform="translate(939.191 6509.078)" fill="none" stroke="#a854f3" stroke-width="1" stroke-dasharray="2">
        <rect width="169" height="69.844" stroke="none"/>
        <rect x="0.5" y="0.5" width="168" height="68.844" fill="none"/>
      </g>
      <g id="Grupo_1101118" data-name="Grupo 1101118" transform="translate(481.776 6444)">
        <circle id="Elipse_11511" data-name="Elipse 11511" cx="10.5" cy="10.5" r="10.5" transform="translate(0.224)" fill="#27b8a6"/>
        <circle id="Elipse_11515" data-name="Elipse 11515" cx="5.5" cy="5.5" r="5.5" transform="translate(5.224 5)" fill="#2b7a70"/>
      </g>
      <g id="Grupo_1101119" data-name="Grupo 1101119" transform="translate(432 6494)">
        <circle id="Elipse_11511-2" data-name="Elipse 11511" cx="10.5" cy="10.5" r="10.5" fill="#27b8a6"/>
        <circle id="Elipse_11515-2" data-name="Elipse 11515" cx="5.5" cy="5.5" r="5.5" transform="translate(5 5)" fill="#2b7a70"/>
      </g>
      <g id="Grupo_1101120" data-name="Grupo 1101120" transform="translate(428 6558)">
        <circle id="Elipse_11511-3" data-name="Elipse 11511" cx="10.5" cy="10.5" r="10.5" fill="#27b8a6"/>
        <circle id="Elipse_11515-3" data-name="Elipse 11515" cx="5.5" cy="5.5" r="5.5" transform="translate(5 5)" fill="#2b7a70"/>
      </g>
      <g id="Grupo_1101121" data-name="Grupo 1101121" transform="translate(474.449 6617)">
        <circle id="Elipse_11511-4" data-name="Elipse 11511" cx="10.5" cy="10.5" r="10.5" transform="translate(-0.449)" fill="#27b8a6"/>
        <circle id="Elipse_11515-4" data-name="Elipse 11515" cx="5.5" cy="5.5" r="5.5" transform="translate(4.551 5)" fill="#2b7a70"/>
      </g>
      <rect id="Rectángulo_401596" data-name="Rectángulo 401596" width="126" height="45" rx="22.5" transform="translate(307 6365)" fill="#f2e5fd"/>
      <rect id="Rectángulo_401650" data-name="Rectángulo 401650" width="126" height="45" rx="22.5" transform="translate(759 6365)" fill="#f2e5fd"/>
      <rect id="Rectángulo_401597" data-name="Rectángulo 401597" width="126" height="45" rx="22.5" transform="translate(286 6460)" fill="#f2e5fd"/>
      <rect id="Rectángulo_401601" data-name="Rectángulo 401601" width="144" height="45" rx="22.5" transform="translate(1171 6365)" fill="#f2e5fd"/>
      <rect id="Rectángulo_401598" data-name="Rectángulo 401598" width="126" height="45" rx="22.5" transform="translate(286 6575)" fill="#f2e5fd"/>
      <rect id="Rectángulo_401599" data-name="Rectángulo 401599" width="126" height="45" rx="22.5" transform="translate(307 6658)" fill="#f2e5fd"/>
      <rect id="Rectángulo_401603" data-name="Rectángulo 401603" width="144" height="45" rx="22.5" transform="translate(1171 6649)" fill="#f2e5fd"/>
      <text id="nit_proveedor" transform="translate(321 6393)" fill="#12263f" font-size="16" font-family="Roboto-Bold, Roboto" font-weight="700"><tspan x="0" y="0">nit_proveedor</tspan></text>
      <text id="precio" transform="translate(802 6393)" fill="#12263f" font-size="16" font-family="Roboto-Bold, Roboto" font-weight="700"><tspan x="0" y="0">precio</tspan></text>
      <text id="nombres" transform="translate(318 6488)" fill="#12263f" font-size="16" font-family="Roboto-Bold, Roboto" font-weight="700"><tspan x="0" y="0">nombres</tspan></text>
      <text id="código_producto" transform="translate(1187 6393)" fill="#12263f" font-size="16" font-family="Roboto-Bold, Roboto" font-weight="700"><tspan x="0" y="0">código_producto</tspan></text>
      <text id="correo" transform="translate(325 6603)" fill="#12263f" font-size="16" font-family="Roboto-Bold, Roboto" font-weight="700"><tspan x="0" y="0">correo</tspan></text>
      <text id="teléfono" transform="translate(341 6686)" fill="#12263f" font-size="16" font-family="Roboto-Bold, Roboto" font-weight="700"><tspan x="0" y="0">teléfono</tspan></text>
      <text id="Producto-2" data-name="Producto" transform="translate(1205 6677)" fill="#12263f" font-size="16" font-family="Roboto-Bold, Roboto" font-weight="700"><tspan x="0" y="0">Producto</tspan></text>
      <line id="Línea_883" data-name="Línea 883" x2="63" transform="translate(432.5 6387.5)" fill="none" stroke="#a854f3" stroke-width="1" stroke-dasharray="2"/>
      <line id="Línea_891" data-name="Línea 891" x2="20.5" transform="translate(1150 6387.5)" fill="none" stroke="#a854f3" stroke-width="1" stroke-dasharray="2"/>
      <line id="Línea_895" data-name="Línea 895" x2="20.5" transform="translate(1150 6671.5)" fill="none" stroke="#a854f3" stroke-width="1" stroke-dasharray="2"/>
      <line id="Línea_890" data-name="Línea 890" x2="43" transform="translate(433.5 6681.27)" fill="none" stroke="#a854f3" stroke-width="1" stroke-dasharray="2"/>
      <line id="Línea_884" data-name="Línea 884" y2="60" transform="translate(492.569 6387.5)" fill="none" stroke="#a854f3" stroke-width="1" stroke-dasharray="2"/>
      <line id="Línea_892" data-name="Línea 892" y2="67" transform="translate(1150 6387.5)" fill="none" stroke="#a854f3" stroke-width="1" stroke-dasharray="2"/>
      <line id="Línea_894" data-name="Línea 894" y2="43" transform="translate(1150 6628.5)" fill="none" stroke="#a854f3" stroke-width="1" stroke-dasharray="2"/>
      <line id="Línea_889" data-name="Línea 889" y2="49" transform="translate(476.5 6632.5)" fill="none" stroke="#a854f3" stroke-width="1" stroke-dasharray="2"/>
      <line id="Línea_885" data-name="Línea 885" y1="25" transform="translate(442.5 6479.5)" fill="none" stroke="#a854f3" stroke-width="1" stroke-dasharray="2"/>
      <line id="Línea_888" data-name="Línea 888" y1="25" transform="translate(439.155 6575.5)" fill="none" stroke="#a854f3" stroke-width="1" stroke-dasharray="2"/>
      <line id="Línea_886" data-name="Línea 886" x1="30" transform="translate(412.5 6479.5)" fill="none" stroke="#a854f3" stroke-width="1" stroke-dasharray="2"/>
      <line id="Línea_887" data-name="Línea 887" x1="23.531" transform="translate(412.5 6599.932)" fill="none" stroke="#a854f3" stroke-width="1" stroke-dasharray="2"/>
      <g id="Grupo_1101122" data-name="Grupo 1101122" transform="translate(1137 6449)">
        <circle id="Elipse_11511-5" data-name="Elipse 11511" cx="10.5" cy="10.5" r="10.5" fill="#d1b132"/>
        <circle id="Elipse_11515-5" data-name="Elipse 11515" cx="5.5" cy="5.5" r="5.5" transform="translate(5 5)" fill="#95802c"/>
      </g>
      <g id="Grupo_1101199" data-name="Grupo 1101199" transform="translate(810.434 6411)">
        <circle id="Elipse_11511-6" data-name="Elipse 11511" cx="10.5" cy="10.5" r="10.5" transform="translate(-0.434)" fill="#3a1d71"/>
        <circle id="Elipse_11515-6" data-name="Elipse 11515" cx="5.5" cy="5.5" r="5.5" transform="translate(4.566 5)" fill="#beb4d0"/>
      </g>
      <g id="Grupo_1101126" data-name="Grupo 1101126" transform="translate(1141 6618)">
        <circle id="Elipse_11511-7" data-name="Elipse 11511" cx="10.5" cy="10.5" r="10.5" fill="#d1b132"/>
        <circle id="Elipse_11515-7" data-name="Elipse 11515" cx="5.5" cy="5.5" r="5.5" transform="translate(5 5)" fill="#95802c"/>
      </g>
    </g>
  </g>
</svg>
